{
.formatVersion = 3;
classes = (
{

glyphs = (
{
glyphname = .notdef;
layers = (
{
layerId = "740CAC0B-92FD-4184-A3FF-9D0096FD1E3F";
shapes = (
{
closed = 1;
nodes = (
(944,0,l),
(944,1760,l),
(78,1760,l),
(78,0,l)
);
},
{
closed = 1;
nodes = (
(341,1630,l),
(681,1630,l),
(511,1091,l)
);
},
{
closed = 1;
nodes = (
(218,1598,l),
(445,880,l),
(218,162,l)
);
},
{
closed = 1;
nodes = (
(578,880,l),
(804,1598,l),
(804,162,l)
);
},
{
closed = 1;
nodes = (
(681,130,l),
(341,130,l),
(511,669,l)
);
}
);
width = 1022;
}
);
},
{
glyphname = A;
layers = (
{
anchors = (
{
name = bottom;
position = "{497, 20}";
},
{
name = ogonek;
position = "{780, 0}";
},
{
name = top_case;
position = "{496, 1760}";
},
{
name = top;
position = "{497, 1760}";
}
);
background = {
shapes = (
{
closed = 1;
nodes = (
(372,0,l),
(394,284,l),
(606,284,l),
(631,0,l),
(964,0,l),
(797,1760,l),
(200,1760,l),
(30,0,l)
);
},
{
closed = 1;
nodes = (
(486,1460,l),
(502,1460,l),
(579,565,l),
(419,565,l)
);
}
);
};
layerId = "740CAC0B-92FD-4184-A3FF-9D0096FD1E3F";
shapes = (
{
closed = 1;
nodes = (
(372,0,l),
(394,284,l),
(606,284,l),
(631,0,l),
(964,0,l),
(797,1760,l),
(200,1760,l),
(30,0,l)
);
},
{
closed = 1;
nodes = (
(486,1460,l),
(502,1460,l),
(579,565,l),
(419,565,l)
);
}
);
width = 994;
}
);
leftKerningGroup = A;
rightKerningGroup = A;
unicode = 65;
},
{
glyphname = AE;
layers = (
{
anchors = (
{
name = top;
position = "{796, 1760}";
}
);
background = {
shapes = (
{
closed = 1;
nodes = (
(337,0,l),
(416,479,l),
(622,479,l),
(623,0,l),
(1272,0,l),
(1272,311,l),
(963,311,l),
(963,750,l),
(1235,750,l),
(1235,1049,l),
(963,1049,l),
(963,1451,l),
(1249,1451,l),
(1249,1760,l),
(277,1760,l),
(-44,0,l)
);
},
{
closed = 1;
nodes = (
(561,1461,l),
(618,1461,l),
(618,769,l),
(462,769,l)
);
}
);
};
layerId = "740CAC0B-92FD-4184-A3FF-9D0096FD1E3F";
shapes = (
{
closed = 1;
nodes = (
(337,0,l),
(416,479,l),
(623,479,l),
(623,0,l),
(1272,0,l),
(1272,311,l),
(963,311,l),
(963,750,l),
(1235,750,l),
(1235,1049,l),
(963,1049,l),
(963,1451,l),
(1249,1451,l),
(1249,1760,l),
(277,1760,l),
(-44,0,l)
);
},
{
closed = 1;
nodes = (
(561,1461,l),
(618,1461,l),
(618,769,l),
(462,769,l)
);
}
);
width = 1311;
}
);
rightKerningGroup = E;
unicode = 198;
},
{
glyphname = "Alpha-latin";
layers = (
{
layerId = "740CAC0B-92FD-4184-A3FF-9D0096FD1E3F";
shapes = (
{
closed = 1;
nodes = (
(497,-16,o),
(607,42,o),
(647,208,c),
(621,246,l),
(685,38,o),
(805,-10,o),
(1059,-10,c),
(1059,306,l),
(969,306,o),
(931,344,o),
(931,439,cs),
(931,1760,l),
(581,1760,l),
(581,1604,l),
(541,1718,o),
(477,1776,o),
(363,1776,cs),
(104,1776,o),
(64,1578,o),
(64,1294,cs),
(64,467,ls),
(64,182,o),
(104,-16,o),
(363,-16,cs)
);
},
{
closed = 1;
nodes = (
(431,278,o),
(414,336,o),
(414,431,cs),
(414,1330,ls),
(414,1424,o),
(431,1482,o),
(499,1482,cs),
(561,1482,o),
(581,1416,o),
(581,1330,cs),
(581,431,ls),
(581,344,o),
(561,278,o),
(499,278,cs)
);
}
);
width = 1069;
}
);
leftKerningGroup = O;
unicode = 11373;
},
{
glyphname = Astroke;
leftMetricsKey = A;
rightMetricsKey = A;
layers = (
{
layerId = "740CAC0B-92FD-4184-A3FF-9D0096FD1E3F";
shapes = (
{
closed = 1;
nodes = (
(241,-186,l),
(398,419,l),
(258,419,l),
(101,-186,l)
);
},
{
closed = 1;
nodes = (
(661,1425,l),
(809,2000,l),
(669,2000,l),
(521,1425,l)
);
},
{
alignment = -1;
ref = A;
}
);
width = 994;
}
);
unicode = 570;
},
{
glyphname = B;
layers = (
{
anchors = (
{
name = bottom;
position = "{451, 0}";
},
{
name = top;
position = "{451, 1760}";
}
);
background = {
shapes = (
{
closed = 1;
nodes = (
(555,0,ls),
(865,0,o),
(942,226,o),
(942,569,cs),
(942,781,o),
(900,939,o),
(742,979,c),
(863,1011,o),
(922,1116,o),
(922,1281,cs),
(922,1358,ls),
(922,1645,o),
(811,1760,o),
(555,1760,cs),
(78,1760,l),
(78,0,l)
);
},
{
closed = 1;
nodes = (
(450,310,o),
(438,311,o),
(422,312,c),
(422,822,l),
(487,822,ls),
(570,822,o),
(594,760,o),
(594,660,cs),
(594,440,ls),
(594,354,o),
(548,310,o),
(457,310,cs)
);
},
{
closed = 1;
nodes = (
(422,1488,l),
(496,1488,ls),
(546,1488,o),
(571,1460,o),
(571,1403,cs),
(571,1226,ls),
(571,1155,o),
(559,1097,o),
(494,1097,cs),
(422,1097,l)
);
}
);
};
layerId = "740CAC0B-92FD-4184-A3FF-9D0096FD1E3F";
shapes = (
{
closed = 1;
nodes = (
(555,0,ls),
(865,0,o),
(942,226,o),
(942,569,cs),
(942,781,o),
(900,939,o),
(742,979,c),
(863,1011,o),
(922,1116,o),
(922,1281,cs),
(922,1358,ls),
(922,1645,o),
(811,1760,o),
(555,1760,cs),
(78,1760,l),
(78,0,l)
);
},
{
closed = 1;
nodes = (
(450,310,o),
(433,311,o),
(422,312,c),
(422,822,l),
(487,822,ls),
(570,822,o),
(594,760,o),
(594,660,cs),
(594,440,ls),
(594,354,o),
(548,310,o),
(457,310,cs)
);
},
{
closed = 1;
nodes = (
(422,1488,l),
(496,1488,ls),
(546,1488,o),
(571,1460,o),
(571,1403,cs),
(571,1226,ls),
(571,1155,o),
(559,1097,o),
(494,1097,cs),
(422,1097,l)
);
}
);
width = 980;
}
);
leftKerningGroup = H;
rightKerningGroup = B;
unicode = 66;
},
{
glyphname = "Beta-latin";
layers = (
{
layerId = "740CAC0B-92FD-4184-A3FF-9D0096FD1E3F";
shapes = (
{
closed = 1;
nodes = (
(422,-186,l),
(422,0,l),
(555,0,ls),
(865,0,o),
(942,226,o),
(942,569,cs),
(942,781,o),
(900,939,o),
(742,979,c),
(863,1011,o),
(922,1116,o),
(922,1281,cs),
(922,1358,ls),
(922,1645,o),
(811,1760,o),
(555,1760,cs),
(78,1760,l),
(78,-186,l)
);
},
{
closed = 1;
nodes = (
(450,310,o),
(433,311,o),
(422,312,c),
(422,822,l),
(487,822,ls),
(570,822,o),
(594,760,o),
(594,660,cs),
(594,440,ls),
(594,354,o),
(548,310,o),
(457,310,cs)
);
},
{
closed = 1;
nodes = (
(422,1488,l),
(496,1488,ls),
(546,1488,o),
(571,1460,o),
(571,1403,cs),
(571,1226,ls),
(571,1155,o),
(559,1097,o),
(494,1097,cs),
(422,1097,l)
);
}
);
width = 980;
}
);
leftKerningGroup = H;
rightKerningGroup = B;
unicode = 42932;
},
{
glyphname = Bhook;
layers = (
{
layerId = "740CAC0B-92FD-4184-A3FF-9D0096FD1E3F";
shapes = (
{
closed = 1;
nodes = (
(903,0,ls),
(1213,0,o),
(1290,226,o),
(1290,569,cs),
(1290,781,o),
(1248,939,o),
(1090,979,c),
(1211,1011,o),
(1270,1116,o),
(1270,1281,cs),
(1270,1358,ls),
(1270,1645,o),
(1159,1760,o),
(903,1760,cs),
(426,1760,ls),
(143,1760,o),
(5,1573,o),
(5,1312,cs),
(5,1252,l),
(312,1252,l),
(312,1336,ls),
(312,1441,o),
(347,1488,o),
(426,1488,c),
(426,0,l)
);
},
{
closed = 1;
nodes = (
(798,310,o),
(781,311,o),
(770,312,c),
(770,822,l),
(835,822,ls),
(918,822,o),
(942,760,o),
(942,660,cs),
(942,440,ls),
(942,354,o),
(896,310,o),
(805,310,cs)
);
},
{
closed = 1;
nodes = (
(770,1488,l),
(844,1488,ls),
(894,1488,o),
(919,1460,o),
(919,1403,cs),
(919,1226,ls),
(919,1155,o),
(907,1097,o),
(842,1097,cs),
(770,1097,l)
);
}
);
width = 1328;
}
);
rightKerningGroup = B;
unicode = 385;
},
{
glyphname = Bstroke;
layers = (
{
layerId = "740CAC0B-92FD-4184-A3FF-9D0096FD1E3F";
shapes = (
{
closed = 1;
nodes = (
(516,453,l),
(516,685,l),
(0,685,l),
(0,453,l)
);
},
{
alignment = -1;
ref = B;
}
);
width = 980;
}
);
leftKerningGroup = H;
rightKerningGroup = B;
unicode = 579;
},
{
glyphname = C;
layers = (
{
anchors = (
{
name = bot;
position = "{489, 0}";
},
{
name = top;
position = "{496, 1760}";
}
);
background = {
shapes = (
{
closed = 1;
nodes = (
(768,-16,o),
(932,116,o),
(932,425,cs),
(932,758,l),
(578,758,l),
(578,441,ls),
(578,362,o),
(556,308,o),
(496,308,cs),
(442,308,o),
(413,344,o),
(413,441,cs),
(413,1322,ls),
(413,1400,o),
(431,1452,o),
(496,1452,cs),
(552,1452,o),
(578,1423,o),
(578,1318,cs),
(578,1058,l),
(928,1058,l),
(928,1362,ls),
(928,1639,o),
(746,1776,o),
(496,1776,cs),
(191,1776,o),
(64,1589,o),
(64,1248,cs),
(64,436,ls),
(64,151,o),
(233,-16,o),
(488,-16,cs)
);
}
);
};
layerId = "740CAC0B-92FD-4184-A3FF-9D0096FD1E3F";
shapes = (
{
closed = 1;
nodes = (
(768,-16,o),
(932,116,o),
(932,425,cs),
(932,758,l),
(578,758,l),
(578,441,ls),
(578,362,o),
(556,308,o),
(496,308,cs),
(442,308,o),
(413,344,o),
(413,441,cs),
(413,1322,ls),
(413,1400,o),
(431,1452,o),
(496,1452,cs),
(552,1452,o),
(578,1423,o),
(578,1318,cs),
(578,1058,l),
(928,1058,l),
(928,1362,ls),
(928,1639,o),
(746,1776,o),
(496,1776,cs),
(191,1776,o),
(64,1589,o),
(64,1248,cs),
(64,436,ls),
(64,151,o),
(233,-16,o),
(488,-16,cs)
);
}
);
width = 971;
}
);
leftKerningGroup = O;
rightKerningGroup = C;
unicode = 67;
},
{
glyphname = "Chi-latin";
layers = (
{
layerId = "740CAC0B-92FD-4184-A3FF-9D0096FD1E3F";
shapes = (
{
closed = 1;
nodes = (
(987,84,l),
(917,84,o),
(897,128,o),
(879,231,cs),
(769,844,l),
(917,1760,l),
(579,1760,l),
(501,1091,l),
(455,1438,ls),
(424,1672,o),
(307,1774,o),
(27,1774,c),
(27,1488,l),
(117,1488,o),
(127,1444,o),
(143,1342,cs),
(221,844,l),
(37,-186,l),
(387,-186,l),
(497,572,l),
(559,134,ls),
(592,-99,o),
(707,-202,o),
(987,-202,c)
);
}
);
width = 1013;
}
);
leftKerningGroup = X;
rightKerningGroup = X;
unicode = 42931;
},
{
glyphname = Chook;
layers = (
{
anchors = (
{
name = bot;
position = "{489, 0}";
},
{
name = top;
position = "{496, 1760}";
}
);
layerId = "740CAC0B-92FD-4184-A3FF-9D0096FD1E3F";
shapes = (
{
closed = 1;
nodes = (
(768,-16,o),
(932,116,o),
(932,425,cs),
(932,758,l),
(578,758,l),
(578,441,ls),
(578,362,o),
(556,308,o),
(496,308,cs),
(442,308,o),
(413,344,o),
(413,441,cs),
(413,1322,ls),
(413,1400,o),
(431,1452,o),
(496,1452,cs),
(552,1452,o),
(578,1423,o),
(578,1318,cs),
(578,1058,l),
(928,1058,l),
(928,1532,ls),
(928,1648,o),
(972,1684,o),
(1064,1684,c),
(1064,2000,l),
(859,2000,o),
(716,1878,o),
(668,1693,c),
(699,1707,l),
(644,1751,o),
(571,1776,o),
(486,1776,cs),
(191,1776,o),
(64,1589,o),
(64,1248,cs),
(64,436,ls),
(64,151,o),
(233,-16,o),
(488,-16,cs)
);
}
);
width = 1054;
}
);
leftKerningGroup = O;
rightKerningGroup = C;
unicode = 391;
},
{
glyphname = Cstroke;
layers = (
{
layerId = "740CAC0B-92FD-4184-A3FF-9D0096FD1E3F";
shapes = (
{
closed = 1;
nodes = (
(721,1425,l),
(869,2000,l),
(729,2000,l),
(581,1425,l)
);
},
{
closed = 1;
nodes = (
(301,-186,l),
(411,237,l),
(271,237,l),
(161,-186,l)
);
},
{
alignment = -1;
ref = C;
}
);
width = 971;
}
);
leftKerningGroup = O;
rightKerningGroup = C;
unicode = 571;
},
{
glyphname = D;
layers = (
{
anchors = (
{
name = bottom;
position = "{505, 0}";
},
{
name = center;
position = "{505, 880}";
},
{
name = mid;
position = "{271, 923}";
},
{
name = top;
position = "{504, 1760}";
}
);
background = {
shapes = (
{
closed = 1;
nodes = (
(551,0,ls),
(843,0,o),
(948,189,o),
(946,522,cs),
(942,1346,ls),
(941,1616,o),
(816,1760,o),
(563,1760,cs),
(78,1760,l),
(78,0,l)
);
},
{
closed = 1;
nodes = (
(432,1452,l),
(471,1452,ls),
(567,1452,o),
(590,1430,o),
(590,1313,cs),
(590,405,ls),
(590,342,o),
(556,311,o),
(493,311,cs),
(432,311,l)
);
}
);
};
layerId = "740CAC0B-92FD-4184-A3FF-9D0096FD1E3F";
shapes = (
{
closed = 1;
nodes = (
(550,0,ls),
(842,0,o),
(944,189,o),
(944,522,cs),
(944,1346,ls),
(944,1616,o),
(815,1760,o),
(562,1760,cs),
(78,1760,l),
(78,0,l)
);
},
{
closed = 1;
nodes = (
(432,1452,l),
(471,1452,ls),
(567,1452,o),
(590,1430,o),
(590,1313,cs),
(590,405,ls),
(590,342,o),
(556,311,o),
(493,311,cs),
(432,311,l)
);
}
);
width = 1010;
}
);
leftKerningGroup = H;
rightKerningGroup = O;
unicode = 68;
},
{
glyphname = Delta;
layers = (
{
background = {
shapes = (
{
closed = 1;
nodes = (
(1073,0,l),
(796,1760,l),
(299,1760,l),
(30,0,l)
);
},
{
closed = 1;
nodes = (
(515,1560,l),
(531,1560,l),
(668,225,l),
(359,225,l)
);
}
);
};
layerId = "740CAC0B-92FD-4184-A3FF-9D0096FD1E3F";
shapes = (
{
closed = 1;
nodes = (
(1073,0,l),
(796,1760,l),
(299,1760,l),
(30,0,l)
);
},
{
closed = 1;
nodes = (
(515,1560,l),
(531,1560,l),
(668,225,l),
(359,225,l)
);
}
);
width = 1103;
}
);
unicode = 916;
},
{
glyphname = Dhook;
layers = (
{
layerId = "740CAC0B-92FD-4184-A3FF-9D0096FD1E3F";
shapes = (
{
closed = 1;
nodes = (
(899,0,ls),
(1191,0,o),
(1293,189,o),
(1293,522,cs),
(1293,1346,ls),
(1293,1616,o),
(1164,1760,o),
(911,1760,cs),
(427,1760,ls),
(144,1760,o),
(5,1574,o),
(5,1312,cs),
(5,1252,l),
(312,1252,l),
(312,1312,ls),
(312,1406,o),
(348,1452,o),
(427,1452,c),
(427,0,l)
);
},
{
closed = 1;
nodes = (
(781,1452,l),
(820,1452,ls),
(916,1452,o),
(939,1430,o),
(939,1313,cs),
(939,405,ls),
(939,342,o),
(905,311,o),
(842,311,cs),
(781,311,l)
);
}
);
width = 1359;
}
);
rightKerningGroup = O;
unicode = 394;
},
{
glyphname = E;
layers = (
{
anchors = (
{
name = bottom;
position = "{442, 0}";
},
{
name = ogonek;
position = "{599, 0}";
},
{
name = top_case;
position = "{435, 1760}";
},
{
name = top;
position = "{442, 1760}";
}
);
background = {
shapes = (
{
closed = 1;
nodes = (
(805,0,l),
(805,343,l),
(436,343,l),
(436,746,l),
(768,746,l),
(768,1077,l),
(436,1077,l),
(436,1420,l),
(782,1420,l),
(782,1760,l),
(78,1760,l),
(78,0,l)
);
}
);
};
layerId = "740CAC0B-92FD-4184-A3FF-9D0096FD1E3F";
shapes = (
{
closed = 1;
nodes = (
(805,0,l),
(805,343,l),
(436,343,l),
(436,746,l),
(768,746,l),
(768,1077,l),
(436,1077,l),
(436,1420,l),
(782,1420,l),
(782,1760,l),
(78,1760,l),
(78,0,l)
);
}
);
width = 843;
}
);
leftKerningGroup = H;
rightKerningGroup = E;
unicode = 69;
},
{
glyphname = Eng;
layers = (
{
background = {
shapes = (
{
closed = 1;
nodes = (
(741,-488,o),
(942,-355,o),
(942,-18,cs),
(942,182,l),
(577,182,l),
(577,-41,ls),
(577,-182,o),
(517,-236,o),
(417,-236,cs),
(345,-236,o),
(251,-207,o),
(145,-161,c),
(64,-368,l),
(202,-444,o),
(357,-488,o),
(497,-488,cs)
);
}
);
};
layerId = "740CAC0B-92FD-4184-A3FF-9D0096FD1E3F";
shapes = (
{
closed = 1;
nodes = (
(447,-488,l),
(761,-488,o),
(942,-325,o),
(942,-8,cs),
(942,1760,l),
(602,1760,l),
(602,917,l),
(440,1760,l),
(78,1760,l),
(78,0,l),
(422,0,l),
(422,880,l),
(577,105,l),
(577,-31,ls),
(577,-132,o),
(537,-186,o),
(447,-186,c)
);
}
);
width = 1006;
}
);
leftKerningGroup = H;
rightKerningGroup = H;
unicode = 330;
},
{
glyphname = Eopen;
layers = (
{
anchors = (
{
name = top;
position = "{500, 1760}";
},
{
name = bottom;
position = "{500, 0}";
}
);
layerId = "740CAC0B-92FD-4184-A3FF-9D0096FD1E3F";
shapes = (
{
closed = 1;
nodes = (
(827,-20,o),
(961,143,o),
(961,474,cs),
(961,658,l),
(600,658,l),
(600,473,ls),
(600,380,o),
(593,306,o),
(506,306,cs),
(411,306,o),
(408,418,o),
(408,530,cs),
(408,562,ls),
(408,683,o),
(440,787,o),
(558,787,cs),
(662,787,l),
(662,1103,l),
(598,1103,ls),
(484,1103,o),
(405,1157,o),
(405,1291,cs),
(405,1391,o),
(434,1440,o),
(503,1440,cs),
(582,1440,o),
(586,1370,o),
(586,1286,cs),
(586,1233,l),
(950,1233,l),
(950,1295,ls),
(950,1618,o),
(804,1763,o),
(493,1763,cs),
(193,1763,o),
(43,1609,o),
(43,1295,cs),
(43,1105,o),
(82,990,o),
(208,945,c),
(58,872,o),
(39,749,o),
(39,530,cs),
(39,178,o),
(175,-20,o),
(516,-20,cs)
);
}
);
width = 1012;
}
);
unicode = 400;
},
{
glyphname = Ereversed;
layers = (
{
layerId = "740CAC0B-92FD-4184-A3FF-9D0096FD1E3F";
shapes = (
{
closed = 1;
nodes = (
(765,1760,l),
(61,1760,l),
(61,1420,l),
(407,1420,l),
(407,1077,l),
(75,1077,l),
(75,746,l),
(407,746,l),
(407,343,l),
(38,343,l),
(38,0,l),
(765,0,l)
);
}
);
width = 843;
}
);
unicode = 398;
},
{
glyphname = Esh;
layers = (
{
background = {
shapes = (
{
closed = 1;
nodes = (
(795,0,l),
(795,343,l),
(352,343,l),
(405,256,l),
(702,850,l),
(702,926,l),
(404,1483,l),
(352,1420,l),
(779,1420,l),
(779,1760,l),
(62,1760,l),
(62,1455,l),
(369,882,l),
(62,268,l),
(62,0,l)
);
}
);
};
layerId = "740CAC0B-92FD-4184-A3FF-9D0096FD1E3F";
shapes = (
{
closed = 1;
nodes = (
(795,0,l),
(795,343,l),
(352,343,l),
(405,256,l),
(702,850,l),
(702,926,l),
(404,1483,l),
(352,1420,l),
(779,1420,l),
(779,1760,l),
(62,1760,l),
(62,1455,l),
(369,882,l),
(62,268,l),
(62,0,l)
);
}
);
width = 836;
}
);
unicode = 425;
},
{
glyphname = Estroke;
layers = (
{
layerId = "740CAC0B-92FD-4184-A3FF-9D0096FD1E3F";
shapes = (
{
closed = 1;
nodes = (
(699,1572,l),
(809,2000,l),
(669,2000,l),
(559,1572,l)
);
},
{
closed = 1;
nodes = (
(241,-186,l),
(351,237,l),
(211,237,l),
(101,-186,l)
);
},
{
alignment = -1;
ref = E;
}
);
width = 843;
}
);
leftKerningGroup = H;
rightKerningGroup = E;
unicode = 582;
},
{
glyphname = Eth;
layers = (
{
layerId = "740CAC0B-92FD-4184-A3FF-9D0096FD1E3F";
shapes = (
{
closed = 1;
nodes = (
(550,0,ls),
(842,0,o),
(944,189,o),
(944,522,cs),
(944,1346,ls),
(944,1616,o),
(815,1760,o),
(562,1760,cs),
(78,1760,l),
(78,1036,l),
(3,1036,l),
(3,804,l),
(78,804,l),
(78,0,l)
);
},
{
closed = 1;
nodes = (
(432,804,l),
(519,804,l),
(519,1036,l),
(432,1036,l),
(432,1452,l),
(471,1452,ls),
(567,1452,o),
(590,1430,o),
(590,1313,cs),
(590,405,ls),
(590,342,o),
(556,311,o),
(493,311,cs),
(432,311,l)
);
}
);
width = 1010;
}
);
rightKerningGroup = O;
unicode = 208;
},
{
glyphname = Etilde;
layers = (
{
background = {
shapes = (
{
closed = 1;
nodes = (
(805,0,l),
(805,343,l),
(436,343,l),
(436,746,l),
(768,746,l),
(768,1077,l),
(436,1077,l),
(436,1420,l),
(782,1420,l),
(782,1760,l),
(78,1760,l),
(78,0,l)
);
},
{
closed = 1;
nodes = (
(759,1871,o),
(808,1997,o),
(857,2132,c),
(691,2186,l),
(664,2131,o),
(634,2111,o),
(598,2111,cs),
(522,2111,o),
(420,2195,o),
(278,2195,cs),
(135,2195,o),
(80,2093,o),
(31,1972,c),
(179,1894,l),
(205,1945,o),
(236,1962,o),
(271,1962,cs),
(352,1962,o),
(460,1871,o),
(609,1871,cs)
);
}
);
};
layerId = "740CAC0B-92FD-4184-A3FF-9D0096FD1E3F";
shapes = (
{
alignment = -1;
ref = E;
},
{
pos = (442,260);
ref = tildecomb;
}
);
width = 843;
}
);
leftKerningGroup = H;
rightKerningGroup = E;
unicode = 7868;
},
{
glyphname = Ezh;
layers = (
{
anchors = (
{
name = bottom;
position = "{506, 0}";
},
{
name = top;
position = "{526, 1760}";
}
);
layerId = "740CAC0B-92FD-4184-A3FF-9D0096FD1E3F";
shapes = (
{
closed = 1;
nodes = (
(818,-14,o),
(961,174,o),
(961,536,cs),
(961,830,o),
(865,1015,o),
(638,1068,c),
(638,960,l),
(959,1450,l),
(959,1760,l),
(88,1760,l),
(88,1420,l),
(611,1420,l),
(591,1458,l),
(329,1058,l),
(329,803,l),
(445,803,ls),
(545,803,o),
(592,730,o),
(592,579,cs),
(592,536,ls),
(592,414,o),
(592,310,o),
(504,310,cs),
(422,310,o),
(402,372,o),
(402,479,cs),
(402,658,l),
(43,658,l),
(43,479,ls),
(43,145,o),
(178,-14,o),
(486,-14,cs)
);
}
);
width = 1012;
}
);
unicode = 439;
},
{
glyphname = Ezhreversed;
layers = (
{
layerId = "740CAC0B-92FD-4184-A3FF-9D0096FD1E3F";
shapes = (
{
closed = 1;
nodes = (
(834,-14,o),
(969,145,o),
(969,479,cs),
(969,658,l),
(610,658,l),
(610,479,ls),
(610,372,o),
(590,310,o),
(508,310,cs),
(420,310,o),
(420,414,o),
(420,536,cs),
(420,579,ls),
(420,730,o),
(467,803,o),
(567,803,cs),
(683,803,l),
(683,1058,l),
(421,1458,l),
(401,1420,l),
(924,1420,l),
(924,1760,l),
(53,1760,l),
(53,1450,l),
(374,960,l),
(374,1068,l),
(147,1015,o),
(51,830,o),
(51,536,cs),
(51,174,o),
(194,-14,o),
(526,-14,cs)
);
}
);
width = 1012;
}
);
unicode = 440;
},
{
glyphname = F;
layers = (
{
anchors = (
{
name = top;
position = "{452, 1760}";
}
);
background = {
shapes = (
{
closed = 1;
nodes = (
(432,0,l),
(432,798,l),
(764,798,l),
(764,1137,l),
(432,1137,l),
(432,1417,l),
(782,1417,l),
(782,1760,l),
(78,1760,l),
(78,0,l)
);
}
);
};
layerId = "740CAC0B-92FD-4184-A3FF-9D0096FD1E3F";
shapes = (
{
closed = 1;
nodes = (
(432,0,l),
(432,798,l),
(764,798,l),
(764,1137,l),
(432,1137,l),
(432,1417,l),
(782,1417,l),
(782,1760,l),
(78,1760,l),
(78,0,l)
);
}
);
width = 817;
}
);
leftKerningGroup = H;
rightKerningGroup = F;
unicode = 70;
},
{
glyphname = Fhook;
layers = (
{
anchors = (
{
name = top;
position = "{452, 1760}";
}
);
layerId = "740CAC0B-92FD-4184-A3FF-9D0096FD1E3F";
shapes = (
{
closed = 1;
nodes = (
(-22,-196,l),
(253,-196,o),
(432,-10,o),
(432,252,cs),
(432,798,l),
(764,798,l),
(764,1137,l),
(432,1137,l),
(432,1417,l),
(782,1417,l),
(782,1760,l),
(78,1760,l),
(78,252,ls),
(78,158,o),
(48,120,o),
(-22,120,c)
);
}
);
width = 817;
}
);
unicode = 401;
},
{
glyphname = G;
layers = (
{
anchors = (
{
name = bot;
position = "{504, 0}";
},
{
name = top;
position = "{495, 1760}";
}
);
background = {
shapes = (
{
closed = 1;
nodes = (
(572,-16,o),
(668,36,o),
(731,148,c),
(791,0,l),
(932,0,l),
(932,1025,l),
(502,1025,l),
(502,721,l),
(596,721,l),
(596,470,ls),
(596,372,o),
(577,308,o),
(503,308,cs),
(431,308,o),
(412,373,o),
(412,468,cs),
(412,1321,ls),
(412,1386,o),
(430,1452,o),
(512,1452,cs),
(577,1452,o),
(592,1394,o),
(592,1318,cs),
(592,1162,l),
(936,1162,l),
(936,1555,o),
(851,1776,o),
(496,1776,cs),
(208,1776,o),
(64,1608,o),
(64,1283,cs),
(64,524,ls),
(64,161,o),
(187,-16,o),
(441,-16,cs)
);
}
);
};
layerId = "740CAC0B-92FD-4184-A3FF-9D0096FD1E3F";
shapes = (
{
closed = 1;
nodes = (
(572,-16,o),
(668,36,o),
(731,148,c),
(791,0,l),
(932,0,l),
(932,1025,l),
(502,1025,l),
(502,721,l),
(596,721,l),
(596,470,ls),
(596,372,o),
(577,308,o),
(503,308,cs),
(431,308,o),
(412,373,o),
(412,468,cs),
(412,1321,ls),
(412,1386,o),
(430,1452,o),
(512,1452,cs),
(577,1452,o),
(592,1394,o),
(592,1318,cs),
(592,1162,l),
(936,1162,l),
(936,1555,o),
(851,1776,o),
(496,1776,cs),
(208,1776,o),
(64,1608,o),
(64,1283,cs),
(64,524,ls),
(64,161,o),
(187,-16,o),
(441,-16,cs)
);
}
);
width = 993;
}
);
leftKerningGroup = O;
rightKerningGroup = G;
unicode = 71;
},
{
glyphname = Gammaafrican;
layers = (
{
background = {
shapes = (
{
closed = 1;
nodes = (
(480,102,l),
(431,102,o),
(406,142,o),
(406,193,cs),
(406,295,o),
(433,376,o),
(491,544,cs),
(546,701,l),
(644,689,l),
(937,1761,l),
(599,1761,l),
(469,1129,l),
(346,1060,l),
(202,638,ls),
(148,476,o),
(99,317,o),
(99,189,cs),
(99,-32,o),
(236,-196,o),
(480,-196,c)
);
},
{
closed = 1;
nodes = (
(480,-196,l),
(724,-196,o),
(861,-32,o),
(861,189,cs),
(861,317,o),
(827,478,o),
(769,638,cs),
(614,1060,l),
(491,1129,l),
(361,1761,l),
(23,1761,l),
(316,689,l),
(414,701,l),
(469,544,ls),
(527,376,o),
(554,295,o),
(554,193,cs),
(554,142,o),
(529,102,o),
(480,102,c)
);
}
);
};
layerId = "740CAC0B-92FD-4184-A3FF-9D0096FD1E3F";
shapes = (
{
closed = 1;
nodes = (
(724,-196,o),
(861,-32,o),
(861,189,cs),
(861,317,o),
(830,478,o),
(770,638,cs),
(689,855,l),
(937,1761,l),
(599,1761,l),
(471,1138,l),
(489,1138,l),
(361,1761,l),
(23,1761,l),
(273,846,l),
(201,638,ls),
(145,477,o),
(99,317,o),
(99,189,cs),
(99,-32,o),
(236,-196,o),
(480,-196,cs)
);
},
{
closed = 1;
nodes = (
(431,102,o),
(406,142,o),
(406,193,cs),
(406,297,o),
(435,379,o),
(497,554,c),
(463,554,l),
(525,379,o),
(554,297,o),
(554,193,cs),
(554,142,o),
(529,102,o),
(480,102,cs)
);
}
);
width = 961;
}
);
unicode = 404;
},
{
glyphname = Germandbls;
layers = (
{
layerId = "64947680-114A-4657-9B7B-E445EF242270";
associatedMasterId = "740CAC0B-92FD-4184-A3FF-9D0096FD1E3F";
name = "Condensed Jul 1 16, 12:16";
shapes = (
{
closed = 1;
nodes = (
(474,993,l),
(544,993,o),
(558,1044,o),
(558,1112,cs),
(558,1270,ls),
(558,1321,o),
(533,1346,o),
(483,1346,cs),
(433,1346,o),
(408,1321,o),
(408,1270,cs),
(408,0,l),
(58,0,l),
(58,1229,ls),
(58,1472,o),
(200,1593,o),
(483,1593,cs),
(742,1593,o),
(909,1490,o),
(909,1229,cs),
(909,1162,ls),
(909,1022,o),
(867,922,o),
(759,887,c),
(928,847,o),
(969,684,o),
(969,476,cs),
(969,177,o),
(882,0,o),
(582,0,cs),
(478,0,l),
(478,281,l),
(573,281,o),
(621,320,o),
(621,399,cs),
(621,598,ls),
(621,706,o),
(583,745,o),
(474,745,c)
);
}
);
width = 600;
},
{
background = {
shapes = (
{
closed = 1;
nodes = (
(408,0,l),
(408,1358,ls),
(408,1433,o),
(444,1470,o),
(514,1470,cs),
(575,1470,o),
(637,1450,o),
(676,1418,c),
(655,1560,l),
(474,1043,l),
(474,823,l),
(583,823,o),
(621,784,o),
(621,676,cs),
(621,399,ls),
(621,320,o),
(573,281,o),
(478,281,c),
(478,0,l),
(582,0,ls),
(882,0,o),
(969,174,o),
(969,538,cs),
(969,865,o),
(923,1026,o),
(727,1053,c),
(772,935,l),
(934,1404,l),
(934,1647,l),
(837,1716,o),
(690,1777,o),
(491,1777,cs),
(213,1777,o),
(58,1654,o),
(58,1403,cs),
(58,0,l)
);
}
);
};
layerId = "740CAC0B-92FD-4184-A3FF-9D0096FD1E3F";
shapes = (
{
closed = 1;
nodes = (
(408,0,l),
(408,1358,ls),
(408,1433,o),
(444,1470,o),
(514,1470,cs),
(575,1470,o),
(637,1450,o),
(676,1418,c),
(655,1560,l),
(474,1043,l),
(474,823,l),
(583,823,o),
(621,784,o),
(621,676,cs),
(621,399,ls),
(621,320,o),
(573,281,o),
(478,281,c),
(478,0,l),
(582,0,ls),
(882,0,o),
(969,174,o),
(969,538,cs),
(969,865,o),
(923,1026,o),
(727,1053,c),
(772,935,l),
(934,1404,l),
(934,1647,l),
(837,1716,o),
(690,1777,o),
(491,1777,cs),
(213,1777,o),
(58,1654,o),
(58,1403,cs),
(58,0,l)
);
}
);
width = 1019;
}
);
unicode = 7838;
},
{
glyphname = Ghook;
layers = (
{
anchors = (
{
name = bot;
position = "{504, 0}";
},
{
name = top;
position = "{495, 1760}";
}
);
background = {
shapes = (
{
closed = 1;
nodes = (
(572,-16,o),
(668,36,o),
(731,148,c),
(791,0,l),
(932,0,l),
(932,1025,l),
(502,1025,l),
(502,721,l),
(596,721,l),
(596,470,ls),
(596,372,o),
(577,308,o),
(503,308,cs),
(431,308,o),
(412,373,o),
(412,468,cs),
(412,1321,ls),
(412,1386,o),
(430,1452,o),
(512,1452,cs),
(577,1452,o),
(592,1394,o),
(592,1318,cs),
(592,1162,l),
(847,1162,l),
(847,1555,o),
(762,1776,o),
(456,1776,cs),
(208,1776,o),
(64,1608,o),
(64,1283,cs),
(64,524,ls),
(64,161,o),
(187,-16,o),
(441,-16,cs)
);
},
{
closed = 1;
nodes = (
(928,1162,l),
(928,1532,l),
(928,1648,o),
(972,1684,o),
(1064,1684,c),
(1064,2000,l),
(810,2000,o),
(652,1814,o),
(652,1552,cs),
(652,1162,l)
);
}
);
};
layerId = "740CAC0B-92FD-4184-A3FF-9D0096FD1E3F";
shapes = (
{
closed = 1;
nodes = (
(572,-16,o),
(668,36,o),
(731,148,c),
(791,0,l),
(932,0,l),
(932,1025,l),
(502,1025,l),
(502,721,l),
(596,721,l),
(596,470,ls),
(596,372,o),
(577,308,o),
(503,308,cs),
(431,308,o),
(412,373,o),
(412,468,cs),
(412,1321,ls),
(412,1386,o),
(430,1452,o),
(512,1452,cs),
(577,1452,o),
(592,1394,o),
(592,1318,cs),
(592,1162,l),
(928,1162,l),
(928,1532,ls),
(928,1648,o),
(972,1684,o),
(1064,1684,c),
(1064,2000,l),
(857,2000,o),
(713,1876,o),
(668,1686,c),
(697,1701,l),
(638,1750,o),
(560,1776,o),
(456,1776,cs),
(208,1776,o),
(64,1608,o),
(64,1283,cs),
(64,524,ls),
(64,161,o),
(187,-16,o),
(441,-16,cs)
);
}
);
width = 1054;
}
);
leftKerningGroup = O;
rightKerningGroup = G;
unicode = 403;
},
{
glyphname = Glottalstop;
layers = (
{
layerId = "740CAC0B-92FD-4184-A3FF-9D0096FD1E3F";
shapes = (
{
closed = 1;
nodes = (
(620,0,l),
(620,625,l),
(850,625,o),
(978,880,o),
(978,1226,cs),
(978,1579,o),
(863,1776,o),
(508,1776,cs),
(237,1776,o),
(48,1648,o),
(48,1379,cs),
(48,1125,l),
(414,1125,l),
(414,1271,ls),
(414,1363,o),
(421,1457,o),
(508,1457,cs),
(588,1457,o),
(601,1381,o),
(601,1294,cs),
(601,912,o),
(510,871,o),
(287,871,c),
(287,0,l)
);
}
);
width = 1008;
}
);
unicode = 577;
},
{
glyphname = Gstroke;
layers = (
{
layerId = "740CAC0B-92FD-4184-A3FF-9D0096FD1E3F";
shapes = (
{
closed = 1;
nodes = (
(1015,423,l),
(1015,655,l),
(499,655,l),
(499,423,l)
);
},
{
alignment = -1;
ref = G;
}
);
width = 993;
}
);
leftKerningGroup = O;
unicode = 484;
},
{
glyphname = H;
layers = (
{
anchors = (
{
name = bottom;
position = "{511, 0}";
},
{
name = center;
position = "{511, 880}";
},
{
name = top;
position = "{511, 1760}";
}
);
background = {
shapes = (
{
closed = 1;
nodes = (
(428,0,l),
(428,798,l),
(594,798,l),
(594,0,l),
(944,0,l),
(944,1760,l),
(594,1760,l),
(594,1131,l),
(428,1131,l),
(428,1760,l),
(78,1760,l),
(78,0,l)
);
}
);
};
layerId = "740CAC0B-92FD-4184-A3FF-9D0096FD1E3F";
shapes = (
{
closed = 1;
nodes = (
(428,0,l),
(428,798,l),
(594,798,l),
(594,0,l),
(944,0,l),
(944,1760,l),
(594,1760,l),
(594,1131,l),
(428,1131,l),
(428,1760,l),
(78,1760,l),
(78,0,l)
);
}
);
width = 1022;
}
);
leftKerningGroup = H;
rightKerningGroup = H;
unicode = 72;
},
{
glyphname = Hbar;
layers = (
{
background = {
shapes = (
{
closed = 1;
nodes = (
(1051,1342,l),
(1051,1500,l),
(-10,1500,l),
(-10,1342,l)
);
}
);
};
layerId = "740CAC0B-92FD-4184-A3FF-9D0096FD1E3F";
shapes = (
{
closed = 1;
nodes = (
(446,0,l),
(446,798,l),
(612,798,l),
(612,0,l),
(962,0,l),
(962,1342,l),
(1051,1342,l),
(1051,1562,l),
(962,1562,l),
(962,1760,l),
(612,1760,l),
(612,1562,l),
(446,1562,l),
(446,1760,l),
(96,1760,l),
(96,1562,l),
(-10,1562,l),
(-10,1342,l),
(96,1342,l),
(96,0,l)
);
},
{
closed = 1;
nodes = (
(446,1342,l),
(612,1342,l),
(612,1131,l),
(446,1131,l)
);
}
);
width = 1041;
}
);
unicode = 294;
},
{
glyphname = Heng;
layers = (
{
layerId = "740CAC0B-92FD-4184-A3FF-9D0096FD1E3F";
shapes = (
{
closed = 1;
nodes = (
(514,-196,l),
(769,-196,o),
(944,-50,o),
(944,232,cs),
(944,1760,l),
(594,1760,l),
(594,1131,l),
(428,1131,l),
(428,1760,l),
(78,1760,l),
(78,0,l),
(428,0,l),
(428,798,l),
(594,798,l),
(594,252,ls),
(594,138,o),
(564,120,o),
(514,120,c)
);
}
);
width = 1022;
}
);
leftKerningGroup = H;
rightKerningGroup = H;
unicode = 42790;
},
{
glyphname = Hhook;
layers = (
{
layerId = "740CAC0B-92FD-4184-A3FF-9D0096FD1E3F";
shapes = (
{
closed = 1;
nodes = (
(777,0,l),
(777,798,l),
(943,798,l),
(943,0,l),
(1293,0,l),
(1293,1760,l),
(943,1760,l),
(943,1131,l),
(777,1131,l),
(777,1760,l),
(427,1760,ls),
(144,1760,o),
(5,1574,o),
(5,1312,cs),
(5,1252,l),
(312,1252,l),
(312,1312,ls),
(312,1418,o),
(348,1464,o),
(427,1464,c),
(427,0,l)
);
}
);
width = 1371;
}
);
rightKerningGroup = H;
unicode = 42922;
},
{
glyphname = Hturned;
layers = (
{
layerId = "740CAC0B-92FD-4184-A3FF-9D0096FD1E3F";
shapes = (
{
closed = 1;
nodes = (
(944,0,l),
(944,1760,l),
(594,1760,l),
(594,1131,l),
(428,1131,l),
(428,1760,l),
(78,1760,l),
(78,798,l),
(594,798,l),
(594,0,l)
);
}
);
width = 1022;
}
);
rightKerningGroup = H;
unicode = 42893;
},
{
glyphname = I;
layers = (
{
anchors = (
{
name = bottom;
position = "{232, 0}";
},
{
name = ogonek;
position = "{290, 0}";
},
{
name = top_case;
position = "{232, 1760}";
},
{
name = top;
position = "{232, 1760}";
}
);
background = {
shapes = (
{
closed = 1;
nodes = (
(402,0,l),
(402,1760,l),
(62,1760,l),
(62,0,l)
);
}
);
};
layerId = "740CAC0B-92FD-4184-A3FF-9D0096FD1E3F";
shapes = (
{
closed = 1;
nodes = (
(402,0,l),
(402,1760,l),
(62,1760,l),
(62,0,l)
);
}
);
width = 464;
}
);
leftKerningGroup = I;
rightKerningGroup = I;
unicode = 73;
},
{
glyphname = Iotaafrican;
layers = (
{
anchors = (
{
name = bottom;
position = "{232, 0}";
},
{
name = ogonek;
position = "{290, 0}";
},
{
name = top_case;
position = "{232, 1760}";
}
);
layerId = "740CAC0B-92FD-4184-A3FF-9D0096FD1E3F";
shapes = (
{
closed = 1;
nodes = (
(482,300,l),
(432,300,o),
(402,318,o),
(402,432,cs),
(402,1760,l),
(62,1760,l),
(62,412,ls),
(62,130,o),
(237,-16,o),
(482,-16,c)
);
}
);
width = 464;
}
);
unicode = 406;
},
{
glyphname = Ismall;
layers = (
{
layerId = "740CAC0B-92FD-4184-A3FF-9D0096FD1E3F";
shapes = (
{
closed = 1;
nodes = (
(583,0,l),
(583,273,l),
(482,273,l),
(482,1227,l),
(583,1227,l),
(583,1500,l),
(33,1500,l),
(33,1227,l),
(134,1227,l),
(134,273,l),
(33,273,l),
(33,0,l)
);
}
);
width = 616;
}
);
unicode = 618;
},
{
glyphname = Istroke;
layers = (
{
layerId = "740CAC0B-92FD-4184-A3FF-9D0096FD1E3F";
shapes = (
{
closed = 1;
nodes = (
(521,785,l),
(521,1017,l),
(5,1017,l),
(5,785,l)
);
},
{
alignment = -1;
pos = (31,0);
ref = I;
}
);
width = 526;
}
);
unicode = 407;
},
{
glyphname = J;
layers = (
{
anchors = (
{
name = top;
position = "{721, 1760}";
},
{
name = bottom;
position = "{468, 0}";
}
);
background = {
shapes = (
{
closed = 1;
nodes = (
(719,-16,o),
(898,160,o),
(898,440,cs),
(898,1760,l),
(543,1760,l),
(543,405,ls),
(543,344,o),
(517,308,o),
(464,308,cs),
(409,308,o),
(386,348,o),
(386,410,cs),
(386,830,l),
(38,830,l),
(38,389,ls),
(38,124,o),
(229,-16,o),
(468,-16,cs)
);
}
);
};
layerId = "740CAC0B-92FD-4184-A3FF-9D0096FD1E3F";
shapes = (
{
closed = 1;
nodes = (
(719,-16,o),
(898,160,o),
(898,440,cs),
(898,1760,l),
(543,1760,l),
(543,405,ls),
(543,344,o),
(517,308,o),
(464,308,cs),
(409,308,o),
(386,348,o),
(386,410,cs),
(386,830,l),
(38,830,l),
(38,389,ls),
(38,124,o),
(229,-16,o),
(468,-16,cs)
);
}
);
width = 955;
}
);
leftKerningGroup = J;
rightKerningGroup = J;
unicode = 74;
},
{
glyphname = Jcrossedtail;
layers = (
{
background = {
shapes = (
{
closed = 1;
nodes = (
(719,-16,o),
(898,160,o),
(898,440,cs),
(898,1760,l),
(543,1760,l),
(543,405,ls),
(543,344,o),
(517,308,o),
(464,308,cs),
(409,308,o),
(386,348,o),
(386,410,cs),
(386,564,l),
(38,564,l),
(38,389,ls),
(38,124,o),
(229,-16,o),
(468,-16,cs)
);
},
{
closed = 1;
nodes = (
(386,564,l),
(386,735,o),
(445,803,o),
(610,803,cs),
(727,803,o),
(828,781,o),
(985,721,c),
(985,1026,l),
(828,1085,o),
(727,1108,o),
(610,1108,cs),
(221,1108,o),
(38,896,o),
(38,564,c)
);
}
);
};
layerId = "740CAC0B-92FD-4184-A3FF-9D0096FD1E3F";
shapes = (
{
closed = 1;
nodes = (
(719,-16,o),
(898,160,o),
(898,440,cs),
(898,752,l),
(925,743,o),
(954,733,o),
(985,721,c),
(985,1026,l),
(954,1038,o),
(925,1048,o),
(898,1057,c),
(898,1760,l),
(543,1760,l),
(543,1106,l),
(200,1082,o),
(38,876,o),
(38,564,cs),
(38,389,ls),
(38,124,o),
(229,-16,o),
(468,-16,cs)
);
},
{
closed = 1;
nodes = (
(409,308,o),
(386,348,o),
(386,410,cs),
(386,564,ls),
(386,709,o),
(429,780,o),
(543,798,c),
(543,405,ls),
(543,344,o),
(517,308,o),
(464,308,cs)
);
}
);
width = 975;
}
);
leftKerningGroup = J;
unicode = 42930;
},
{
glyphname = Jstroke;
layers = (
{
layerId = "740CAC0B-92FD-4184-A3FF-9D0096FD1E3F";
shapes = (
{
closed = 1;
nodes = (
(984,1055,l),
(984,1287,l),
(390,1287,l),
(390,1055,l)
);
},
{
alignment = -1;
ref = J;
}
);
width = 975;
}
);
leftKerningGroup = J;
unicode = 584;
},
{
glyphname = K;
layers = (
{
anchors = (
{
name = bottom;
position = "{523, 0}";
},
{
name = top;
position = "{511, 1760}";
}
);
background = {
shapes = (
{
closed = 1;
nodes = (
(428,0,l),
(428,852,l),
(620,0,l),
(985,0,l),
(747,954,l),
(944,1760,l),
(590,1760,l),
(426,1055,l),
(426,1760,l),
(78,1760,l),
(78,0,l)
);
}
);
};
layerId = "740CAC0B-92FD-4184-A3FF-9D0096FD1E3F";
shapes = (
{
closed = 1;
nodes = (
(428,0,l),
(428,852,l),
(620,0,l),
(985,0,l),
(747,954,l),
(944,1760,l),
(590,1760,l),
(426,1055,l),
(426,1760,l),
(78,1760,l),
(78,0,l)
);
}
);
width = 967;
}
);
leftKerningGroup = H;
rightKerningGroup = K;
unicode = 75;
},
{
glyphname = Klinebelow;
layers = (
{
background = {
shapes = (
{
closed = 1;
nodes = (
(428,0,l),
(428,852,l),
(620,0,l),
(985,0,l),
(747,954,l),
(944,1760,l),
(590,1760,l),
(426,1055,l),
(426,1760,l),
(78,1760,l),
(78,0,l)
);
}
);
};
layerId = "740CAC0B-92FD-4184-A3FF-9D0096FD1E3F";
shapes = (
{
alignment = -1;
ref = K;
},
{
pos = (523,0);
ref = macronbelowcomb;
}
);
width = 967;
}
);
leftKerningGroup = H;
rightKerningGroup = K;
unicode = 7732;
},
{
glyphname = Kstroke;
layers = (
{
layerId = "740CAC0B-92FD-4184-A3FF-9D0096FD1E3F";
shapes = (
{
closed = 1;
nodes = (
(516,1479,l),
(516,1711,l),
(0,1711,l),
(0,1479,l)
);
},
{
alignment = -1;
pos = (15,0);
ref = K;
}
);
width = 982;
}
);
rightKerningGroup = K;
unicode = 42816;
},
{
glyphname = L;
layers = (
{
anchors = (
{
name = bottom;
position = "{433, 0}";
},
{
name = caron.alt;
position = "{193, 1500}";
},
{
name = mid;
position = "{716, 931}";
},
{
name = top;
position = "{254, 1760}";
}
);
background = {
shapes = (
{
closed = 1;
nodes = (
(792,0,l),
(792,300,l),
(430,300,l),
(430,1760,l),
(78,1760,l),
(78,0,l)
);
}
);
};
layerId = "740CAC0B-92FD-4184-A3FF-9D0096FD1E3F";
shapes = (
{
closed = 1;
nodes = (
(792,0,l),
(792,300,l),
(430,300,l),
(430,1760,l),
(78,1760,l),
(78,0,l)
);
}
);
width = 814;
}
);
leftKerningGroup = L;
unicode = 76;
},
{
glyphname = Lbelt;
layers = (
{
background = {
shapes = (
{
closed = 1;
nodes = (
(982,0,l),
(982,300,l),
(620,300,l),
(620,1760,l),
(268,1760,l),
(268,0,l)
);
}
);
};
layerId = "740CAC0B-92FD-4184-A3FF-9D0096FD1E3F";
shapes = (
{
closed = 1;
nodes = (
(982,0,l),
(982,300,l),
(620,300,l),
(620,1761,l),
(268,1761,l),
(268,0,l)
);
},
{
closed = 1;
nodes = (
(760,724,l),
(760,955,l),
(274,955,ls),
(209,955,o),
(184,976,o),
(184,1015,cs),
(184,1054,o),
(209,1074,o),
(274,1074,c),
(299,1285,l),
(104,1285,o),
(-10,1181,o),
(-10,994,cs),
(-10,828,o),
(125,724,o),
(299,724,cs)
);
}
);
width = 1004;
}
);
rightKerningGroup = L;
unicode = 42925;
},
{
glyphname = Lslash;
layers = (
{
background = {
shapes = (
{
closed = 1;
nodes = (
(636,951,l),
(636,1293,l),
(-11,1011,l),
(-11,669,l)
);
}
);
};
layerId = "740CAC0B-92FD-4184-A3FF-9D0096FD1E3F";
shapes = (
{
closed = 1;
nodes = (
(636,961,l),
(636,1283,l),
(-11,1001,l),
(-11,679,l)
);
},
{
alignment = -1;
ref = L;
}
);
width = 853;
}
);
rightKerningGroup = L;
unicode = 321;
},
{
glyphname = M;
layers = (
{
anchors = (
{
name = bottom;
position = "{764, 0}";
},
{
name = top;
position = "{762, 1760}";
}
);
background = {
shapes = (
{
closed = 1;
nodes = (
(396,0,l),
(396,1268,l),
(610,0,l),
(926,0,l),
(1128,1268,l),
(1128,0,l),
(1450,0,l),
(1450,1760,l),
(909,1760,l),
(762,687,l),
(614,1760,l),
(78,1760,l),
(78,0,l)
);
}
);
};
layerId = "740CAC0B-92FD-4184-A3FF-9D0096FD1E3F";
shapes = (
{
closed = 1;
nodes = (
(396,0,l),
(396,1268,l),
(610,0,l),
(926,0,l),
(1128,1268,l),
(1128,0,l),
(1450,0,l),
(1450,1760,l),
(909,1760,l),
(762,687,l),
(614,1760,l),
(78,1760,l),
(78,0,l)
);
}
);
width = 1528;
}
);
leftKerningGroup = H;
rightKerningGroup = H;
unicode = 77;
},
{
glyphname = Mturned;
layers = (
{
layerId = "740CAC0B-92FD-4184-A3FF-9D0096FD1E3F";
shapes = (
{
closed = 1;
nodes = (
(498,-16,o),
(563,30,o),
(623,136,c),
(658,42,o),
(752,-16,o),
(870,-16,cs),
(1031,-16,o),
(1096,46,o),
(1130,177,c),
(1130,0,l),
(1473,0,l),
(1473,1760,l),
(1128,1760,l),
(1128,448,ls),
(1128,346,o),
(1101,260,o),
(1031,260,cs),
(970,260,o),
(947,319,o),
(947,404,cs),
(947,1760,l),
(602,1760,l),
(602,429,ls),
(602,335,o),
(573,256,o),
(509,256,cs),
(448,256,o),
(423,306,o),
(423,404,cs),
(423,1760,l),
(78,1760,l),
(78,410,ls),
(78,134,o),
(155,-16,o),
(369,-16,cs)
);
}
);
width = 1551;
}
);
unicode = 412;
},
{
glyphname = N;
layers = (
{
anchors = (
{
name = bottom;
position = "{503, 0}";
},
{
name = top;
position = "{510, 1760}";
}
);
background = {
shapes = (
{
closed = 1;
nodes = (
(422,0,l),
(422,880,l),
(598,0,l),
(942,0,l),
(942,1760,l),
(602,1760,l),
(602,917,l),
(440,1760,l),
(78,1760,l),
(78,0,l)
);
}
);
};
layerId = "740CAC0B-92FD-4184-A3FF-9D0096FD1E3F";
shapes = (
{
closed = 1;
nodes = (
(422,0,l),
(422,880,l),
(598,0,l),
(942,0,l),
(942,1760,l),
(602,1760,l),
(602,917,l),
(440,1760,l),
(78,1760,l),
(78,0,l)
);
}
);
width = 1020;
}
);
leftKerningGroup = H;
rightKerningGroup = H;
unicode = 78;
},
{
glyphname = Nhookleft;
layers = (
{
layerId = "740CAC0B-92FD-4184-A3FF-9D0096FD1E3F";
shapes = (
{
closed = 1;
nodes = (
(-52,-488,l),
(241,-488,o),
(422,-325,o),
(422,-8,cs),
(422,880,l),
(598,0,l),
(942,0,l),
(942,1760,l),
(602,1760,l),
(602,917,l),
(440,1760,l),
(78,1760,l),
(78,-31,ls),
(78,-132,o),
(38,-186,o),
(-52,-186,c)
);
}
);
width = 1020;
}
);
leftKerningGroup = H;
rightKerningGroup = H;
unicode = 413;
},
{
glyphname = Nlongrightleg;
layers = (
{
layerId = "740CAC0B-92FD-4184-A3FF-9D0096FD1E3F";
shapes = (
{
closed = 1;
nodes = (
(942,-186,l),
(942,1425,ls),
(942,1650,o),
(850,1776,o),
(651,1776,cs),
(530,1776,o),
(446,1694,o),
(416,1574,c),
(416,1760,l),
(78,1760,l),
(78,0,l),
(418,0,l),
(418,1296,ls),
(418,1407,o),
(434,1465,o),
(518,1465,cs),
(578,1465,o),
(602,1413,o),
(602,1328,cs),
(602,-186,l)
);
}
);
width = 1020;
}
);
leftKerningGroup = H;
unicode = 544;
},
{
glyphname = O;
layers = (
{
anchors = (
{
name = bottom;
position = "{498, 0}";
},
{
name = ogonek;
position = "{677, 80}";
},
{
name = top_case;
position = "{498, 1774}";
},
{
name = top;
position = "{498, 1776}";
}
);
background = {
shapes = (
{
closed = 1;
nodes = (
(786,-16,o),
(932,167,o),
(932,480,cs),
(932,1316,ls),
(932,1619,o),
(780,1776,o),
(498,1776,cs),
(216,1776,o),
(64,1619,o),
(64,1316,cs),
(64,480,ls),
(64,167,o),
(210,-16,o),
(498,-16,cs)
);
},
{
closed = 1;
nodes = (
(426,308,o),
(412,369,o),
(412,461,cs),
(412,1319,ls),
(412,1394,o),
(432,1452,o),
(500,1452,cs),
(569,1452,o),
(578,1384,o),
(578,1322,cs),
(578,463,ls),
(578,378,o),
(565,308,o),
(498,308,cs)
);
}
);
};
layerId = "740CAC0B-92FD-4184-A3FF-9D0096FD1E3F";
shapes = (
{
closed = 1;
nodes = (
(779,-16,o),
(932,159,o),
(932,480,cs),
(932,1316,ls),
(932,1617,o),
(782,1776,o),
(498,1776,cs),
(214,1776,o),
(64,1617,o),
(64,1316,cs),
(64,480,ls),
(64,159,o),
(217,-16,o),
(498,-16,cs)
);
},
{
closed = 1;
nodes = (
(439,308,o),
(415,351,o),
(415,461,cs),
(415,1319,ls),
(415,1408,o),
(444,1452,o),
(503,1452,cs),
(556,1452,o),
(581,1411,o),
(581,1322,cs),
(581,463,ls),
(581,356,o),
(556,308,o),
(501,308,cs)
);
}
);
width = 996;
}
);
leftKerningGroup = O;
rightKerningGroup = O;
unicode = 79;
},
{
glyphname = OE;
layers = (
{
anchors = (
{
name = top;
position = "{732, 1760}";
}
);
background = {
shapes = (
{
closed = 1;
nodes = (
(1291,0,l),
(1291,311,l),
(931,311,l),
(931,784,l),
(1254,784,l),
(1254,1083,l),
(931,1083,l),
(931,1451,l),
(1268,1451,l),
(1268,1760,l),
(598,1760,ls),
(273,1760,o),
(50,1665,o),
(50,1356,cs),
(50,430,ls),
(50,143,o),
(235,0,o),
(606,0,cs)
);
},
{
closed = 1;
nodes = (
(513,311,ls),
(431,311,o),
(398,387,o),
(398,480,cs),
(398,1314,ls),
(398,1399,o),
(440,1451,o),
(519,1451,cs),
(574,1451,l),
(574,311,l)
);
}
);
};
layerId = "740CAC0B-92FD-4184-A3FF-9D0096FD1E3F";
shapes = (
{
closed = 1;
nodes = (
(1291,0,l),
(1291,311,l),
(931,311,l),
(931,784,l),
(1254,784,l),
(1254,1083,l),
(931,1083,l),
(931,1451,l),
(1268,1451,l),
(1268,1760,l),
(598,1760,ls),
(273,1760,o),
(50,1665,o),
(50,1356,cs),
(50,430,ls),
(50,143,o),
(235,0,o),
(606,0,cs)
);
},
{
closed = 1;
nodes = (
(513,311,ls),
(431,311,o),
(398,387,o),
(398,480,cs),
(398,1314,ls),
(398,1399,o),
(440,1451,o),
(519,1451,cs),
(574,1451,l),
(574,311,l)
);
}
);
width = 1330;
}
);
leftKerningGroup = O;
rightKerningGroup = E;
unicode = 338;
},
{
glyphname = OU;
layers = (
{
background = {
shapes = (
{
closed = 1;
nodes = (
(786,-16,o),
(932,167,o),
(932,480,cs),
(932,1316,ls),
(932,1619,o),
(780,1776,o),
(498,1776,cs),
(216,1776,o),
(64,1619,o),
(64,1316,cs),
(64,480,ls),
(64,167,o),
(210,-16,o),
(498,-16,cs)
);
},
{
closed = 1;
nodes = (
(429,308,o),
(415,369,o),
(415,461,cs),
(415,1319,ls),
(415,1394,o),
(435,1452,o),
(503,1452,cs),
(572,1452,o),
(581,1384,o),
(581,1322,cs),
(581,463,ls),
(581,378,o),
(568,308,o),
(501,308,cs)
);
}
);
};
layerId = "740CAC0B-92FD-4184-A3FF-9D0096FD1E3F";
shapes = (
{
closed = 1;
nodes = (
(783,-16,o),
(932,162,o),
(932,479,cs),
(932,683,ls),
(932,986,o),
(762,1121,o),
(498,1121,cs),
(234,1121,o),
(64,986,o),
(64,683,cs),
(64,479,ls),
(64,166,o),
(213,-16,o),
(498,-16,cs)
);
},
{
closed = 1;
nodes = (
(432,308,o),
(412,361,o),
(412,461,cs),
(412,706,ls),
(412,794,o),
(441,839,o),
(500,839,cs),
(564,839,o),
(578,785,o),
(578,710,cs),
(578,463,ls),
(578,365,o),
(561,308,o),
(498,308,cs)
);
},
{
closed = 1;
nodes = (
(766,839,o),
(926,982,o),
(926,1303,cs),
(926,1760,l),
(584,1760,l),
(584,1297,ls),
(584,1183,o),
(570,1121,o),
(498,1121,cs),
(426,1121,o),
(412,1185,o),
(412,1297,cs),
(412,1760,l),
(70,1760,l),
(70,1303,ls),
(70,982,o),
(230,839,o),
(498,839,c)
);
}
);
width = 996;
}
);
unicode = 546;
},
{
glyphname = Ohm;
layers = (
{
background = {
shapes = (
{
closed = 1;
nodes = (
(463,0,l),
(463,247,l),
(399,282,o),
(411,441,o),
(411,581,cs),
(411,1211,ls),
(411,1281,o),
(427,1335,o),
(496,1335,cs),
(565,1335,o),
(581,1281,o),
(581,1211,cs),
(581,581,ls),
(581,431,o),
(604,285,o),
(529,247,c),
(529,0,l),
(945,0,l),
(945,246,l),
(823,246,l),
(888,345,o),
(920,499,o),
(920,710,cs),
(920,1189,ls),
(920,1462,o),
(774,1607,o),
(496,1607,cs),
(218,1607,o),
(72,1462,o),
(72,1189,cs),
(72,710,ls),
(72,499,o),
(104,345,o),
(169,246,c),
(47,246,l),
(47,0,l)
);
}
);
};
layerId = "740CAC0B-92FD-4184-A3FF-9D0096FD1E3F";
shapes = (
{
closed = 1;
nodes = (
(463,0,l),
(463,247,l),
(429,282,o),
(411,321,o),
(411,471,cs),
(411,1211,ls),
(411,1281,o),
(427,1335,o),
(496,1335,cs),
(565,1335,o),
(581,1281,o),
(581,1211,cs),
(581,471,ls),
(581,321,o),
(574,285,o),
(529,247,c),
(529,0,l),
(945,0,l),
(945,246,l),
(823,246,l),
(888,345,o),
(920,499,o),
(920,710,cs),
(920,1189,ls),
(920,1462,o),
(774,1607,o),
(496,1607,cs),
(218,1607,o),
(72,1462,o),
(72,1189,cs),
(72,710,ls),
(72,499,o),
(104,345,o),
(169,246,c),
(47,246,l),
(47,0,l)
);
}
);
width = 992;
}
);
unicode = 8486;
},
{
glyphname = Ohorn;
layers = (
{
anchors = (
{
name = _topright;
position = "{498, 1515}";
},
{
name = bottom;
position = "{498, 0}";
},
{
name = ogonek;
position = "{677, 80}";
},
{
name = top_case;
position = "{498, 1760}";
},
{
name = topright;
position = "{498, 1515}";
}
);
layerId = "74BE9E7A-97C7-4EF1-B467-476EDDABEBED";
associatedMasterId = "740CAC0B-92FD-4184-A3FF-9D0096FD1E3F";
name = "Regular Jul 24 16, 23:49";
shapes = (
{
closed = 1;
nodes = (
(786,-16,o),
(932,167,o),
(932,480,cs),
(932,1316,ls),
(932,1619,o),
(780,1776,o),
(498,1776,cs),
(216,1776,o),
(64,1619,o),
(64,1316,cs),
(64,480,ls),
(64,167,o),
(210,-16,o),
(498,-16,cs)
);
},
{
closed = 1;
nodes = (
(426,308,o),
(412,369,o),
(412,461,cs),
(412,1319,ls),
(412,1394,o),
(432,1452,o),
(500,1452,cs),
(569,1452,o),
(578,1384,o),
(578,1322,cs),
(578,463,ls),
(578,378,o),
(565,308,o),
(498,308,cs)
);
},
{
closed = 1;
nodes = (
(819,1566,o),
(969,1659,o),
(969,1909,cs),
(969,1924,l),
(691,1923,l),
(691,1901,ls),
(691,1815,o),
(651,1776,o),
(576,1776,cs),
(499,1776,l),
(499,1587,l),
(539,1573,o),
(580,1566,o),
(634,1566,c)
);
}
);
width = 996;
},
{
anchors = (
{
name = bottom;
position = "{498, 0}";
},
{
name = ogonek;
position = "{677, 80}";
},
{
name = top;
position = "{520, 1801}";
}
);
layerId = "740CAC0B-92FD-4184-A3FF-9D0096FD1E3F";
shapes = (
{
closed = 1;
nodes = (
(786,-16,o),
(932,167,o),
(932,480,cs),
(932,1316,ls),
(932,1459,o),
(898,1569,o),
(833,1646,c),
(835,1560,l),
(1006,1612,o),
(1079,1714,o),
(1079,1893,cs),
(1079,1908,l),
(801,1908,l),
(801,1885,ls),
(801,1799,o),
(761,1776,o),
(686,1776,cs),
(500,1776,ls),
(217,1776,o),
(64,1619,o),
(64,1316,cs),
(64,480,ls),
(64,167,o),
(210,-16,o),
(498,-16,cs)
);
},
{
closed = 1;
nodes = (
(426,308,o),
(412,369,o),
(412,461,cs),
(412,1319,ls),
(412,1394,o),
(432,1452,o),
(500,1452,cs),
(569,1452,o),
(578,1384,o),
(578,1322,cs),
(578,463,ls),
(578,378,o),
(565,308,o),
(498,308,cs)
);
}
);
width = 1009;
}
);
leftKerningGroup = O;
rightKerningGroup = Ohook;
unicode = 416;
},
{
glyphname = Omega;
layers = (
{
background = {
shapes = (
{
closed = 1;
nodes = (
(463,0,l),
(463,247,l),
(399,282,o),
(411,441,o),
(411,581,cs),
(411,1211,ls),
(411,1281,o),
(427,1335,o),
(496,1335,cs),
(565,1335,o),
(581,1281,o),
(581,1211,cs),
(581,581,ls),
(581,431,o),
(604,285,o),
(529,247,c),
(529,0,l),
(945,0,l),
(945,246,l),
(823,246,l),
(888,345,o),
(920,499,o),
(920,710,cs),
(920,1189,ls),
(920,1462,o),
(774,1607,o),
(496,1607,cs),
(218,1607,o),
(72,1462,o),
(72,1189,cs),
(72,710,ls),
(72,499,o),
(104,345,o),
(169,246,c),
(47,246,l),
(47,0,l)
);
}
);
};
layerId = "740CAC0B-92FD-4184-A3FF-9D0096FD1E3F";
shapes = (
{
closed = 1;
nodes = (
(463,0,l),
(463,247,l),
(419,282,o),
(411,381,o),
(411,531,cs),
(411,1374,ls),
(411,1444,o),
(427,1498,o),
(496,1498,cs),
(565,1498,o),
(581,1444,o),
(581,1374,cs),
(581,531,ls),
(581,381,o),
(573,282,o),
(529,247,c),
(529,0,l),
(945,0,l),
(945,246,l),
(823,246,l),
(888,345,o),
(920,499,o),
(920,710,cs),
(920,1352,ls),
(920,1625,o),
(774,1770,o),
(496,1770,cs),
(218,1770,o),
(72,1625,o),
(72,1352,cs),
(72,710,ls),
(72,499,o),
(104,345,o),
(169,246,c),
(47,246,l),
(47,0,l)
);
}
);
width = 992;
}
);
unicode = 937;
},
{
glyphname = "Omega-latin";
layers = (
{
background = {
shapes = (
{
closed = 1;
nodes = (
(814,-16,o),
(960,167,o),
(960,480,cs),
(960,1316,ls),
(960,1619,o),
(808,1776,o),
(526,1776,cs),
(244,1776,o),
(92,1619,o),
(92,1316,cs),
(92,480,ls),
(92,167,o),
(238,-16,o),
(526,-16,cs)
);
},
{
closed = 1;
nodes = (
(457,308,o),
(443,369,o),
(443,461,cs),
(443,1319,ls),
(443,1394,o),
(463,1452,o),
(531,1452,cs),
(600,1452,o),
(609,1384,o),
(609,1322,cs),
(609,463,ls),
(609,378,o),
(596,308,o),
(529,308,cs)
);
}
);
};
layerId = "740CAC0B-92FD-4184-A3FF-9D0096FD1E3F";
shapes = (
{
closed = 1;
nodes = (
(577,-16,o),
(684,23,o),
(760,146,c),
(835,23,o),
(946,-16,o),
(1067,-16,cs),
(1330,-16,o),
(1453,154,o),
(1453,474,cs),
(1453,1317,ls),
(1453,1585,o),
(1311,1776,o),
(1020,1776,c),
(1020,1473,l),
(1077,1473,o),
(1104,1446,o),
(1104,1378,cs),
(1104,462,ls),
(1104,365,o),
(1081,308,o),
(1020,308,cs),
(954,308,o),
(936,361,o),
(936,462,cs),
(936,1179,l),
(581,1179,l),
(581,462,ls),
(581,365,o),
(563,308,o),
(499,308,cs),
(434,308,o),
(413,361,o),
(413,462,cs),
(413,1378,ls),
(413,1446,o),
(440,1473,o),
(497,1473,c),
(497,1776,l),
(206,1776,o),
(64,1585,o),
(64,1317,cs),
(64,474,ls),
(64,158,o),
(187,-16,o),
(452,-16,cs)
);
}
);
width = 1517;
}
);
leftKerningGroup = O;
rightKerningGroup = O;
unicode = 42934;
},
{
glyphname = Oopen;
layers = (
{
layerId = "740CAC0B-92FD-4184-A3FF-9D0096FD1E3F";
shapes = (
{
closed = 1;
nodes = (
(738,-16,o),
(907,151,o),
(907,436,cs),
(907,1248,ls),
(907,1589,o),
(780,1776,o),
(475,1776,cs),
(225,1776,o),
(43,1639,o),
(43,1362,cs),
(43,1058,l),
(393,1058,l),
(393,1318,ls),
(393,1423,o),
(419,1452,o),
(475,1452,cs),
(540,1452,o),
(558,1400,o),
(558,1322,cs),
(558,441,ls),
(558,344,o),
(529,308,o),
(475,308,cs),
(415,308,o),
(393,362,o),
(393,441,cs),
(393,758,l),
(39,758,l),
(39,425,ls),
(39,116,o),
(203,-16,o),
(483,-16,cs)
);
}
);
width = 971;
}
);
rightKerningGroup = O;
unicode = 390;
},
{
glyphname = Oslash;
layers = (
{
anchors = (
{
name = bottom;
position = "{498, 0}";
},
{
name = ogonek;
position = "{677, 80}";
},
{
name = top;
position = "{494, 1897}";
},
{
name = top_case;
position = "{498, 1760}";
}
);
background = {
shapes = (
{
closed = 1;
nodes = (
(849,1971,l),
(732,2004,l),
(604,1550,l),
(715,1500,l)
);
},
{
closed = 1;
nodes = (
(354,230,l),
(255,316,l),
(128,-132,l),
(240,-172,l)
);
}
);
};
layerId = "740CAC0B-92FD-4184-A3FF-9D0096FD1E3F";
shapes = (
{
closed = 1;
nodes = (
(786,-16,o),
(932,167,o),
(932,480,cs),
(932,1316,ls),
(932,1619,o),
(780,1776,o),
(498,1776,cs),
(216,1776,o),
(64,1619,o),
(64,1316,cs),
(64,480,ls),
(64,167,o),
(210,-16,o),
(498,-16,cs)
);
},
{
closed = 1;
nodes = (
(429,308,o),
(415,369,o),
(415,461,cs),
(415,1319,ls),
(415,1394,o),
(435,1452,o),
(503,1452,cs),
(572,1452,o),
(581,1384,o),
(581,1322,cs),
(581,463,ls),
(581,378,o),
(568,308,o),
(501,308,cs)
);
},
{
closed = 1;
nodes = (
(251,-186,l),
(408,419,l),
(268,419,l),
(111,-186,l)
);
},
{
closed = 1;
nodes = (
(711,1425,l),
(859,2000,l),
(719,2000,l),
(571,1425,l)
);
}
);
width = 996;
}
);
leftKerningGroup = O;
rightKerningGroup = O;
unicode = 216;
},
{
glyphname = P;
layers = (
{
anchors = (
{
name = top;
position = "{483, 1760}";
},
{
name = bottom;
position = "{506, 0}";
}
);
background = {
shapes = (
{
closed = 1;
nodes = (
(424,0,l),
(424,697,l),
(567,697,ls),
(859,697,o),
(934,903,o),
(934,1224,cs),
(934,1556,o),
(835,1760,o),
(543,1760,cs),
(78,1760,l),
(78,0,l)
);
},
{
closed = 1;
nodes = (
(424,1439,l),
(463,1439,ls),
(569,1439,o),
(586,1363,o),
(586,1230,cs),
(586,1087,o),
(574,1013,o),
(444,1013,cs),
(424,1013,l)
);
}
);
};
layerId = "740CAC0B-92FD-4184-A3FF-9D0096FD1E3F";
shapes = (
{
closed = 1;
nodes = (
(424,0,l),
(424,697,l),
(567,697,ls),
(859,697,o),
(934,903,o),
(934,1224,cs),
(934,1556,o),
(835,1760,o),
(543,1760,cs),
(78,1760,l),
(78,0,l)
);
},
{
closed = 1;
nodes = (
(424,1439,l),
(463,1439,ls),
(569,1439,o),
(586,1363,o),
(586,1230,cs),
(586,1087,o),
(574,1013,o),
(444,1013,cs),
(424,1013,l)
);
}
);
width = 967;
}
);
leftKerningGroup = H;
rightKerningGroup = P;
unicode = 80;
},
{
glyphname = Phook;
layers = (
{
layerId = "740CAC0B-92FD-4184-A3FF-9D0096FD1E3F";
shapes = (
{
closed = 1;
nodes = (
(773,0,l),
(773,697,l),
(916,697,ls),
(1208,697,o),
(1283,903,o),
(1283,1224,cs),
(1283,1556,o),
(1184,1760,o),
(892,1760,cs),
(427,1760,ls),
(144,1760,o),
(5,1574,o),
(5,1312,cs),
(5,1252,l),
(312,1252,l),
(312,1312,ls),
(312,1418,o),
(348,1464,o),
(427,1464,c),
(427,0,l)
);
},
{
closed = 1;
nodes = (
(773,1439,l),
(812,1439,ls),
(918,1439,o),
(935,1363,o),
(935,1230,cs),
(935,1087,o),
(923,1013,o),
(793,1013,cs),
(773,1013,l)
);
}
);
width = 1316;
}
);
rightKerningGroup = P;
unicode = 420;
},
{
glyphname = Pstroke;
layers = (
{
layerId = "740CAC0B-92FD-4184-A3FF-9D0096FD1E3F";
shapes = (
{
closed = 1;
nodes = (
(516,1115,l),
(516,1347,l),
(0,1347,l),
(0,1115,l)
);
},
{
alignment = -1;
ref = P;
}
);
width = 967;
}
);
rightKerningGroup = P;
unicode = 11363;
},
{
glyphname = Q;
layers = (
{
anchors = (
{
name = top;
position = "{505, 1760}";
},
{
name = bottom;
position = "{515, 0}";
}
);
background = {
shapes = (
{
closed = 1;
nodes = (
(975,23,l),
(824,119,l),
(889,202,o),
(922,318,o),
(922,462,cs),
(922,1313,ls),
(922,1616,o),
(769,1776,o),
(488,1776,cs),
(207,1776,o),
(54,1616,o),
(54,1313,cs),
(54,462,ls),
(54,150,o),
(202,-16,o),
(488,-16,cs),
(501,-16,o),
(531,-10,o),
(576,-3,c),
(856,-187,l)
);
},
{
closed = 1;
nodes = (
(406,308,o),
(402,407,o),
(402,477,cs),
(402,1308,ls),
(402,1384,o),
(417,1452,o),
(486,1452,cs),
(554,1452,o),
(568,1382,o),
(568,1307,cs),
(568,484,ls),
(568,407,o),
(563,308,o),
(488,308,cs)
);
}
);
};
layerId = "740CAC0B-92FD-4184-A3FF-9D0096FD1E3F";
shapes = (
{
closed = 1;
nodes = (
(975,23,l),
(824,119,l),
(889,202,o),
(922,318,o),
(922,462,cs),
(922,1313,ls),
(922,1616,o),
(769,1776,o),
(488,1776,cs),
(207,1776,o),
(54,1616,o),
(54,1313,cs),
(54,462,ls),
(54,150,o),
(202,-16,o),
(477,-16,cs),
(477,-16,o),
(575,-3,o),
(576,-3,c),
(856,-187,l)
);
},
{
closed = 1;
nodes = (
(406,308,o),
(402,407,o),
(402,477,cs),
(402,1308,ls),
(402,1384,o),
(417,1452,o),
(486,1452,cs),
(554,1452,o),
(568,1382,o),
(568,1307,cs),
(568,484,ls),
(568,407,o),
(563,308,o),
(488,308,cs)
);
}
);
width = 1011;
}
);
leftKerningGroup = O;
unicode = 81;
},
{
glyphname = Qhooktail;
layers = (
{
background = {
shapes = (
{
closed = 1;
nodes = (
(497,-16,o),
(607,42,o),
(647,208,c),
(621,311,l),
(621,70,l),
(685,-138,o),
(805,-186,o),
(1059,-186,c),
(1059,130,l),
(969,130,o),
(931,168,o),
(931,263,cs),
(931,1760,l),
(581,1760,l),
(581,1604,l),
(541,1718,o),
(477,1776,o),
(363,1776,cs),
(104,1776,o),
(64,1578,o),
(64,1294,cs),
(64,467,ls),
(64,182,o),
(104,-16,o),
(363,-16,cs)
);
},
{
closed = 1;
nodes = (
(431,278,o),
(414,336,o),
(414,431,cs),
(414,1330,ls),
(414,1424,o),
(431,1482,o),
(499,1482,cs),
(561,1482,o),
(581,1416,o),
(581,1330,cs),
(581,431,ls),
(581,344,o),
(561,278,o),
(499,278,cs)
);
}
);
};
layerId = "740CAC0B-92FD-4184-A3FF-9D0096FD1E3F";
shapes = (
{
closed = 1;
nodes = (
(1059,120,l),
(969,120,o),
(931,158,o),
(931,253,cs),
(931,1760,l),
(581,1760,l),
(581,1604,l),
(541,1718,o),
(477,1776,o),
(363,1776,cs),
(104,1776,o),
(64,1578,o),
(64,1294,cs),
(64,467,ls),
(64,182,o),
(104,-16,o),
(363,-16,cs),
(497,-16,o),
(607,42,o),
(647,208,c),
(621,311,l),
(621,130,ls),
(621,-108,o),
(805,-196,o),
(1059,-196,c)
);
},
{
closed = 1;
nodes = (
(431,278,o),
(414,336,o),
(414,431,cs),
(414,1330,ls),
(414,1424,o),
(431,1482,o),
(499,1482,cs),
(561,1482,o),
(581,1416,o),
(581,1330,cs),
(581,431,ls),
(581,344,o),
(561,278,o),
(499,278,cs)
);
}
);
width = 1049;
}
);
unicode = 586;
},
{
glyphname = R;
layers = (
{
anchors = (
{
name = bottom;
position = "{515, 0}";
},
{
name = top;
position = "{479, 1760}";
}
);
background = {
shapes = (
{
closed = 1;
nodes = (
(434,0,l),
(434,803,l),
(527,803,o),
(567,792,o),
(567,689,cs),
(567,0,l),
(911,0,l),
(915,666,ls),
(915,805,o),
(874,895,o),
(764,918,c),
(898,962,o),
(938,1075,o),
(938,1267,cs),
(938,1564,o),
(888,1760,o),
(618,1760,cs),
(78,1760,l),
(78,0,l)
);
},
{
closed = 1;
nodes = (
(436,1434,l),
(518,1434,ls),
(577,1434,o),
(594,1404,o),
(594,1267,cs),
(594,1160,o),
(568,1108,o),
(521,1108,cs),
(436,1108,l)
);
}
);
};
layerId = "740CAC0B-92FD-4184-A3FF-9D0096FD1E3F";
shapes = (
{
closed = 1;
nodes = (
(434,0,l),
(434,803,l),
(527,803,o),
(567,792,o),
(567,689,cs),
(567,0,l),
(914,0,l),
(914,666,ls),
(914,805,o),
(874,895,o),
(764,918,c),
(898,962,o),
(938,1075,o),
(938,1267,cs),
(938,1564,o),
(888,1760,o),
(618,1760,cs),
(78,1760,l),
(78,0,l)
);
},
{
closed = 1;
nodes = (
(436,1434,l),
(518,1434,ls),
(577,1434,o),
(594,1404,o),
(594,1267,cs),
(594,1160,o),
(568,1108,o),
(521,1108,cs),
(436,1108,l)
);
}
);
width = 976;
}
);
leftKerningGroup = H;
rightKerningGroup = R;
unicode = 82;
},
{
glyphname = Rstroke;
layers = (
{
layerId = "740CAC0B-92FD-4184-A3FF-9D0096FD1E3F";
shapes = (
{
closed = 1;
nodes = (
(516,843,l),
(516,1075,l),
(0,1075,l),
(0,843,l)
);
},
{
alignment = -1;
ref = R;
}
);
width = 976;
}
);
rightKerningGroup = R;
unicode = 588;
},
{
glyphname = Rtail;
layers = (
{
background = {
shapes = (
{
closed = 1;
nodes = (
(914,0,l),
(914,666,ls),
(914,805,o),
(874,895,o),
(764,918,c),
(898,962,o),
(938,1075,o),
(938,1267,cs),
(938,1564,o),
(888,1760,o),
(618,1760,cs),
(78,1760,l),
(78,485,l),
(434,485,l),
(434,803,l),
(527,803,o),
(567,792,o),
(567,689,cs),
(567,0,l)
);
},
{
closed = 1;
nodes = (
(504,120,l),
(464,120,o),
(434,138,o),
(434,252,cs),
(434,487,l),
(77,487,l),
(77,232,ls),
(77,-50,o),
(259,-196,o),
(504,-196,c)
);
},
{
closed = 1;
nodes = (
(436,1434,l),
(518,1434,ls),
(577,1434,o),
(594,1404,o),
(594,1267,cs),
(594,1160,o),
(568,1108,o),
(521,1108,cs),
(436,1108,l)
);
}
);
};
layerId = "740CAC0B-92FD-4184-A3FF-9D0096FD1E3F";
shapes = (
{
closed = 1;
nodes = (
(504,120,l),
(464,120,o),
(434,138,o),
(434,252,cs),
(434,803,l),
(527,803,o),
(567,792,o),
(567,689,cs),
(567,0,l),
(914,0,l),
(914,666,ls),
(914,805,o),
(874,895,o),
(764,918,c),
(898,962,o),
(938,1075,o),
(938,1267,cs),
(938,1564,o),
(888,1760,o),
(618,1760,cs),
(78,1760,l),
(78,232,ls),
(78,-50,o),
(259,-196,o),
(504,-196,c)
);
},
{
closed = 1;
nodes = (
(436,1434,l),
(518,1434,ls),
(577,1434,o),
(594,1404,o),
(594,1267,cs),
(594,1160,o),
(568,1108,o),
(521,1108,cs),
(436,1108,l)
);
}
);
width = 976;
}
);
leftKerningGroup = H;
rightKerningGroup = R;
unicode = 11364;
},
{
glyphname = S;
layers = (
{
anchors = (
{
name = bottom;
position = "{476, 0}";
},
{
name = top;
position = "{468, 1760}";
}
);
background = {
shapes = (
{
closed = 1;
nodes = (
(798,-16,o),
(906,182,o),
(906,513,cs),
(906,758,o),
(802,877,o),
(681,994,cs),
(478,1189,ls),
(399,1264,o),
(379,1319,o),
(379,1368,cs),
(379,1417,o),
(404,1452,o),
(460,1452,cs),
(506,1452,o),
(534,1424,o),
(535,1376,cs),
(537,1255,l),
(894,1255,l),
(894,1605,o),
(772,1776,o),
(449,1776,cs),
(185,1776,o),
(42,1615,o),
(42,1315,cs),
(42,1172,o),
(102,1049,o),
(219,933,cs),
(371,783,ls),
(492,663,o),
(558,610,o),
(558,428,cs),
(558,342,o),
(537,308,o),
(473,308,cs),
(411,308,o),
(390,356,o),
(390,438,cs),
(390,658,l),
(42,658,l),
(42,486,ls),
(42,136,o),
(174,-16,o),
(496,-16,cs)
);
}
);
};
layerId = "740CAC0B-92FD-4184-A3FF-9D0096FD1E3F";
shapes = (
{
closed = 1;
nodes = (
(798,-16,o),
(906,182,o),
(906,513,cs),
(906,758,o),
(802,877,o),
(681,994,cs),
(478,1189,ls),
(399,1264,o),
(379,1319,o),
(379,1368,cs),
(379,1417,o),
(404,1452,o),
(460,1452,cs),
(506,1452,o),
(536,1424,o),
(536,1376,cs),
(536,1255,l),
(894,1255,l),
(894,1605,o),
(772,1776,o),
(449,1776,cs),
(185,1776,o),
(42,1615,o),
(42,1315,cs),
(42,1172,o),
(99,1046,o),
(219,933,cs),
(377,783,ls),
(517,650,o),
(558,590,o),
(558,428,cs),
(558,342,o),
(537,308,o),
(473,308,cs),
(411,308,o),
(390,356,o),
(390,438,cs),
(390,658,l),
(42,658,l),
(42,486,ls),
(42,136,o),
(174,-16,o),
(496,-16,cs)
);
}
);
width = 945;
}
);
leftKerningGroup = S;
rightKerningGroup = S;
unicode = 83;
},
{
glyphname = Saltillo;
layers = (
{
layerId = "740CAC0B-92FD-4184-A3FF-9D0096FD1E3F";
shapes = (
{
closed = 1;
nodes = (
(343,479,l),
(413,1760,l),
(55,1760,l),
(125,479,l)
);
}
);
width = 469;
}
);
unicode = 42891;
},
{
glyphname = Scarondotaccent;
layers = (
{
layerId = "740CAC0B-92FD-4184-A3FF-9D0096FD1E3F";
shapes = (
{
closed = 1;
nodes = (
(618,1837,l),
(855,2092,l),
(570,2092,l),
(471,1956,l),
(372,2092,l),
(87,2092,l),
(324,1837,l)
);
},
{
alignment = -1;
ref = S;
},
{
pos = (470,533);
ref = dotaccentcomb.case;
}
);
width = 945;
}
);
leftKerningGroup = S;
rightKerningGroup = S;
unicode = 7782;
},
{
glyphname = Schwa;
layers = (
{
anchors = (
{
name = top;
position = "{498, 1760}";
},
{
name = bottom;
position = "{498, 0}";
}
);
background = {
shapes = (
{
closed = 1;
nodes = (
(805,-16,o),
(932,171,o),
(932,512,cs),
(932,1324,ls),
(932,1609,o),
(763,1776,o),
(508,1776,cs),
(228,1776,o),
(64,1644,o),
(64,1335,cs),
(64,1087,l),
(418,1087,l),
(418,1319,ls),
(418,1398,o),
(440,1452,o),
(500,1452,cs),
(554,1452,o),
(583,1416,o),
(583,1319,cs),
(583,890,l),
(68,890,l),
(68,398,ls),
(68,121,o),
(250,-16,o),
(500,-16,cs)
);
},
{
closed = 1;
nodes = (
(444,308,o),
(418,337,o),
(418,442,cs),
(418,614,l),
(583,614,l),
(583,438,ls),
(583,360,o),
(565,308,o),
(500,308,cs)
);
}
);
};
layerId = "740CAC0B-92FD-4184-A3FF-9D0096FD1E3F";
shapes = (
{
closed = 1;
nodes = (
(805,-16,o),
(932,171,o),
(932,512,cs),
(932,1324,ls),
(932,1609,o),
(763,1776,o),
(508,1776,cs),
(228,1776,o),
(64,1644,o),
(64,1335,cs),
(64,1187,l),
(418,1187,l),
(418,1319,ls),
(418,1398,o),
(440,1452,o),
(500,1452,cs),
(554,1452,o),
(583,1416,o),
(583,1319,cs),
(583,1050,l),
(68,1050,l),
(68,398,ls),
(68,121,o),
(250,-16,o),
(500,-16,cs)
);
},
{
closed = 1;
nodes = (
(444,308,o),
(418,337,o),
(418,442,cs),
(418,730,l),
(583,730,l),
(583,438,ls),
(583,360,o),
(565,308,o),
(500,308,cs)
);
}
);
width = 1000;
}
);
rightKerningGroup = O;
unicode = 399;
},
{
glyphname = Sigma;
layers = (
{
background = {
shapes = (
{
closed = 1;
nodes = (
(795,-119,l),
(795,176,l),
(387,176,l),
(692,790,l),
(692,866,l),
(387,1444,l),
(779,1444,l),
(779,1760,l),
(62,1760,l),
(62,1455,l),
(399,822,l),
(62,149,l),
(62,-119,l)
);
}
);
};
layerId = "740CAC0B-92FD-4184-A3FF-9D0096FD1E3F";
shapes = (
{
closed = 1;
nodes = (
(795,-119,l),
(795,176,l),
(387,176,l),
(692,790,l),
(692,866,l),
(387,1444,l),
(779,1444,l),
(779,1760,l),
(62,1760,l),
(62,1455,l),
(399,822,l),
(62,149,l),
(62,-119,l)
);
}
);
width = 836;
}
);
unicode = 931;
},
{
glyphname = Sobliquestroke;
layers = (
{
layerId = "740CAC0B-92FD-4184-A3FF-9D0096FD1E3F";
shapes = (
{
closed = 1;
nodes = (
(875,930,l),
(875,1176,l),
(63,982,l),
(63,736,l)
);
},
{
alignment = -1;
ref = S;
}
);
width = 945;
}
);
leftKerningGroup = S;
rightKerningGroup = S;
unicode = 42920;
},
{
glyphname = T;
layers = (
{
anchors = (
{
name = bottom;
position = "{405, 0}";
},
{
name = mid;
position = "{405, 883}";
},
{
name = top;
position = "{405, 1760}";
}
);
background = {
shapes = (
{
closed = 1;
nodes = (
(581,0,l),
(581,1422,l),
(790,1422,l),
(790,1760,l),
(20,1760,l),
(20,1422,l),
(229,1422,l),
(229,0,l)
);
}
);
};
layerId = "740CAC0B-92FD-4184-A3FF-9D0096FD1E3F";
shapes = (
{
closed = 1;
nodes = (
(581,0,l),
(581,1422,l),
(790,1422,l),
(790,1760,l),
(20,1760,l),
(20,1422,l),
(229,1422,l),
(229,0,l)
);
}
);
width = 810;
}
);
leftKerningGroup = T;
rightKerningGroup = T;
unicode = 84;
},
{
glyphname = Tbar;
layers = (
{
layerId = "740CAC0B-92FD-4184-A3FF-9D0096FD1E3F";
shapes = (
{
closed = 1;
nodes = (
(20,1760,l),
(20,1422,l),
(229,1422,l),
(229,985,l),
(77,985,l),
(77,752,l),
(229,752,l),
(229,0,l),
(581,0,l),
(581,752,l),
(727,752,l),
(727,985,l),
(581,985,l),
(581,1422,l),
(790,1422,l),
(790,1760,l)
);
}
);
width = 810;
}
);
leftKerningGroup = T;
rightKerningGroup = T;
unicode = 358;
},
{
glyphname = Tdiagonalstroke;
layers = (
{
layerId = "740CAC0B-92FD-4184-A3FF-9D0096FD1E3F";
shapes = (
{
closed = 1;
nodes = (
(146,-186,l),
(366,666,l),
(226,666,l),
(6,-186,l)
);
},
{
closed = 1;
nodes = (
(635,1518,l),
(759,2000,l),
(619,2000,l),
(495,1518,l)
);
},
{
alignment = -1;
ref = T;
}
);
width = 810;
}
);
leftKerningGroup = T;
rightKerningGroup = T;
unicode = 574;
},
{
glyphname = Thook;
layers = (
{
layerId = "740CAC0B-92FD-4184-A3FF-9D0096FD1E3F";
shapes = (
{
closed = 1;
nodes = (
(771,0,l),
(771,1422,l),
(980,1422,l),
(980,1760,l),
(416,1760,ls),
(133,1760,o),
(-5,1573,o),
(-5,1312,cs),
(-5,1252,l),
(302,1252,l),
(302,1270,ls),
(302,1376,o),
(338,1422,o),
(418,1422,cs),
(419,1422,l),
(419,0,l)
);
}
);
width = 1000;
}
);
rightKerningGroup = T;
unicode = 428;
},
{
glyphname = Thorn;
layers = (
{
background = {
shapes = (
{
closed = 1;
nodes = (
(408,0,l),
(408,434,l),
(551,434,ls),
(856,434,o),
(918,666,o),
(918,973,cs),
(918,1291,o),
(835,1516,o),
(527,1516,cs),
(407,1516,l),
(407,1760,l),
(62,1760,l),
(62,0,l)
);
},
{
closed = 1;
nodes = (
(408,1226,l),
(447,1226,ls),
(562,1226,o),
(570,1121,o),
(570,979,cs),
(570,833,o),
(572,721,o),
(428,721,cs),
(408,721,l)
);
}
);
};
layerId = "740CAC0B-92FD-4184-A3FF-9D0096FD1E3F";
shapes = (
{
closed = 1;
nodes = (
(408,0,l),
(408,434,l),
(551,434,ls),
(856,434,o),
(918,666,o),
(918,973,cs),
(918,1291,o),
(835,1516,o),
(527,1516,cs),
(407,1516,l),
(407,1760,l),
(62,1760,l),
(62,0,l)
);
},
{
closed = 1;
nodes = (
(408,1226,l),
(447,1226,ls),
(562,1226,o),
(570,1121,o),
(570,967,cs),
(570,770,o),
(537,721,o),
(428,721,cs),
(408,721,l)
);
}
);
width = 947;
}
);
leftKerningGroup = H;
rightKerningGroup = P;
unicode = 222;
},
{
glyphname = Tretroflexhook;
layers = (
{
layerId = "740CAC0B-92FD-4184-A3FF-9D0096FD1E3F";
shapes = (
{
closed = 1;
nodes = (
(651,120,l),
(611,120,o),
(581,138,o),
(581,252,cs),
(581,1422,l),
(790,1422,l),
(790,1760,l),
(20,1760,l),
(20,1422,l),
(229,1422,l),
(229,232,ls),
(229,-50,o),
(406,-196,o),
(651,-196,c)
);
}
);
width = 810;
}
);
leftKerningGroup = T;
rightKerningGroup = T;
unicode = 430;
},
{
glyphname = U;
layers = (
{
anchors = (
{
name = bottom;
position = "{485, 0}";
},
{
name = ogonek;
position = "{507, 0}";
},
{
name = top;
position = "{485, 1760}";
},
{
name = top_case;
position = "{485, 1760}";
}
);
background = {
shapes = (
{
closed = 1;
nodes = (
(778,-16,o),
(913,151,o),
(913,471,cs),
(913,1760,l),
(571,1760,l),
(571,485,ls),
(571,396,o),
(566,308,o),
(485,308,cs),
(405,308,o),
(399,397,o),
(399,485,cs),
(399,1760,l),
(57,1760,l),
(57,471,ls),
(57,151,o),
(192,-16,o),
(485,-16,cs)
);
}
);
};
layerId = "740CAC0B-92FD-4184-A3FF-9D0096FD1E3F";
shapes = (
{
closed = 1;
nodes = (
(778,-16,o),
(913,151,o),
(913,471,cs),
(913,1760,l),
(571,1760,l),
(571,485,ls),
(571,396,o),
(566,308,o),
(485,308,cs),
(405,308,o),
(399,397,o),
(399,485,cs),
(399,1760,l),
(57,1760,l),
(57,471,ls),
(57,151,o),
(192,-16,o),
(485,-16,cs)
);
}
);
width = 970;
}
);
leftKerningGroup = U;
unicode = 85;
},
{
glyphname = U1D453;
layers = (
{
layerId = "740CAC0B-92FD-4184-A3FF-9D0096FD1E3F";
shapes = (
{
closed = 1;
nodes = (
(406,-47,o),
(494,34,o),
(508,195,cs),
(577,986,l),
(668,986,l),
(693,1263,l),
(595,1263,l),
(596,1281,ls),
(599,1332,o),
(609,1362,o),
(658,1362,cs),
(668,1362,o),
(682,1360,o),
(701,1357,c),
(720,1578,l),
(671,1597,o),
(604,1607,o),
(519,1607,cs),
(358,1607,o),
(270,1526,o),
(256,1365,cs),
(247,1263,l),
(162,1263,l),
(137,986,l),
(222,986,l),
(169,279,ls),
(165,228,o),
(154,198,o),
(105,198,cs),
(95,198,o),
(82,200,o),
(63,203,c),
(44,-18,l),
(93,-37,o),
(160,-47,o),
(245,-47,cs)
);
}
);
width = 764;
}
);
},
{
glyphname = Ubar;
layers = (
{
layerId = "740CAC0B-92FD-4184-A3FF-9D0096FD1E3F";
shapes = (
{
closed = 1;
nodes = (
(1050,912,l),
(1050,1132,l),
(-10,1132,l),
(-10,912,l)
);
},
{
alignment = -1;
pos = (35,0);
ref = U;
}
);
width = 1040;
}
);
unicode = 580;
},
{
glyphname = Udieresiscaron;
layers = (
{
layerId = "740CAC0B-92FD-4184-A3FF-9D0096FD1E3F";
shapes = (
{
closed = 1;
nodes = (
(632,2204,l),
(869,2459,l),
(584,2459,l),
(485,2323,l),
(386,2459,l),
(101,2459,l),
(338,2204,l)
);
},
{
alignment = -1;
ref = U;
},
{
alignment = -1;
pos = (485,258);
ref = dieresiscomb.case;
}
);
width = 970;
}
);
leftKerningGroup = U;
unicode = 473;
},
{
glyphname = Uhorn;
layers = (
{
anchors = (
{
name = _topright;
position = "{672, 1499}";
},
{
name = bottom;
position = "{485, 0}";
},
{
name = ogonek;
position = "{507, 0}";
},
{
name = top;
position = "{485, 1760}";
},
{
name = topright;
position = "{672, 1499}";
}
);
layerId = "BCF8656A-3DDD-428C-8733-5A0E588E3E26";
associatedMasterId = "740CAC0B-92FD-4184-A3FF-9D0096FD1E3F";
name = "Regular Jul 24 16, 23:53";
shapes = (
{
closed = 1;
nodes = (
(778,-16,o),
(913,151,o),
(913,471,cs),
(913,1760,l),
(571,1760,l),
(571,485,ls),
(571,396,o),
(566,308,o),
(485,308,cs),
(405,308,o),
(399,397,o),
(399,485,cs),
(399,1760,l),
(57,1760,l),
(57,471,ls),
(57,151,o),
(192,-16,o),
(485,-16,cs)
);
},
{
closed = 1;
nodes = (
(993,1550,o),
(1143,1643,o),
(1143,1893,cs),
(1143,1908,l),
(865,1907,l),
(865,1885,ls),
(865,1799,o),
(825,1760,o),
(750,1760,cs),
(673,1760,l),
(673,1571,l),
(713,1557,o),
(754,1550,o),
(808,1550,c)
);
}
);
width = 970;
},
{
anchors = (
{
name = bottom;
position = "{485, 0}";
},
{
name = ogonek;
position = "{507, 0}";
},
{
name = top_case;
position = "{485, 1760}";
},
{
name = top;
position = "{485, 1760}";
}
);
layerId = "740CAC0B-92FD-4184-A3FF-9D0096FD1E3F";
shapes = (
{
closed = 1;
nodes = (
(778,-16,o),
(913,151,o),
(913,471,cs),
(913,1606,l),
(835,1556,l),
(983,1580,o),
(1093,1679,o),
(1093,1893,cs),
(1093,1908,l),
(815,1908,l),
(815,1885,ls),
(815,1799,o),
(775,1760,o),
(700,1760,cs),
(571,1760,l),
(571,485,ls),
(571,396,o),
(566,308,o),
(485,308,cs),
(405,308,o),
(399,397,o),
(399,485,cs),
(399,1760,l),
(57,1760,l),
(57,471,ls),
(57,151,o),
(192,-16,o),
(485,-16,cs)
);
}
);
width = 1043;
}
);
leftKerningGroup = U;
rightKerningGroup = Uhook;
unicode = 431;
},
{
glyphname = Upsilonafrican;
layers = (
{
layerId = "740CAC0B-92FD-4184-A3FF-9D0096FD1E3F";
shapes = (
{
closed = 1;
nodes = (
(774,-16,o),
(920,129,o),
(920,402,cs),
(920,958,ls),
(920,1169,o),
(888,1323,o),
(823,1422,c),
(945,1422,l),
(945,1760,l),
(529,1760,l),
(529,1421,l),
(573,1386,o),
(581,1347,o),
(581,1087,cs),
(581,380,ls),
(581,310,o),
(565,256,o),
(496,256,cs),
(427,256,o),
(411,310,o),
(411,380,cs),
(411,1087,ls),
(411,1347,o),
(419,1386,o),
(463,1421,c),
(463,1760,l),
(47,1760,l),
(47,1422,l),
(169,1422,l),
(104,1323,o),
(72,1169,o),
(72,958,cs),
(72,402,ls),
(72,129,o),
(218,-16,o),
(496,-16,cs)
);
}
);
width = 992;
}
);
unicode = 433;
},
{
glyphname = V;
layers = (
{
anchors = (
{
name = bottom;
position = "{481, 0}";
},
{
name = top;
position = "{481, 1760}";
}
);
background = {
shapes = (
{
closed = 1;
nodes = (
(720,0,l),
(937,1761,l),
(602,1761,l),
(487,563,l),
(358,1761,l),
(23,1761,l),
(240,0,l)
);
}
);
};
layerId = "740CAC0B-92FD-4184-A3FF-9D0096FD1E3F";
shapes = (
{
closed = 1;
nodes = (
(720,0,l),
(937,1761,l),
(602,1761,l),
(487,563,l),
(358,1761,l),
(23,1761,l),
(240,0,l)
);
}
);
width = 961;
}
);
leftKerningGroup = V;
rightKerningGroup = V;
unicode = 86;
},
{
glyphname = Vhook;
layers = (
{
background = {
shapes = (
{
closed = 1;
nodes = (
(718,0,l),
(935,1761,l),
(600,1761,l),
(485,563,l),
(356,1761,l),
(21,1761,l),
(238,0,l)
);
}
);
};
layerId = "740CAC0B-92FD-4184-A3FF-9D0096FD1E3F";
shapes = (
{
closed = 1;
nodes = (
(717,0,l),
(879,1306,ls),
(884,1347,o),
(887,1386,o),
(887,1421,cs),
(887,1664,o),
(762,1762,o),
(501,1762,c),
(501,1461,l),
(546,1461,o),
(565,1440,o),
(565,1390,cs),
(565,1383,o),
(565,1375,o),
(564,1367,cs),
(485,560,l),
(357,1749,l),
(23,1749,l),
(239,0,l)
);
}
);
width = 911;
}
);
leftKerningGroup = V;
unicode = 434;
},
{
glyphname = Vturned;
layers = (
{
layerId = "740CAC0B-92FD-4184-A3FF-9D0096FD1E3F";
shapes = (
{
closed = 1;
nodes = (
(241,1760,l),
(24,-1,l),
(359,-1,l),
(474,1197,l),
(603,-1,l),
(938,-1,l),
(721,1760,l)
);
}
);
width = 961;
}
);
leftKerningGroup = A;
rightKerningGroup = A;
unicode = 581;
},
{
glyphname = W;
layers = (
{
anchors = (
{
name = bottom;
position = "{729, 0}";
},
{
name = top;
position = "{743, 1760}";
}
);
background = {
shapes = (
{
closed = 1;
nodes = (
(645,0,l),
(729,847,l),
(817,0,l),
(1239,0,l),
(1431,1760,l),
(1083,1760,l),
(989,649,l),
(895,1760,l),
(567,1760,l),
(468,649,l),
(371,1760,l),
(27,1760,l),
(216,0,l)
);
}
);
};
layerId = "740CAC0B-92FD-4184-A3FF-9D0096FD1E3F";
shapes = (
{
closed = 1;
nodes = (
(645,0,l),
(729,847,l),
(817,0,l),
(1239,0,l),
(1431,1760,l),
(1083,1760,l),
(989,649,l),
(895,1760,l),
(567,1760,l),
(468,649,l),
(371,1760,l),
(27,1760,l),
(216,0,l)
);
}
);
width = 1458;
}
);
leftKerningGroup = W;
rightKerningGroup = W;
unicode = 87;
},
{
glyphname = Whook;
layers = (
{
background = {
shapes = (
{
closed = 1;
nodes = (
(645,0,l),
(729,847,l),
(817,0,l),
(1239,0,l),
(1431,1760,l),
(1083,1760,l),
(989,649,l),
(895,1760,l),
(567,1760,l),
(468,649,l),
(371,1760,l),
(27,1760,l),
(216,0,l)
);
}
);
};
layerId = "740CAC0B-92FD-4184-A3FF-9D0096FD1E3F";
shapes = (
{
closed = 1;
nodes = (
(646,0,l),
(730,846,l),
(819,0,l),
(1242,0,l),
(1385,1315,ls),
(1397,1423,o),
(1412,1471,o),
(1505,1471,c),
(1505,1775,l),
(1203,1775,o),
(1077,1666,o),
(1056,1417,cs),
(992,647,l),
(897,1760,l),
(568,1760,l),
(469,647,l),
(371,1760,l),
(26,1760,l),
(215,0,l)
);
}
);
width = 1495;
}
);
leftKerningGroup = W;
rightKerningGroup = Whook;
unicode = 11378;
},
{
glyphname = X;
layers = (
{
anchors = (
{
name = bottom;
position = "{496, 0}";
},
{
name = top;
position = "{496, 1760}";
}
);
background = {
shapes = (
{
closed = 1;
nodes = (
(384,0,l),
(498,688,l),
(609,0,l),
(965,0,l),
(777,933,l),
(927,1761,l),
(582,1761,l),
(501,1156,l),
(410,1761,l),
(66,1761,l),
(216,933,l),
(27,0,l)
);
}
);
};
layerId = "740CAC0B-92FD-4184-A3FF-9D0096FD1E3F";
shapes = (
{
closed = 1;
nodes = (
(384,0,l),
(498,688,l),
(609,0,l),
(965,0,l),
(777,933,l),
(927,1761,l),
(582,1761,l),
(501,1156,l),
(410,1761,l),
(66,1761,l),
(216,933,l),
(27,0,l)
);
}
);
width = 991;
}
);
leftKerningGroup = X;
rightKerningGroup = X;
unicode = 88;
},
{
glyphname = Y;
layers = (
{
anchors = (
{
name = bottom;
position = "{457, 0}";
},
{
name = center;
position = "{456, 659}";
},
{
name = top;
position = "{457, 1760}";
}
);
background = {
shapes = (
{
closed = 1;
nodes = (
(623,0,l),
(623,579,l),
(903,1760,l),
(555,1760,l),
(457,1164,l),
(359,1760,l),
(10,1760,l),
(291,579,l),
(291,0,l)
);
}
);
};
layerId = "740CAC0B-92FD-4184-A3FF-9D0096FD1E3F";
shapes = (
{
closed = 1;
nodes = (
(623,0,l),
(623,579,l),
(903,1760,l),
(555,1760,l),
(457,1164,l),
(359,1760,l),
(10,1760,l),
(291,579,l),
(291,0,l)
);
}
);
width = 914;
}
);
leftKerningGroup = Y;
rightKerningGroup = Y;
unicode = 89;
},
{
glyphname = Yhook;
layers = (
{
background = {
shapes = (
{
closed = 1;
nodes = (
(623,0,l),
(623,579,l),
(903,1760,l),
(555,1760,l),
(457,1164,l),
(359,1760,l),
(10,1760,l),
(291,579,l),
(291,0,l)
);
}
);
};
layerId = "740CAC0B-92FD-4184-A3FF-9D0096FD1E3F";
shapes = (
{
closed = 1;
nodes = (
(623,0,l),
(623,589,l),
(798,1319,ls),
(824,1426,o),
(852,1473,o),
(944,1473,c),
(944,1774,l),
(645,1774,o),
(540,1666,o),
(499,1420,cs),
(457,1165,l),
(359,1760,l),
(10,1760,l),
(289,589,l),
(289,0,l)
);
}
);
width = 934;
}
);
leftKerningGroup = Y;
rightKerningGroup = Yhook;
unicode = 435;
},
{
glyphname = Ystroke;
layers = (
{
layerId = "740CAC0B-92FD-4184-A3FF-9D0096FD1E3F";
shapes = (
{
closed = 1;
nodes = (
(418,1086,l),
(373,1306,l),
(16,1306,l),
(16,1086,l)
);
},
{
closed = 1;
nodes = (
(897,1086,l),
(897,1306,l),
(570,1306,l),
(514,1086,l)
);
},
{
alignment = -1;
ref = Y;
}
);
width = 913;
}
);
unicode = 590;
},
{
glyphname = Z;
layers = (
{
anchors = (
{
name = bottom;
position = "{420, 0}";
},
{
name = top;
position = "{439, 1760}";
}
);
background = {
shapes = (
{
closed = 1;
nodes = (
(789,0,l),
(789,324,l),
(396,324,l),
(806,1452,l),
(806,1760,l),
(71,1760,l),
(71,1436,l),
(435,1436,l),
(32,320,l),
(32,0,l)
);
}
);
};
layerId = "740CAC0B-92FD-4184-A3FF-9D0096FD1E3F";
shapes = (
{
closed = 1;
nodes = (
(789,0,l),
(789,324,l),
(396,324,l),
(806,1452,l),
(806,1760,l),
(71,1760,l),
(71,1436,l),
(435,1436,l),
(32,320,l),
(32,0,l)
);
}
);
width = 840;
}
);
leftKerningGroup = Z;
rightKerningGroup = Z;
unicode = 90;
},
{
glyphname = Zstroke;
layers = (
{
layerId = "740CAC0B-92FD-4184-A3FF-9D0096FD1E3F";
shapes = (
{
closed = 1;
nodes = (
(755,782,l),
(755,1014,l),
(95,1014,l),
(95,782,l)
);
},
{
alignment = -1;
ref = Z;
}
);
width = 840;
}
);
leftKerningGroup = Z;
rightKerningGroup = Z;
unicode = 437;
},
{
glyphname = a;
layers = (
{
anchors = (
{
name = bottom;
position = "{494, 0}";
},
{
name = ogonek;
position = "{741, 0}";
},
{
name = top;
position = "{503, 1516}";
},
{
name = top_case;
position = "{503, 1500}";
}
);
background = {
shapes = (
{
closed = 1;
nodes = (
(448,-16,o),
(533,53,o),
(568,178,c),
(568,0,l),
(924,0,l),
(924,1143,ls),
(924,1387,o),
(743,1516,o),
(503,1516,cs),
(197,1516,o),
(63,1403,o),
(63,1105,cs),
(63,1084,o),
(63,1067,o),
(64,1056,c),
(412,1056,l),
(412,1146,ls),
(412,1201,o),
(433,1243,o),
(498,1239,cs),
(543,1236,o),
(563,1213,o),
(563,1123,cs),
(563,1102,o),
(563,998,o),
(563,972,cs),
(563,969,l),
(227,854,o),
(41,839,o),
(41,430,cs),
(41,174,o),
(95,-16,o),
(345,-16,cs)
);
},
{
closed = 1;
nodes = (
(433,262,o),
(406,306,o),
(406,395,cs),
(406,588,ls),
(406,705,o),
(463,757,o),
(562,797,c),
(562,379,ls),
(562,322,o),
(544,262,o),
(486,262,cs)
);
}
);
};
layerId = "740CAC0B-92FD-4184-A3FF-9D0096FD1E3F";
shapes = (
{
closed = 1;
nodes = (
(448,-16,o),
(533,53,o),
(568,178,c),
(568,0,l),
(924,0,l),
(924,1143,ls),
(924,1387,o),
(743,1516,o),
(503,1516,cs),
(197,1516,o),
(63,1403,o),
(63,1105,cs),
(63,1084,o),
(63,1067,o),
(64,1056,c),
(412,1056,l),
(412,1146,ls),
(412,1210,o),
(438,1244,o),
(484,1244,cs),
(533,1244,o),
(563,1206,o),
(563,1123,cs),
(563,1102,o),
(563,998,o),
(563,972,cs),
(563,969,l),
(341,893,ls),
(111,814,o),
(41,703,o),
(41,430,cs),
(41,174,o),
(95,-16,o),
(345,-16,cs)
);
},
{
closed = 1;
nodes = (
(433,262,o),
(406,306,o),
(406,395,cs),
(406,588,ls),
(406,705,o),
(463,757,o),
(562,797,c),
(562,379,ls),
(562,322,o),
(544,262,o),
(486,262,cs)
);
}
);
width = 990;
}
);
leftKerningGroup = a;
rightKerningGroup = a;
unicode = 97;
},
{
glyphname = a.sc;
layers = (
{
anchors = (
{
name = bottom;
position = "{497, 0}";
},
{
name = ogonek;
position = "{790, 0}";
},
{
name = top_case;
position = "{497, 1590}";
}
);
layerId = "740CAC0B-92FD-4184-A3FF-9D0096FD1E3F";
shapes = (
{
closed = 1;
nodes = (
(372,0,l),
(395,320,l),
(418,529,l),
(486,1280,l),
(502,1280,l),
(579,529,l),
(605,320,l),
(631,0,l),
(964,0,l),
(797,1560,l),
(200,1560,l),
(30,0,l)
);
},
{
closed = 1;
nodes = (
(722,284,l),
(695,565,l),
(303,565,l),
(278,284,l)
);
}
);
width = 994;
}
);
leftKerningGroup = a.sc;
rightKerningGroup = a.sc;
},
{
glyphname = acute;
layers = (
{
anchors = (
{
name = _top;
position = "{329, 1500}";
}
);
background = {
shapes = (
{
closed = 1;
nodes = (
(566,1647,l),
(566,1994,l),
(91,1776,l),
(91,1553,l)
);
}
);
};
layerId = "740CAC0B-92FD-4184-A3FF-9D0096FD1E3F";
shapes = (
{
closed = 1;
nodes = (
(566,1647,l),
(566,1994,l),
(91,1776,l),
(91,1553,l)
);
}
);
width = 650;
}
);
unicode = 180;
},
{
glyphname = acute.sc;
layers = (
{
anchors = (
{
name = _top;
position = "{-1, 1500}";
},
{
name = top_case;
position = "{-1, 1963}";
}
);
layerId = "740CAC0B-92FD-4184-A3FF-9D0096FD1E3F";
shapes = (
{
closed = 1;
nodes = (
(237,1647,l),
(237,1994,l),
(-238,1776,l),
(-238,1553,l)
);
}
);
width = 0;
}
);
},
{
glyphname = acutecomb;
layers = (
{
anchors = (
{
name = _top;
position = "{-1, 1500}";
},
{
name = top_case;
position = "{-1, 1963}";
}
);
layerId = "740CAC0B-92FD-4184-A3FF-9D0096FD1E3F";
shapes = (
{
closed = 1;
nodes = (
(237,1647,l),
(237,1994,l),
(-238,1776,l),
(-238,1553,l)
);
}
);
width = 0;
}
);
unicode = 769;
},
{
glyphname = acutecomb.case;
layers = (
{
anchors = (
{
name = _top_case;
position = "{-1, 1500}";
},
{
name = top_case;
position = "{-1, 1873}";
}
);
background = {
shapes = (
{
closed = 1;
nodes = (
(237,1611,l),
(237,1898,l),
(-238,1730,l),
(-238,1537,l)
);
}
);
};
layerId = "740CAC0B-92FD-4184-A3FF-9D0096FD1E3F";
shapes = (
{
closed = 1;
nodes = (
(237,1611,l),
(237,1898,l),
(-238,1730,l),
(-238,1537,l)
);
}
);
width = 0;
}
);
},
{
glyphname = acutecomb_macroncomb;
layers = (
{
anchors = (
{
name = _top;
position = "{-1, 1500}";
},
{
name = top;
position = "{-1, 2175}";
}
);
layerId = "740CAC0B-92FD-4184-A3FF-9D0096FD1E3F";
shapes = (
{
closed = 1;
nodes = (
(237,1647,l),
(237,1994,l),
(-238,1776,l),
(-238,1553,l)
);
},
{
closed = 1;
nodes = (
(324,2022,l),
(324,2175,l),
(-326,2175,l),
(-326,2022,l)
);
}
);
width = 0;
}
);
},
{
glyphname = acutemacroncomb;
layers = (
{
anchors = (
{
name = _top;
position = "{-1, 1500}";
},
{
name = top;
position = "{-1, 2175}";
}
);
layerId = "740CAC0B-92FD-4184-A3FF-9D0096FD1E3F";
shapes = (
{
closed = 1;
nodes = (
(237,1647,l),
(237,1994,l),
(-238,1776,l),
(-238,1553,l)
);
},
{
closed = 1;
nodes = (
(324,2022,l),
(324,2175,l),
(-326,2175,l),
(-326,2022,l)
);
}
);
width = 0;
}
);
unicode = 7623;
},
{
glyphname = ae;
layers = (
{
anchors = (
{
name = top;
position = "{748, 1500}";
}
);
background = {
shapes = (
{
closed = 1;
nodes = (
(598,-18,o),
(702,51,o),
(748,148,c),
(789,53,o),
(896,-18,o),
(1036,-18,cs),
(1358,-18,o),
(1446,172,o),
(1446,494,cs),
(1446,579,l),
(1090,579,l),
(1091,574,o),
(1092,542,o),
(1092,483,cs),
(1092,394,o),
(1094,260,o),
(1008,260,cs),
(950,260,o),
(921,338,o),
(921,494,cs),
(921,704,l),
(1442,704,l),
(1445,755,o),
(1446,848,o),
(1446,983,cs),
(1446,1092,ls),
(1446,1376,o),
(1302,1518,o),
(1014,1518,cs),
(889,1518,o),
(800,1477,o),
(747,1396,c),
(692,1477,o),
(610,1518,o),
(501,1518,cs),
(195,1518,o),
(60,1403,o),
(60,1105,cs),
(60,1084,o),
(60,1067,o),
(61,1056,c),
(409,1056,l),
(409,1157,ls),
(409,1212,o),
(434,1239,o),
(483,1239,cs),
(578,1239,o),
(560,1079,o),
(560,983,cs),
(560,980,l),
(224,865,o),
(38,839,o),
(38,430,cs),
(38,154,o),
(182,-18,o),
(449,-18,cs)
);
},
{
closed = 1;
nodes = (
(430,262,o),
(403,306,o),
(403,395,cs),
(403,570,ls),
(403,687,o),
(460,734,o),
(559,774,c),
(559,379,ls),
(559,322,o),
(541,262,o),
(483,262,cs)
);
},
{
closed = 1;
nodes = (
(921,1052,ls),
(921,1167,o),
(921,1249,o),
(1010,1249,cs),
(1063,1249,o),
(1090,1195,o),
(1090,1087,cs),
(1090,931,l),
(921,931,l)
);
}
);
};
layerId = "740CAC0B-92FD-4184-A3FF-9D0096FD1E3F";
shapes = (
{
closed = 1;
nodes = (
(598,-18,o),
(702,51,o),
(748,148,c),
(789,53,o),
(896,-18,o),
(1036,-18,cs),
(1358,-18,o),
(1446,172,o),
(1446,494,cs),
(1446,579,l),
(1090,579,l),
(1090,453,ls),
(1090,305,o),
(1071,260,o),
(1012,260,cs),
(946,260,o),
(921,328,o),
(921,494,cs),
(921,704,l),
(1442,704,l),
(1445,755,o),
(1446,848,o),
(1446,983,cs),
(1446,1092,ls),
(1446,1376,o),
(1302,1518,o),
(1044,1518,cs),
(889,1518,o),
(800,1477,o),
(747,1396,c),
(692,1477,o),
(610,1518,o),
(441,1518,cs),
(195,1518,o),
(60,1403,o),
(60,1105,cs),
(60,1084,o),
(60,1067,o),
(61,1056,c),
(409,1056,l),
(409,1157,ls),
(409,1212,o),
(434,1239,o),
(483,1239,cs),
(538,1239,o),
(560,1192,o),
(560,1083,cs),
(560,980,l),
(380,919,ls),
(157,843,o),
(38,759,o),
(38,430,cs),
(38,154,o),
(182,-18,o),
(449,-18,cs)
);
},
{
closed = 1;
nodes = (
(430,262,o),
(403,306,o),
(403,395,cs),
(403,570,ls),
(403,687,o),
(460,734,o),
(559,774,c),
(559,379,ls),
(559,322,o),
(541,262,o),
(483,262,cs)
);
},
{
closed = 1;
nodes = (
(921,1052,ls),
(921,1167,o),
(921,1249,o),
(1010,1249,cs),
(1063,1249,o),
(1090,1195,o),
(1090,1087,cs),
(1090,931,l),
(921,931,l)
);
}
);
width = 1497;
}
);
leftKerningGroup = a;
rightKerningGroup = e;
unicode = 230;
},
{
glyphname = ae.sc;
layers = (
{
anchors = (
{
name = bottom;
position = "{656, 0}";
},
{
name = top_case;
position = "{726, 1590}";
}
);
background = {
shapes = (
{
closed = 1;
nodes = (
(337,0,l),
(416,479,l),
(622,479,l),
(623,0,l),
(1272,0,l),
(1272,311,l),
(963,311,l),
(963,750,l),
(1235,750,l),
(1235,1049,l),
(963,1049,l),
(963,1451,l),
(1249,1451,l),
(1249,1760,l),
(277,1760,l),
(-44,0,l)
);
},
{
closed = 1;
nodes = (
(561,1461,l),
(618,1461,l),
(618,769,l),
(462,769,l)
);
}
);
};
guides = (
{
angle = 258.724;
position = "{117, 805}";
}
);
layerId = "740CAC0B-92FD-4184-A3FF-9D0096FD1E3F";
shapes = (
{
closed = 1;
nodes = (
(337,0,l),
(416,404,l),
(623,404,l),
(623,0,l),
(1272,0,l),
(1272,312,l),
(963,312,l),
(963,655,l),
(1235,655,l),
(1235,954,l),
(963,954,l),
(963,1251,l),
(1249,1251,l),
(1249,1560,l),
(277,1560,l),
(-44,0,l)
);
},
{
closed = 1;
nodes = (
(571,1261,l),
(623,1261,l),
(623,694,l),
(462,694,l)
);
}
);
width = 1311;
}
);
leftKerningGroup = a.sc;
rightKerningGroup = e.sc;
},
{
glyphname = "alpha-latin";
layers = (
{
background = {
shapes = (
{
closed = 0;
nodes = (
(948,0,l),
(948,1500,l),
(590,1500,l),
(590,1341,l),
(550,1449,o),
(492,1516,o),
(367,1516,cs),
(90,1516,o),
(60,1299,o),
(60,1023,cs),
(60,477,ls),
(60,201,o),
(90,-16,o),
(367,-16,cs),
(492,-16,o),
(550,51,o),
(590,159,c)
);
},
{
closed = 1;
nodes = (
(418,1048,ls),
(418,1173,o),
(447,1236,o),
(504,1236,cs),
(602,1236,o),
(590,1078,o),
(590,980,cs),
(590,520,ls),
(590,422,o),
(602,264,o),
(504,264,cs),
(447,264,o),
(418,327,o),
(418,452,cs)
);
},
{
closed = 0;
nodes = (
(539,412,l),
(539,130,o),
(714,-16,o),
(1028,-16,c),
(1028,300,l),
(978,300,o),
(948,318,o),
(948,432,c)
);
}
);
};
layerId = "740CAC0B-92FD-4184-A3FF-9D0096FD1E3F";
shapes = (
{
closed = 1;
nodes = (
(537,-16,o),
(602,93,o),
(642,201,c),
(587,192,l),
(659,54,o),
(810,-16,o),
(1028,-16,c),
(1028,300,l),
(978,300,o),
(948,318,o),
(948,432,cs),
(948,1500,l),
(590,1500,l),
(590,1341,l),
(550,1449,o),
(492,1516,o),
(367,1516,cs),
(90,1516,o),
(60,1299,o),
(60,1023,cs),
(60,477,ls),
(60,201,o),
(90,-16,o),
(367,-16,cs)
);
},
{
closed = 1;
nodes = (
(447,264,o),
(418,327,o),
(418,452,cs),
(418,1058,ls),
(418,1183,o),
(447,1236,o),
(504,1236,cs),
(562,1236,o),
(590,1183,o),
(590,1060,cs),
(590,452,ls),
(590,327,o),
(567,264,o),
(504,264,cs)
);
}
);
width = 1028;
}
);
leftKerningGroup = o;
unicode = 593;
},
{
glyphname = ampersand;
layers = (
{
background = {
shapes = (
{
closed = 1;
nodes = (
(546,348,l),
(539,301,o),
(505,235,o),
(442,235,cs),
(371,235,o),
(371,341,o),
(371,413,cs),
(371,423,ls),
(371,488,o),
(385,572,o),
(409,606,c),
(430,639,l),
(316,930,l),
(148,811,o),
(65,668,o),
(65,386,cs),
(65,158,o),
(167,-21,o),
(386,-21,cs),
(502,-21,o),
(598,38,o),
(648,108,c)
);
},
{
closed = 1;
nodes = (
(579,1089,ls),
(544,1173,o),
(527,1234,o),
(527,1273,cs),
(527,1307,o),
(547,1336,o),
(581,1336,cs),
(620,1336,o),
(640,1315,o),
(640,1273,cs),
(640,1219,o),
(612,1155,o),
(587,1128,cs),
(559,1098,l),
(645,862,l),
(813,991,o),
(896,1128,o),
(896,1273,cs),
(896,1472,o),
(747,1582,o),
(551,1582,cs),
(352,1582,o),
(203,1464,o),
(203,1262,cs),
(203,1138,o),
(269,1002,o),
(307,909,cs),
(677,0,l),
(1017,0,l)
);
},
{
closed = 1;
nodes = (
(831,413,l),
(885,569,o),
(954,679,o),
(1035,744,c),
(896,961,l),
(817,903,o),
(757,818,o),
(718,709,c)
);
}
);
};
layerId = "740CAC0B-92FD-4184-A3FF-9D0096FD1E3F";
shapes = (
{
closed = 1;
nodes = (
(1017,0,l),
(560,1147,ls),
(474,1363,o),
(461,1422,o),
(461,1461,cs),
(461,1495,o),
(478,1530,o),
(517,1530,cs),
(557,1530,o),
(584,1493,o),
(584,1391,cs),
(584,1287,o),
(558,1232,o),
(532,1206,cs),
(503,1176,l),
(589,940,l),
(757,1069,o),
(840,1186,o),
(840,1391,cs),
(840,1650,o),
(681,1776,o),
(485,1776,cs),
(286,1776,o),
(147,1632,o),
(147,1430,cs),
(147,1296,o),
(196,1175,o),
(252,1037,cs),
(677,0,l)
);
},
{
closed = 1;
nodes = (
(502,-21,o),
(598,38,o),
(648,108,c),
(546,348,l),
(539,301,o),
(505,235,o),
(442,235,cs),
(371,235,o),
(341,291,o),
(341,413,cs),
(341,493,ls),
(341,671,o),
(361,746,o),
(420,799,c),
(306,1050,l),
(148,941,o),
(35,808,o),
(35,456,cs),
(35,158,o),
(167,-21,o),
(386,-21,cs)
);
},
{
closed = 1;
nodes = (
(831,413,l),
(885,569,o),
(954,679,o),
(1035,744,c),
(896,961,l),
(817,903,o),
(757,818,o),
(718,709,c)
);
}
);
width = 1065;
}
);
unicode = 38;
},
{
glyphname = ampersand.sc;
layers = (
{
layerId = "740CAC0B-92FD-4184-A3FF-9D0096FD1E3F";
shapes = (
{
closed = 1;
nodes = (
(466,-21,o),
(558,32,o),
(610,97,c),
(647,0,l),
(987,0,l),
(808,432,l),
(861,578,o),
(927,682,o),
(1005,744,c),
(866,961,l),
(791,906,o),
(733,827,o),
(694,726,c),
(631,875,l),
(788,1000,o),
(866,1133,o),
(866,1273,cs),
(866,1472,o),
(717,1582,o),
(521,1582,cs),
(322,1582,o),
(173,1464,o),
(173,1262,cs),
(173,1143,o),
(228,1010,o),
(273,921,c),
(114,804,o),
(35,661,o),
(35,386,cs),
(35,158,o),
(137,-21,o),
(356,-21,cs)
);
},
{
closed = 1;
nodes = (
(341,235,o),
(341,341,o),
(341,413,cs),
(341,423,ls),
(341,511,o),
(357,575,o),
(391,625,c),
(513,334,l),
(502,289,o),
(469,235,o),
(412,235,cs)
);
},
{
closed = 1;
nodes = (
(540,1110,l),
(511,1183,o),
(497,1237,o),
(497,1273,cs),
(497,1307,o),
(517,1336,o),
(551,1336,cs),
(590,1336,o),
(610,1315,o),
(610,1273,cs),
(610,1219,o),
(582,1155,o),
(557,1128,cs)
);
}
);
width = 1035;
}
);
},
{
glyphname = apostrophemod;
layers = (
{
background = {
shapes = (
{
closed = 1;
nodes = (
(394,966,l),
(496,1211,l),
(496,1500,l),
(122,1500,l),
(122,1202,l),
(249,1202,l),
(183,966,l)
);
}
);
};
layerId = "740CAC0B-92FD-4184-A3FF-9D0096FD1E3F";
shapes = (
{
closed = 1;
nodes = (
(394,966,l),
(496,1211,l),
(496,1500,l),
(122,1500,l),
(122,1202,l),
(249,1202,l),
(183,966,l)
);
}
);
width = 600;
}
);
unicode = 700;
},
{
glyphname = approxequal;
layers = (
{
background = {
shapes = (
{
closed = 1;
nodes = (
(897,810,o),
(950,948,o),
(1004,1095,c),
(822,1155,l),
(793,1094,o),
(760,1073,o),
(720,1073,cs),
(637,1073,o),
(526,1164,o),
(320,1164,cs),
(164,1164,o),
(104,1053,o),
(50,921,c),
(212,835,l),
(241,891,o),
(274,910,o),
(313,910,cs),
(401,910,o),
(569,810,o),
(732,810,cs)
);
},
{
closed = 1;
nodes = (
(897,340,o),
(950,478,o),
(1004,625,c),
(822,685,l),
(793,624,o),
(760,603,o),
(720,603,cs),
(637,603,o),
(526,694,o),
(320,694,cs),
(164,694,o),
(104,583,o),
(50,451,c),
(212,365,l),
(241,421,o),
(274,440,o),
(313,440,cs),
(401,440,o),
(569,340,o),
(732,340,cs)
);
}
);
};
layerId = "740CAC0B-92FD-4184-A3FF-9D0096FD1E3F";
shapes = (
{
closed = 1;
nodes = (
(897,810,o),
(950,948,o),
(1004,1095,c),
(822,1155,l),
(793,1094,o),
(760,1073,o),
(720,1073,cs),
(688,1073,o),
(653,1083,o),
(574,1113,cs),
(484,1147,o),
(426,1164,o),
(320,1164,cs),
(164,1164,o),
(104,1053,o),
(50,921,c),
(212,835,l),
(241,891,o),
(274,910,o),
(313,910,cs),
(350,910,o),
(402,894,o),
(483,862,cs),
(565,830,o),
(638,810,o),
(732,810,cs)
);
},
{
closed = 1;
nodes = (
(897,340,o),
(950,478,o),
(1004,625,c),
(822,685,l),
(793,624,o),
(760,603,o),
(720,603,cs),
(688,603,o),
(653,613,o),
(574,643,cs),
(484,677,o),
(426,694,o),
(320,694,cs),
(164,694,o),
(104,583,o),
(50,451,c),
(212,365,l),
(241,421,o),
(274,440,o),
(313,440,cs),
(350,440,o),
(402,424,o),
(483,392,cs),
(565,360,o),
(638,340,o),
(732,340,cs)
);
}
);
width = 1009;
}
);
unicode = 8776;
},
{
glyphname = asciicircum;
layers = (
{
background = {
shapes = (
{
closed = 1;
nodes = (
(399,432,l),
(485,1027,l),
(571,432,l),
(930,432,l),
(689,1355,l),
(281,1355,l),
(40,432,l)
);
}
);
};
layerId = "740CAC0B-92FD-4184-A3FF-9D0096FD1E3F";
shapes = (
{
closed = 1;
nodes = (
(399,432,l),
(485,1027,l),
(571,432,l),
(930,432,l),
(689,1355,l),
(281,1355,l),
(40,432,l)
);
}
);
width = 970;
}
);
unicode = 94;
},
{
glyphname = asciitilde;
layers = (
{
background = {
shapes = (
{
closed = 1;
nodes = (
(897,810,o),
(950,948,o),
(1004,1095,c),
(822,1155,l),
(793,1094,o),
(760,1073,o),
(720,1073,cs),
(637,1073,o),
(526,1164,o),
(320,1164,cs),
(164,1164,o),
(104,1053,o),
(50,921,c),
(212,835,l),
(241,891,o),
(274,910,o),
(313,910,cs),
(401,910,o),
(569,810,o),
(732,810,cs)
);
}
);
};
layerId = "740CAC0B-92FD-4184-A3FF-9D0096FD1E3F";
shapes = (
{
closed = 1;
nodes = (
(897,810,o),
(950,948,o),
(1004,1095,c),
(822,1155,l),
(793,1094,o),
(760,1073,o),
(720,1073,cs),
(688,1073,o),
(653,1083,o),
(574,1113,cs),
(484,1147,o),
(426,1164,o),
(320,1164,cs),
(164,1164,o),
(104,1053,o),
(50,921,c),
(212,835,l),
(241,891,o),
(274,910,o),
(313,910,cs),
(350,910,o),
(402,894,o),
(483,862,cs),
(565,830,o),
(638,810,o),
(732,810,cs)
);
}
);
width = 1009;
}
);
unicode = 126;
},
{
glyphname = asterisk;
layers = (
{
background = {
shapes = (
{
closed = 1;
nodes = (
(579,741,l),
(543,1036,l),
(774,854,l),
(890,1054,l),
(615,1171,l),
(890,1280,l),
(774,1480,l),
(544,1307,l),
(579,1593,l),
(347,1593,l),
(390,1301,l),
(152,1480,l),
(36,1280,l),
(310,1171,l),
(36,1054,l),
(152,854,l),
(391,1043,l),
(347,741,l)
);
}
);
};
layerId = "740CAC0B-92FD-4184-A3FF-9D0096FD1E3F";
shapes = (
{
closed = 1;
nodes = (
(579,741,l),
(543,1036,l),
(774,854,l),
(890,1054,l),
(615,1171,l),
(890,1280,l),
(774,1480,l),
(544,1307,l),
(579,1593,l),
(347,1593,l),
(390,1301,l),
(152,1480,l),
(36,1280,l),
(310,1171,l),
(36,1054,l),
(152,854,l),
(391,1043,l),
(347,741,l)
);
}
);
width = 926;
}
);
unicode = 42;
},
{
glyphname = astroke;
layers = (
{
guides = (
{
angle = 75.452;
position = "{320, 117}";
}
);
layerId = "740CAC0B-92FD-4184-A3FF-9D0096FD1E3F";
shapes = (
{
closed = 1;
nodes = (
(241,-186,l),
(398,419,l),
(258,419,l),
(101,-186,l)
);
},
{
closed = 1;
nodes = (
(649,1376,l),
(746,1760,l),
(606,1760,l),
(509,1376,l)
);
},
{
alignment = -1;
ref = a;
}
);
width = 990;
}
);
leftKerningGroup = a;
rightKerningGroup = a;
unicode = 11365;
},
{
glyphname = at;
layers = (
{
background = {
shapes = (
{
closed = 1;
nodes = (
(1007,-158,o),
(1111,-148,o),
(1231,-127,c),
(1200,99,l),
(1094,85,o),
(1005,78,o),
(934,78,cs),
(580,78,o),
(350,298,o),
(350,734,cs),
(350,1282,o),
(561,1536,o),
(960,1536,cs),
(1298,1536,o),
(1466,1264,o),
(1466,907,cs),
(1466,761,o),
(1464,505,o),
(1374,505,cs),
(1325,505,o),
(1267,582,o),
(1267,650,cs),
(1267,1290,l),
(1041,1290,l),
(1002,1159,l),
(952,1243,o),
(894,1299,o),
(798,1299,cs),
(579,1299,o),
(510,1048,o),
(510,744,cs),
(510,502,o),
(602,285,o),
(780,285,cs),
(906,285,o),
(978,350,o),
(1007,491,c),
(1053,367,o),
(1133,277,o),
(1329,277,cs),
(1602,277,o),
(1712,493,o),
(1712,882,cs),
(1712,1440,o),
(1444,1776,o),
(978,1776,cs),
(450,1776,o),
(64,1480,o),
(64,717,cs),
(64,86,o),
(448,-158,o),
(919,-158,cs)
);
},
{
closed = 1;
nodes = (
(838,532,o),
(820,638,o),
(820,733,cs),
(820,924,o),
(824,1074,o),
(982,1074,c),
(982,682,ls),
(982,609,o),
(964,532,o),
(903,532,cs)
);
}
);
};
layerId = "740CAC0B-92FD-4184-A3FF-9D0096FD1E3F";
shapes = (
{
closed = 1;
nodes = (
(1007,-158,o),
(1111,-148,o),
(1231,-127,c),
(1200,99,l),
(1094,85,o),
(1005,78,o),
(934,78,cs),
(580,78,o),
(350,311,o),
(350,774,cs),
(350,1265,o),
(557,1536,o),
(950,1536,cs),
(1335,1536,o),
(1466,1286,o),
(1466,877,cs),
(1466,634,o),
(1444,505,o),
(1356,505,cs),
(1301,505,o),
(1267,546,o),
(1267,650,cs),
(1267,1290,l),
(1041,1290,l),
(1002,1159,l),
(952,1243,o),
(894,1299,o),
(798,1299,cs),
(579,1299,o),
(510,1062,o),
(510,774,cs),
(510,516,o),
(612,285,o),
(810,285,cs),
(919,285,o),
(983,370,o),
(1007,491,c),
(1053,367,o),
(1133,277,o),
(1329,277,cs),
(1602,277,o),
(1712,493,o),
(1712,882,cs),
(1712,1440,o),
(1444,1776,o),
(928,1776,cs),
(385,1776,o),
(64,1405,o),
(64,777,cs),
(64,103,o),
(448,-158,o),
(919,-158,cs)
);
},
{
closed = 1;
nodes = (
(838,532,o),
(820,664,o),
(820,783,cs),
(820,1012,o),
(858,1074,o),
(982,1074,c),
(982,682,ls),
(982,609,o),
(964,532,o),
(903,532,cs)
);
}
);
width = 1770;
}
);
unicode = 64;
},
{
glyphname = b;
layers = (
{
anchors = (
{
name = bottom;
position = "{514, 0}";
},
{
name = top;
position = "{256, 1760}";
}
);
background = {
shapes = (
{
closed = 1;
nodes = (
(875,-16,o),
(967,160,o),
(967,391,cs),
(967,1114,ls),
(967,1360,o),
(884,1516,o),
(640,1516,cs),
(567,1516,o),
(500,1488,o),
(440,1427,c),
(440,1770,l),
(72,1770,l),
(72,0,l),
(440,0,l),
(440,160,l),
(484,41,o),
(554,-16,o),
(651,-16,cs)
);
},
{
closed = 1;
nodes = (
(447,263,o),
(440,349,o),
(440,457,cs),
(440,1085,ls),
(440,1175,o),
(456,1239,o),
(528,1239,cs),
(598,1239,o),
(604,1171,o),
(604,1081,cs),
(604,457,ls),
(604,347,o),
(609,263,o),
(530,263,cs)
);
}
);
};
layerId = "740CAC0B-92FD-4184-A3FF-9D0096FD1E3F";
shapes = (
{
closed = 1;
nodes = (
(875,-16,o),
(967,160,o),
(967,391,cs),
(967,1129,ls),
(967,1360,o),
(895,1516,o),
(699,1516,cs),
(554,1516,o),
(484,1450,o),
(440,1340,c),
(440,1760,l),
(76,1760,l),
(76,0,l),
(440,0,l),
(440,160,l),
(484,41,o),
(554,-16,o),
(671,-16,cs)
);
},
{
closed = 1;
nodes = (
(447,263,o),
(440,349,o),
(440,457,cs),
(440,1043,ls),
(440,1151,o),
(447,1237,o),
(524,1237,cs),
(599,1237,o),
(604,1153,o),
(604,1043,cs),
(604,457,ls),
(604,347,o),
(599,263,o),
(523,263,cs)
);
}
);
width = 1027;
}
);
leftKerningGroup = l;
rightKerningGroup = b;
unicode = 98;
},
{
glyphname = b.sc;
layers = (
{
anchors = (
{
name = top;
position = "{457, 1560}";
},
{
name = bottom;
position = "{468, 0}";
},
{
name = top_case;
position = "{457, 1560}";
}
);
layerId = "740CAC0B-92FD-4184-A3FF-9D0096FD1E3F";
shapes = (
{
closed = 1;
nodes = (
(555,0,ls),
(865,0,o),
(942,226,o),
(942,437,cs),
(942,624,o),
(900,782,o),
(742,822,c),
(863,854,o),
(922,959,o),
(922,1124,cs),
(922,1158,ls),
(922,1445,o),
(811,1560,o),
(555,1560,cs),
(78,1560,l),
(78,0,l)
);
},
{
closed = 1;
nodes = (
(446,290,o),
(433,291,o),
(422,292,c),
(422,672,l),
(487,672,ls),
(570,672,o),
(594,610,o),
(594,510,cs),
(594,420,ls),
(594,334,o),
(548,290,o),
(457,290,cs)
);
},
{
closed = 1;
nodes = (
(422,1268,l),
(496,1268,ls),
(546,1268,o),
(571,1240,o),
(571,1183,cs),
(571,1076,ls),
(571,1005,o),
(559,947,o),
(494,947,cs),
(422,947,l)
);
}
);
width = 980;
}
);
},
{
glyphname = backslash;
layers = (
{
background = {
shapes = (
{
closed = 1;
nodes = (
(801,0,l),
(391,1767,l),
(27,1767,l),
(438,0,l)
);
}
);
};
layerId = "740CAC0B-92FD-4184-A3FF-9D0096FD1E3F";
shapes = (
{
closed = 1;
nodes = (
(801,0,l),
(391,1767,l),
(27,1767,l),
(438,0,l)
);
}
);
width = 830;
}
);
unicode = 92;
},
{
glyphname = backslash.case;
layers = (
{
layerId = "740CAC0B-92FD-4184-A3FF-9D0096FD1E3F";
shapes = (
{
closed = 1;
nodes = (
(801,0,l),
(391,1760,l),
(27,1760,l),
(438,0,l)
);
}
);
width = 830;
}
);
},
{
glyphname = bar;
layers = (
{
background = {
shapes = (
{
closed = 1;
nodes = (
(381,-84,l),
(381,1953,l),
(62,1953,l),
(62,-84,l)
);
}
);
};
layerId = "740CAC0B-92FD-4184-A3FF-9D0096FD1E3F";
shapes = (
{
closed = 1;
nodes = (
(381,-84,l),
(381,1953,l),
(62,1953,l),
(62,-84,l)
);
}
);
width = 443;
}
);
unicode = 124;
},
{
glyphname = barcomp;
layers = (
{
anchors = (
{
name = _center;
position = "{330, 915}";
}
);
layerId = "740CAC0B-92FD-4184-A3FF-9D0096FD1E3F";
shapes = (
{
closed = 1;
nodes = (
(660,799,l),
(660,1031,l),
(0,1031,l),
(0,799,l)
);
}
);
width = 660;
}
);
},
{
glyphname = "beta-latin";
layers = (
{
background = {
shapes = (
{
closed = 1;
nodes = (
(408,-186,l),
(408,1453,ls),
(408,1504,o),
(433,1529,o),
(483,1529,cs),
(533,1529,o),
(558,1504,o),
(558,1453,cs),
(558,1245,ls),
(558,1177,o),
(544,1126,o),
(474,1126,c),
(474,878,l),
(583,878,o),
(621,839,o),
(621,731,cs),
(621,399,ls),
(621,320,o),
(573,281,o),
(478,281,c),
(478,0,l),
(582,0,ls),
(882,0,o),
(969,260,o),
(969,559,cs),
(969,817,o),
(928,980,o),
(759,1020,c),
(867,1055,o),
(909,1155,o),
(909,1295,cs),
(909,1412,ls),
(909,1673,o),
(742,1776,o),
(483,1776,cs),
(200,1776,o),
(58,1655,o),
(58,1412,cs),
(58,-186,l)
);
}
);
};
layerId = "740CAC0B-92FD-4184-A3FF-9D0096FD1E3F";
shapes = (
{
closed = 1;
nodes = (
(408,-250,l),
(408,1453,ls),
(408,1504,o),
(433,1529,o),
(483,1529,cs),
(533,1529,o),
(558,1504,o),
(558,1453,cs),
(558,1245,ls),
(558,1177,o),
(544,1126,o),
(474,1126,c),
(474,878,l),
(583,878,o),
(621,839,o),
(621,731,cs),
(621,336,ls),
(621,269,o),
(576,237,o),
(513,237,cs),
(450,237,o),
(408,264,o),
(408,314,c),
(258,311,l),
(258,68,o),
(370,-10,o),
(563,-10,cs),
(819,-10,o),
(969,156,o),
(969,559,cs),
(969,817,o),
(928,980,o),
(759,1020,c),
(867,1055,o),
(909,1155,o),
(909,1295,cs),
(909,1412,ls),
(909,1673,o),
(742,1776,o),
(483,1776,cs),
(200,1776,o),
(58,1655,o),
(58,1412,cs),
(58,-250,l)
);
}
);
width = 1007;
}
);
unicode = 42933;
},
{
glyphname = bhook;
layers = (
{
background = {
shapes = (
{
closed = 1;
nodes = (
(875,-16,o),
(967,160,o),
(967,391,cs),
(967,1031,ls),
(967,1262,o),
(895,1418,o),
(699,1418,cs),
(554,1418,o),
(484,1352,o),
(440,1242,c),
(440,1268,l),
(72,1268,l),
(72,0,l),
(440,0,l),
(440,160,l),
(484,41,o),
(554,-16,o),
(671,-16,cs)
);
},
{
closed = 1;
nodes = (
(447,263,o),
(440,349,o),
(440,457,cs),
(440,945,ls),
(440,1053,o),
(447,1139,o),
(524,1139,cs),
(599,1139,o),
(604,1055,o),
(604,945,cs),
(604,457,ls),
(604,347,o),
(599,263,o),
(523,263,cs)
);
},
{
closed = 1;
nodes = (
(440,1268,l),
(440,1368,ls),
(440,1454,o),
(469,1500,o),
(544,1500,c),
(544,1776,l),
(210,1776,o),
(71,1590,o),
(71,1328,cs),
(71,1268,l)
);
}
);
};
layerId = "740CAC0B-92FD-4184-A3FF-9D0096FD1E3F";
shapes = (
{
closed = 1;
nodes = (
(875,-16,o),
(967,160,o),
(967,391,cs),
(967,1031,ls),
(967,1262,o),
(895,1418,o),
(699,1418,cs),
(554,1418,o),
(484,1352,o),
(440,1242,c),
(440,1368,ls),
(440,1454,o),
(469,1500,o),
(544,1500,c),
(544,1776,l),
(210,1776,o),
(72,1590,o),
(72,1328,cs),
(72,0,l),
(440,0,l),
(440,160,l),
(484,41,o),
(554,-16,o),
(671,-16,cs)
);
},
{
closed = 1;
nodes = (
(447,263,o),
(440,349,o),
(440,457,cs),
(440,945,ls),
(440,1053,o),
(447,1139,o),
(524,1139,cs),
(599,1139,o),
(604,1055,o),
(604,945,cs),
(604,457,ls),
(604,347,o),
(599,263,o),
(523,263,cs)
);
}
);
width = 1027;
}
);
leftKerningGroup = l;
rightKerningGroup = b;
unicode = 595;
},
{
glyphname = bilabialclick;
layers = (
{
layerId = "740CAC0B-92FD-4184-A3FF-9D0096FD1E3F";
shapes = (
{
closed = 1;
nodes = (
(809,-16,o),
(957,143,o),
(957,449,cs),
(957,1051,ls),
(957,1334,o),
(789,1516,o),
(508,1516,cs),
(228,1516,o),
(60,1333,o),
(60,1051,cs),
(60,449,ls),
(60,138,o),
(209,-16,o),
(508,-16,cs)
);
},
{
closed = 1;
nodes = (
(448,260,o),
(424,308,o),
(424,375,cs),
(424,1108,ls),
(424,1195,o),
(452,1239,o),
(508,1239,cs),
(564,1239,o),
(592,1195,o),
(592,1108,cs),
(592,375,ls),
(592,308,o),
(568,260,o),
(508,260,cs)
);
},
{
closed = 1;
nodes = (
(563,630,l),
(563,894,l),
(453,894,l),
(453,630,l)
);
}
);
width = 1017;
}
);
unicode = 664;
},
{
glyphname = blackDiamond;
layers = (
{
layerId = "740CAC0B-92FD-4184-A3FF-9D0096FD1E3F";
shapes = (
{
closed = 1;
nodes = (
(1444,756,l),
(742,1460,l),
(40,756,l),
(742,52,l)
);
}
);
width = 1484;
}
);
unicode = 9670;
},
{
glyphname = blackSquare;
layers = (
{
layerId = "740CAC0B-92FD-4184-A3FF-9D0096FD1E3F";
shapes = (
{
closed = 1;
nodes = (
(1574,0,l),
(1574,1500,l),
(78,1500,l),
(78,0,l)
);
}
);
width = 1652;
}
);
unicode = 9632;
},
{
glyphname = braceleft;
layers = (
{
background = {
shapes = (
{
closed = 1;
nodes = (
(661,79,l),
(589,84,o),
(522,92,o),
(522,163,cs),
(522,538,ls),
(522,732,o),
(418,791,o),
(304,818,c),
(418,844,o),
(522,903,o),
(522,1097,cs),
(522,1472,ls),
(522,1543,o),
(589,1551,o),
(661,1556,c),
(661,1823,l),
(281,1815,o),
(170,1734,o),
(170,1455,cs),
(170,1120,ls),
(170,987,o),
(153,930,o),
(31,916,c),
(31,719,l),
(153,705,o),
(170,648,o),
(170,515,cs),
(170,180,ls),
(170,-99,o),
(281,-180,o),
(661,-188,c)
);
}
);
};
layerId = "740CAC0B-92FD-4184-A3FF-9D0096FD1E3F";
shapes = (
{
closed = 1;
nodes = (
(661,79,l),
(589,84,o),
(522,92,o),
(522,163,cs),
(522,538,ls),
(522,732,o),
(418,791,o),
(304,818,c),
(418,844,o),
(522,904,o),
(522,1097,cs),
(522,1472,ls),
(522,1543,o),
(589,1551,o),
(661,1556,c),
(661,1823,l),
(281,1815,o),
(170,1734,o),
(170,1455,cs),
(170,1120,ls),
(170,987,o),
(153,930,o),
(31,916,c),
(31,719,l),
(153,705,o),
(170,648,o),
(170,515,cs),
(170,180,ls),
(170,-99,o),
(281,-180,o),
(661,-188,c)
);
}
);
width = 696;
}
);
unicode = 123;
},
{
glyphname = braceleft.case;
layers = (
{
layerId = "740CAC0B-92FD-4184-A3FF-9D0096FD1E3F";
shapes = (
{
closed = 1;
nodes = (
(661,257,l),
(589,262,o),
(522,270,o),
(522,341,cs),
(522,606,ls),
(522,800,o),
(418,859,o),
(304,886,c),
(418,912,o),
(522,971,o),
(522,1165,cs),
(522,1419,ls),
(522,1490,o),
(589,1498,o),
(661,1503,c),
(661,1770,l),
(281,1762,o),
(170,1681,o),
(170,1402,cs),
(170,1188,ls),
(170,1055,o),
(153,998,o),
(31,984,c),
(31,787,l),
(153,773,o),
(170,716,o),
(170,583,cs),
(170,358,ls),
(170,79,o),
(281,-2,o),
(661,-10,c)
);
}
);
width = 696;
}
);
},
{
glyphname = braceright;
layers = (
{
background = {
shapes = (
{
closed = 1;
nodes = (
(40,-188,l),
(420,-180,o),
(531,-99,o),
(531,180,cs),
(531,515,ls),
(531,648,o),
(548,705,o),
(670,719,c),
(670,916,l),
(548,930,o),
(531,987,o),
(531,1120,cs),
(531,1455,ls),
(531,1734,o),
(420,1815,o),
(40,1823,c),
(40,1556,l),
(112,1551,o),
(179,1543,o),
(179,1472,cs),
(179,1097,ls),
(179,903,o),
(283,844,o),
(397,818,c),
(283,791,o),
(179,732,o),
(179,538,cs),
(179,163,ls),
(179,92,o),
(112,84,o),
(40,79,c)
);
}
);
};
layerId = "740CAC0B-92FD-4184-A3FF-9D0096FD1E3F";
shapes = (
{
closed = 1;
nodes = (
(40,-188,l),
(420,-180,o),
(531,-99,o),
(531,180,cs),
(531,515,ls),
(531,648,o),
(548,705,o),
(670,719,c),
(670,916,l),
(548,930,o),
(531,987,o),
(531,1120,cs),
(531,1455,ls),
(531,1734,o),
(420,1815,o),
(40,1823,c),
(40,1556,l),
(112,1551,o),
(179,1543,o),
(179,1472,cs),
(179,1097,ls),
(179,903,o),
(283,844,o),
(397,818,c),
(283,791,o),
(179,732,o),
(179,538,cs),
(179,163,ls),
(179,92,o),
(112,84,o),
(40,79,c)
);
}
);
width = 697;
}
);
unicode = 125;
},
{
glyphname = braceright.case;
layers = (
{
layerId = "740CAC0B-92FD-4184-A3FF-9D0096FD1E3F";
shapes = (
{
closed = 1;
nodes = (
(35,-10,l),
(415,-2,o),
(526,79,o),
(526,358,cs),
(526,583,ls),
(526,716,o),
(543,773,o),
(665,787,c),
(665,984,l),
(543,998,o),
(526,1055,o),
(526,1188,cs),
(526,1402,ls),
(526,1681,o),
(415,1762,o),
(35,1770,c),
(35,1503,l),
(107,1498,o),
(174,1490,o),
(174,1419,cs),
(174,1165,ls),
(174,971,o),
(278,912,o),
(392,886,c),
(278,859,o),
(174,800,o),
(174,606,cs),
(174,341,ls),
(174,270,o),
(107,262,o),
(35,257,c)
);
}
);
width = 696;
}
);
},
{
glyphname = bracketleft;
layers = (
{
background = {
shapes = (
{
closed = 1;
nodes = (
(616,0,l),
(616,281,l),
(414,281,l),
(414,1480,l),
(616,1480,l),
(616,1761,l),
(62,1761,l),
(62,0,l)
);
}
);
};
layerId = "740CAC0B-92FD-4184-A3FF-9D0096FD1E3F";
shapes = (
{
closed = 1;
nodes = (
(616,-188,l),
(616,93,l),
(414,93,l),
(414,1542,l),
(616,1542,l),
(616,1823,l),
(62,1823,l),
(62,-188,l)
);
}
);
width = 651;
}
);
unicode = 91;
},
{
glyphname = bracketleft.case;
layers = (
{
layerId = "740CAC0B-92FD-4184-A3FF-9D0096FD1E3F";
shapes = (
{
closed = 1;
nodes = (
(616,0,l),
(616,281,l),
(414,281,l),
(414,1479,l),
(616,1479,l),
(616,1760,l),
(62,1760,l),
(62,0,l)
);
}
);
width = 651;
}
);
},
{
glyphname = bracketright;
layers = (
{
background = {
shapes = (
{
closed = 1;
nodes = (
(589,0,l),
(589,1761,l),
(35,1761,l),
(35,1480,l),
(237,1480,l),
(237,281,l),
(35,281,l),
(35,0,l)
);
}
);
};
layerId = "740CAC0B-92FD-4184-A3FF-9D0096FD1E3F";
shapes = (
{
closed = 1;
nodes = (
(589,-188,l),
(589,1823,l),
(35,1823,l),
(35,1542,l),
(237,1542,l),
(237,93,l),
(35,93,l),
(35,-188,l)
);
}
);
width = 651;
}
);
unicode = 93;
},
{
glyphname = bracketright.case;
layers = (
{
layerId = "740CAC0B-92FD-4184-A3FF-9D0096FD1E3F";
shapes = (
{
closed = 1;
nodes = (
(589,1760,l),
(35,1760,l),
(35,1479,l),
(237,1479,l),
(237,281,l),
(35,281,l),
(35,0,l),
(589,0,l)
);
}
);
width = 651;
}
);
},
{
glyphname = breve;
layers = (
{
anchors = (
{
name = _top;
position = "{498, 1500}";
}
);
background = {
shapes = (
{
closed = 1;
nodes = (
(741,1592,o),
(896,1687,o),
(896,1910,cs),
(896,1917,o),
(895,1929,o),
(894,1945,c),
(638,1944,l),
(638,1869,o),
(606,1829,o),
(503,1829,cs),
(400,1829,o),
(368,1869,o),
(368,1944,c),
(112,1945,l),
(110,1931,o),
(109,1917,o),
(109,1903,cs),
(109,1686,o),
(267,1592,o),
(501,1592,cs)
);
}
);
};
layerId = "740CAC0B-92FD-4184-A3FF-9D0096FD1E3F";
shapes = (
{
closed = 1;
nodes = (
(741,1592,o),
(896,1687,o),
(896,1910,cs),
(896,1917,o),
(895,1932,o),
(894,1945,c),
(638,1945,l),
(638,1869,o),
(606,1829,o),
(503,1829,cs),
(400,1829,o),
(368,1869,o),
(368,1945,c),
(112,1945,l),
(110,1931,o),
(109,1917,o),
(109,1903,cs),
(109,1686,o),
(267,1592,o),
(501,1592,cs)
);
}
);
width = 1015;
}
);
unicode = 728;
},
{
glyphname = brevebelowcomb;
layers = (
{
anchors = (
{
name = _bottom;
position = "{1, 0}";
},
{
name = bottom;
position = "{1, -416}";
}
);
layerId = "740CAC0B-92FD-4184-A3FF-9D0096FD1E3F";
shapes = (
{
closed = 1;
nodes = (
(239,-416,o),
(394,-321,o),
(394,-98,cs),
(394,-91,o),
(393,-76,o),
(392,-64,c),
(136,-64,l),
(136,-139,o),
(104,-179,o),
(1,-179,cs),
(-102,-179,o),
(-134,-139,o),
(-134,-64,c),
(-390,-64,l),
(-392,-77,o),
(-393,-91,o),
(-393,-105,cs),
(-393,-322,o),
(-235,-416,o),
(-1,-416,cs)
);
}
);
width = 0;
}
);
unicode = 814;
},
{
glyphname = brevebelowcomb.case;
layers = (
{
anchors = (
{
name = _bottom;
position = "{1, 0}";
},
{
name = bottom;
position = "{1, -516}";
}
);
layerId = "740CAC0B-92FD-4184-A3FF-9D0096FD1E3F";
shapes = (
{
closed = 1;
nodes = (
(239,-516,o),
(394,-421,o),
(394,-198,cs),
(394,-191,o),
(393,-175,o),
(392,-163,c),
(136,-163,l),
(136,-239,o),
(104,-279,o),
(1,-279,cs),
(-102,-279,o),
(-134,-239,o),
(-134,-163,c),
(-390,-163,l),
(-392,-177,o),
(-393,-191,o),
(-393,-205,cs),
(-393,-422,o),
(-235,-516,o),
(-1,-516,cs)
);
}
);
width = 0;
}
);
},
{
glyphname = brevecomb;
layers = (
{
anchors = (
{
name = _top;
position = "{-4, 1500}";
},
{
name = top;
position = "{1, 1945}";
}
);
layerId = "740CAC0B-92FD-4184-A3FF-9D0096FD1E3F";
shapes = (
{
closed = 1;
nodes = (
(239,1592,o),
(394,1687,o),
(394,1910,cs),
(394,1917,o),
(393,1932,o),
(392,1945,c),
(136,1945,l),
(136,1869,o),
(104,1829,o),
(1,1829,cs),
(-102,1829,o),
(-134,1869,o),
(-134,1945,c),
(-390,1945,l),
(-392,1931,o),
(-393,1917,o),
(-393,1903,cs),
(-393,1686,o),
(-235,1592,o),
(-1,1592,cs)
);
}
);
width = 0;
}
);
unicode = 774;
},
{
glyphname = brevecomb.case;
layers = (
{
anchors = (
{
name = _top;
position = "{-4, 1500}";
}
);
layerId = "B36AC5F0-A8E0-4CE6-838D-3C0CDD0EA3B5";
associatedMasterId = "740CAC0B-92FD-4184-A3FF-9D0096FD1E3F";
name = "Regular Jul 5 16, 00:58";
shapes = (
{
closed = 1;
nodes = (
(239,1592,o),
(394,1687,o),
(394,1910,cs),
(394,1917,o),
(393,1929,o),
(392,1945,c),
(136,1944,l),
(136,1869,o),
(104,1829,o),
(1,1829,cs),
(-102,1829,o),
(-134,1869,o),
(-134,1944,c),
(-390,1945,l),
(-392,1931,o),
(-393,1917,o),
(-393,1903,cs),
(-393,1686,o),
(-235,1592,o),
(-1,1592,cs)
);
}
);
width = 0;
},
{
anchors = (
{
name = _top_case;
position = "{0, 1500}";
},
{
name = top_case;
position = "{1, 1914}";
}
);
background = {
shapes = (
{
closed = 1;
nodes = (
(239,1592,o),
(394,1678,o),
(394,1880,cs),
(394,1887,o),
(393,1899,o),
(392,1915,c),
(136,1914,l),
(136,1832,o),
(104,1789,o),
(1,1789,cs),
(-102,1789,o),
(-134,1832,o),
(-134,1914,c),
(-390,1915,l),
(-392,1901,o),
(-393,1887,o),
(-393,1873,cs),
(-393,1677,o),
(-235,1592,o),
(-1,1592,cs)
);
}
);
};
layerId = "740CAC0B-92FD-4184-A3FF-9D0096FD1E3F";
shapes = (
{
closed = 1;
nodes = (
(239,1592,o),
(394,1678,o),
(394,1880,cs),
(394,1887,o),
(393,1903,o),
(392,1915,c),
(136,1915,l),
(136,1832,o),
(104,1789,o),
(1,1789,cs),
(-102,1789,o),
(-134,1832,o),
(-134,1915,c),
(-390,1915,l),
(-392,1901,o),
(-393,1887,o),
(-393,1873,cs),
(-393,1677,o),
(-235,1592,o),
(-1,1592,cs)
);
}
);
width = 0;
}
);
},
{
glyphname = brevecomb_acutecomb;
layers = (
{
anchors = (
{
name = _top_case;
position = "{0, 1500}";
}
);
layerId = "740CAC0B-92FD-4184-A3FF-9D0096FD1E3F";
shapes = (
{
closed = 1;
nodes = (
(238,1582,o),
(392,1668,o),
(392,1870,cs),
(392,1877,o),
(391,1892,o),
(390,1905,c),
(134,1905,l),
(134,1822,o),
(102,1779,o),
(0,1779,cs),
(-102,1779,o),
(-134,1822,o),
(-134,1905,c),
(-390,1905,l),
(-392,1891,o),
(-393,1877,o),
(-393,1863,cs),
(-393,1667,o),
(-235,1582,o),
(0,1582,cs)
);
},
{
closed = 1;
nodes = (
(237,2027,l),
(237,2314,l),
(-238,2126,l),
(-238,1963,l)
);
}
);
width = 0;
}
);
},
{
glyphname = brevecomb_acutecomb.case;
layers = (
{
layerId = "906AAB67-363E-468D-9A5D-809DF0576ACD";
associatedMasterId = "740CAC0B-92FD-4184-A3FF-9D0096FD1E3F";
name = Layer2;
shapes = (
{
alignment = -1;
ref = brevecomb;
},
{
pos = (2,445);
ref = acutecomb;
}
);
width = 600;
},
{
anchors = (
{
name = _top_case;
position = "{0, 1760}";
},
{
name = top;
position = "{0, 2454}";
}
);
layerId = "740CAC0B-92FD-4184-A3FF-9D0096FD1E3F";
shapes = (
{
closed = 1;
nodes = (
(204,1830,o),
(332,1952,o),
(332,2076,cs),
(332,2083,o),
(331,2099,o),
(330,2111,c),
(129,2111,l),
(129,2028,o),
(97,1985,o),
(-5,1985,cs),
(-107,1985,o),
(-139,2028,o),
(-139,2111,c),
(-329,2111,l),
(-331,2097,o),
(-332,2083,o),
(-332,2069,cs),
(-332,1951,o),
(-202,1830,o),
(-5,1830,cs)
);
},
{
closed = 1;
nodes = (
(209,2225,l),
(209,2454,l),
(-165,2266,l),
(-165,2161,l)
);
}
);
width = 0;
}
);
},
{
glyphname = brevecomb_gravecomb;
layers = (
{
anchors = (
{
name = _top_viet;
position = "{0, 1500}";
}
);
layerId = "EC979CFD-4516-46CA-A6A8-5C2CD5757871";
associatedMasterId = "740CAC0B-92FD-4184-A3FF-9D0096FD1E3F";
name = "Regular Jul 24 16, 23:13";
shapes = (
{
closed = 1;
nodes = (
(239,1592,o),
(394,1678,o),
(394,1880,cs),
(394,1887,o),
(393,1899,o),
(392,1915,c),
(136,1914,l),
(136,1832,o),
(104,1789,o),
(1,1789,cs),
(-102,1789,o),
(-134,1832,o),
(-134,1914,c),
(-390,1915,l),
(-392,1901,o),
(-393,1887,o),
(-393,1873,cs),
(-393,1677,o),
(-235,1592,o),
(-1,1592,cs)
);
},
{
closed = 1;
nodes = (
(237,1776,l),
(-238,1994,l),
(-238,1647,l),
(237,1553,l)
);
}
);
width = 0;
},
{
anchors = (
{
name = _top;
position = "{-1, 1500}";
},
{
name = _top_case;
position = "{0, 1500}";
},
{
name = top;
position = "{-1, 2314}";
}
);
layerId = "740CAC0B-92FD-4184-A3FF-9D0096FD1E3F";
shapes = (
{
closed = 1;
nodes = (
(238,1582,o),
(392,1668,o),
(392,1870,cs),
(392,1877,o),
(391,1892,o),
(390,1905,c),
(134,1905,l),
(134,1822,o),
(102,1779,o),
(0,1779,cs),
(-102,1779,o),
(-134,1822,o),
(-134,1905,c),
(-390,1905,l),
(-392,1891,o),
(-393,1877,o),
(-393,1863,cs),
(-393,1667,o),
(-235,1582,o),
(0,1582,cs)
);
},
{
closed = 1;
nodes = (
(237,2126,l),
(-238,2314,l),
(-238,2027,l),
(237,1963,l)
);
}
);
width = 0;
}
);
},
{
glyphname = brevecomb_gravecomb.case;
layers = (
{
anchors = (
{
name = _top_viet;
position = "{0, 1500}";
}
);
layerId = "EC979CFD-4516-46CA-A6A8-5C2CD5757871";
associatedMasterId = "740CAC0B-92FD-4184-A3FF-9D0096FD1E3F";
name = "Regular Jul 24 16, 23:13";
shapes = (
{
closed = 1;
nodes = (
(239,1592,o),
(394,1678,o),
(394,1880,cs),
(394,1887,o),
(393,1899,o),
(392,1915,c),
(136,1914,l),
(136,1832,o),
(104,1789,o),
(1,1789,cs),
(-102,1789,o),
(-134,1832,o),
(-134,1914,c),
(-390,1915,l),
(-392,1901,o),
(-393,1887,o),
(-393,1873,cs),
(-393,1677,o),
(-235,1592,o),
(-1,1592,cs)
);
},
{
closed = 1;
nodes = (
(237,1776,l),
(-238,1994,l),
(-238,1647,l),
(237,1553,l)
);
}
);
width = 0;
},
{
layerId = "906AAB67-363E-468D-9A5D-809DF0576ACD";
associatedMasterId = "740CAC0B-92FD-4184-A3FF-9D0096FD1E3F";
name = Layer2;
shapes = (
{
alignment = -1;
ref = brevecomb;
},
{
pos = (1,445);
ref = gravecomb;
}
);
width = 600;
},
{
anchors = (
{
name = _top_case;
position = "{0, 1760}";
},
{
name = top;
position = "{0, 2454}";
}
);
layerId = "740CAC0B-92FD-4184-A3FF-9D0096FD1E3F";
shapes = (
{
closed = 1;
nodes = (
(204,1830,o),
(332,1952,o),
(332,2076,cs),
(332,2083,o),
(331,2100,o),
(330,2111,c),
(129,2111,l),
(129,2028,o),
(97,1985,o),
(-5,1985,cs),
(-107,1985,o),
(-139,2028,o),
(-139,2111,c),
(-329,2111,l),
(-331,2097,o),
(-332,2083,o),
(-332,2069,cs),
(-332,1951,o),
(-202,1830,o),
(-5,1830,cs)
);
},
{
closed = 1;
nodes = (
(209,2266,l),
(-165,2454,l),
(-165,2225,l),
(209,2161,l)
);
}
);
width = 0;
}
);
},
{
glyphname = brevecomb_hookabovecomb;
layers = (
{
anchors = (
{
name = _top_case;
position = "{0, 1500}";
}
);
layerId = "6F3DDAAE-AF22-4981-B420-4FAD75AABC0F";
associatedMasterId = "740CAC0B-92FD-4184-A3FF-9D0096FD1E3F";
name = "Regular Jul 25 16, 00:41";
shapes = (
{
closed = 1;
nodes = (
(106,1936,l),
(106,2031,l),
(241,2049,o),
(333,2129,o),
(333,2285,cs),
(333,2441,o),
(225,2533,o),
(42,2533,cs),
(-34,2533,o),
(-105,2522,o),
(-176,2500,c),
(-176,2320,l),
(-144,2330,o),
(-104,2336,o),
(-64,2336,cs),
(25,2336,o),
(75,2298,o),
(75,2221,cs),
(75,2128,o),
(3,2091,o),
(-105,2091,c),
(-105,1936,l)
);
},
{
closed = 1;
nodes = (
(238,1582,o),
(392,1668,o),
(392,1870,cs),
(392,1877,o),
(391,1889,o),
(390,1905,c),
(134,1904,l),
(134,1822,o),
(102,1779,o),
(0,1779,cs),
(-102,1779,o),
(-134,1822,o),
(-134,1904,c),
(-390,1905,l),
(-392,1891,o),
(-393,1877,o),
(-393,1863,cs),
(-393,1667,o),
(-235,1582,o),
(0,1582,cs)
);
},
{
closed = 1;
nodes = (
(361,1797,l),
(515,1845,o),
(633,1935,o),
(633,2105,cs),
(633,2255,o),
(534,2343,o),
(367,2343,cs),
(303,2343,o),
(240,2331,o),
(184,2310,c),
(184,2130,l),
(211,2140,o),
(242,2146,o),
(274,2146,cs),
(338,2146,o),
(375,2114,o),
(375,2051,cs),
(375,1984,o),
(327,1948,o),
(255,1921,c)
);
}
);
width = 0;
},
{
anchors = (
{
name = _top_viet;
position = "{0, 1500}";
}
);
layerId = "1DAF3498-A89F-4743-89C0-D50C669468E2";
associatedMasterId = "740CAC0B-92FD-4184-A3FF-9D0096FD1E3F";
name = "Regular Jul 24 16, 23:14";
shapes = (
{
closed = 1;
nodes = (
(101,1569,l),
(101,1685,l),
(244,1705,o),
(365,1791,o),
(365,1959,cs),
(365,2118,o),
(229,2230,o),
(37,2230,cs),
(-38,2230,o),
(-111,2219,o),
(-181,2197,c),
(-181,1974,l),
(-152,1984,o),
(-116,1990,o),
(-80,1990,cs),
(3,1990,o),
(50,1952,o),
(50,1875,cs),
(50,1782,o),
(-19,1745,o),
(-110,1745,c),
(-110,1569,l)
);
},
{
closed = 1;
nodes = (
(239,1592,o),
(394,1687,o),
(394,1910,cs),
(394,1917,o),
(393,1929,o),
(392,1945,c),
(136,1944,l),
(136,1869,o),
(104,1829,o),
(1,1829,cs),
(-102,1829,o),
(-134,1869,o),
(-134,1944,c),
(-390,1945,l),
(-392,1931,o),
(-393,1917,o),
(-393,1903,cs),
(-393,1686,o),
(-235,1592,o),
(-1,1592,cs)
);
}
);
width = 0;
},
{
anchors = (
{
name = _top;
position = "{-1, 1500}";
},
{
name = _top_case;
position = "{0, 1500}";
},
{
name = top;
position = "{-1, 2459}";
}
);
layerId = "740CAC0B-92FD-4184-A3FF-9D0096FD1E3F";
shapes = (
{
closed = 1;
nodes = (
(238,1582,o),
(392,1668,o),
(392,1870,cs),
(392,1877,o),
(391,1891,o),
(390,1905,c),
(134,1905,l),
(134,1822,o),
(102,1779,o),
(0,1779,cs),
(-102,1779,o),
(-134,1822,o),
(-134,1905,c),
(-390,1905,l),
(-392,1891,o),
(-393,1877,o),
(-393,1863,cs),
(-393,1667,o),
(-235,1582,o),
(0,1582,cs)
);
},
{
closed = 1;
nodes = (
(-31,1913,l),
(123,1961,o),
(241,2051,o),
(241,2221,cs),
(241,2371,o),
(142,2459,o),
(-25,2459,cs),
(-89,2459,o),
(-152,2447,o),
(-208,2426,c),
(-208,2246,l),
(-181,2256,o),
(-150,2262,o),
(-118,2262,cs),
(-54,2262,o),
(-17,2230,o),
(-17,2167,cs),
(-17,2100,o),
(-65,2064,o),
(-137,2037,c)
);
}
);
width = 0;
}
);
},
{
glyphname = brevecomb_hookabovecomb.case;
layers = (
{
anchors = (
{
name = _top_case;
position = "{0, 1500}";
}
);
layerId = "6F3DDAAE-AF22-4981-B420-4FAD75AABC0F";
associatedMasterId = "740CAC0B-92FD-4184-A3FF-9D0096FD1E3F";
name = "Regular Jul 25 16, 00:41";
shapes = (
{
closed = 1;
nodes = (
(106,1936,l),
(106,2031,l),
(241,2049,o),
(333,2129,o),
(333,2285,cs),
(333,2441,o),
(225,2533,o),
(42,2533,cs),
(-34,2533,o),
(-105,2522,o),
(-176,2500,c),
(-176,2320,l),
(-144,2330,o),
(-104,2336,o),
(-64,2336,cs),
(25,2336,o),
(75,2298,o),
(75,2221,cs),
(75,2128,o),
(3,2091,o),
(-105,2091,c),
(-105,1936,l)
);
},
{
closed = 1;
nodes = (
(238,1582,o),
(392,1668,o),
(392,1870,cs),
(392,1877,o),
(391,1889,o),
(390,1905,c),
(134,1904,l),
(134,1822,o),
(102,1779,o),
(0,1779,cs),
(-102,1779,o),
(-134,1822,o),
(-134,1904,c),
(-390,1905,l),
(-392,1891,o),
(-393,1877,o),
(-393,1863,cs),
(-393,1667,o),
(-235,1582,o),
(0,1582,cs)
);
},
{
closed = 1;
nodes = (
(361,1797,l),
(515,1845,o),
(633,1935,o),
(633,2105,cs),
(633,2255,o),
(534,2343,o),
(367,2343,cs),
(303,2343,o),
(240,2331,o),
(184,2310,c),
(184,2130,l),
(211,2140,o),
(242,2146,o),
(274,2146,cs),
(338,2146,o),
(375,2114,o),
(375,2051,cs),
(375,1984,o),
(327,1948,o),
(255,1921,c)
);
}
);
width = 0;
},
{
anchors = (
{
name = _top_viet;
position = "{0, 1500}";
}
);
layerId = "1DAF3498-A89F-4743-89C0-D50C669468E2";
associatedMasterId = "740CAC0B-92FD-4184-A3FF-9D0096FD1E3F";
name = "Regular Jul 24 16, 23:14";
shapes = (
{
closed = 1;
nodes = (
(101,1569,l),
(101,1685,l),
(244,1705,o),
(365,1791,o),
(365,1959,cs),
(365,2118,o),
(229,2230,o),
(37,2230,cs),
(-38,2230,o),
(-111,2219,o),
(-181,2197,c),
(-181,1974,l),
(-152,1984,o),
(-116,1990,o),
(-80,1990,cs),
(3,1990,o),
(50,1952,o),
(50,1875,cs),
(50,1782,o),
(-19,1745,o),
(-110,1745,c),
(-110,1569,l)
);
},
{
closed = 1;
nodes = (
(239,1592,o),
(394,1687,o),
(394,1910,cs),
(394,1917,o),
(393,1929,o),
(392,1945,c),
(136,1944,l),
(136,1869,o),
(104,1829,o),
(1,1829,cs),
(-102,1829,o),
(-134,1869,o),
(-134,1944,c),
(-390,1945,l),
(-392,1931,o),
(-393,1917,o),
(-393,1903,cs),
(-393,1686,o),
(-235,1592,o),
(-1,1592,cs)
);
}
);
width = 0;
},
{
layerId = "906AAB67-363E-468D-9A5D-809DF0576ACD";
associatedMasterId = "740CAC0B-92FD-4184-A3FF-9D0096FD1E3F";
name = Layer2;
shapes = (
{
alignment = -1;
ref = brevecomb;
},
{
pos = (1,445);
ref = hookabovecomb;
}
);
width = 600;
},
{
anchors = (
{
name = _top_case;
position = "{0, 1760}";
},
{
name = top;
position = "{0, 2469}";
}
);
layerId = "740CAC0B-92FD-4184-A3FF-9D0096FD1E3F";
shapes = (
{
closed = 1;
nodes = (
(204,1830,o),
(332,1952,o),
(332,2076,cs),
(332,2083,o),
(331,2098,o),
(330,2111,c),
(129,2111,l),
(129,2028,o),
(97,1985,o),
(-5,1985,cs),
(-107,1985,o),
(-139,2028,o),
(-139,2111,c),
(-329,2111,l),
(-331,2097,o),
(-332,2083,o),
(-332,2069,cs),
(-332,1951,o),
(-202,1830,o),
(-5,1830,cs)
);
},
{
closed = 1;
nodes = (
(6,2129,l),
(102,2159,o),
(175,2215,o),
(175,2321,cs),
(175,2414,o),
(113,2469,o),
(10,2469,cs),
(-30,2469,o),
(-69,2461,o),
(-104,2448,c),
(-104,2336,l),
(-87,2342,o),
(-68,2346,o),
(-48,2346,cs),
(-8,2346,o),
(15,2326,o),
(15,2287,cs),
(15,2246,o),
(-15,2223,o),
(-60,2206,c)
);
}
);
width = 0;
}
);
},
{
glyphname = brevecomb_tildecomb;
layers = (
{
anchors = (
{
name = _top_viet;
position = "{0, 1500}";
}
);
layerId = "403F23B3-67EB-43D1-803D-8B29AB34F120";
associatedMasterId = "740CAC0B-92FD-4184-A3FF-9D0096FD1E3F";
name = "Regular Jul 24 16, 23:19";
shapes = (
{
closed = 1;
nodes = (
(239,1592,o),
(394,1687,o),
(394,1910,cs),
(394,1917,o),
(393,1929,o),
(392,1945,c),
(136,1944,l),
(136,1869,o),
(104,1829,o),
(1,1829,cs),
(-102,1829,o),
(-134,1869,o),
(-134,1944,c),
(-390,1945,l),
(-392,1931,o),
(-393,1917,o),
(-393,1903,cs),
(-393,1686,o),
(-235,1592,o),
(-1,1592,cs)
);
},
{
closed = 1;
nodes = (
(315,2011,o),
(364,2137,o),
(413,2272,c),
(247,2326,l),
(220,2271,o),
(190,2251,o),
(154,2251,cs),
(78,2251,o),
(-24,2335,o),
(-166,2335,cs),
(-309,2335,o),
(-364,2233,o),
(-413,2112,c),
(-265,2034,l),
(-239,2085,o),
(-208,2102,o),
(-173,2102,cs),
(-92,2102,o),
(16,2011,o),
(165,2011,cs)
);
}
);
width = 0;
},
{
anchors = (
{
name = _top;
position = "{0, 1500}";
},
{
name = _top_case;
position = "{0, 1500}";
},
{
name = top;
position = "{0, 2280}";
}
);
layerId = "740CAC0B-92FD-4184-A3FF-9D0096FD1E3F";
shapes = (
{
closed = 1;
nodes = (
(315,1969,o),
(364,2085,o),
(413,2210,c),
(247,2264,l),
(214,2209,o),
(185,2189,o),
(135,2189,cs),
(29,2189,o),
(-59,2280,o),
(-183,2280,cs),
(-316,2280,o),
(-367,2184,o),
(-413,2070,c),
(-265,1992,l),
(-233,2043,o),
(-196,2060,o),
(-153,2060,cs),
(-48,2060,o),
(45,1969,o),
(165,1969,cs)
);
},
{
closed = 1;
nodes = (
(238,1582,o),
(392,1668,o),
(392,1870,cs),
(392,1877,o),
(391,1891,o),
(390,1905,c),
(134,1905,l),
(134,1822,o),
(102,1779,o),
(0,1779,cs),
(-102,1779,o),
(-134,1822,o),
(-134,1905,c),
(-390,1905,l),
(-392,1891,o),
(-393,1877,o),
(-393,1863,cs),
(-393,1667,o),
(-235,1582,o),
(0,1582,cs)
);
}
);
width = 0;
}
);
},
{
glyphname = brevecomb_tildecomb.case;
layers = (
{
anchors = (
{
name = _top_viet;
position = "{0, 1500}";
}
);
layerId = "403F23B3-67EB-43D1-803D-8B29AB34F120";
associatedMasterId = "740CAC0B-92FD-4184-A3FF-9D0096FD1E3F";
name = "Regular Jul 24 16, 23:19";
shapes = (
{
closed = 1;
nodes = (
(239,1592,o),
(394,1687,o),
(394,1910,cs),
(394,1917,o),
(393,1929,o),
(392,1945,c),
(136,1944,l),
(136,1869,o),
(104,1829,o),
(1,1829,cs),
(-102,1829,o),
(-134,1869,o),
(-134,1944,c),
(-390,1945,l),
(-392,1931,o),
(-393,1917,o),
(-393,1903,cs),
(-393,1686,o),
(-235,1592,o),
(-1,1592,cs)
);
},
{
closed = 1;
nodes = (
(315,2011,o),
(364,2137,o),
(413,2272,c),
(247,2326,l),
(220,2271,o),
(190,2251,o),
(154,2251,cs),
(78,2251,o),
(-24,2335,o),
(-166,2335,cs),
(-309,2335,o),
(-364,2233,o),
(-413,2112,c),
(-265,2034,l),
(-239,2085,o),
(-208,2102,o),
(-173,2102,cs),
(-92,2102,o),
(16,2011,o),
(165,2011,cs)
);
}
);
width = 0;
},
{
layerId = "906AAB67-363E-468D-9A5D-809DF0576ACD";
associatedMasterId = "740CAC0B-92FD-4184-A3FF-9D0096FD1E3F";
name = Layer2;
shapes = (
{
alignment = -1;
ref = brevecomb;
},
{
pos = (1,445);
ref = tildecomb;
}
);
width = 600;
},
{
anchors = (
{
name = _top_case;
position = "{0, 1760}";
},
{
name = top;
position = "{0, 2407}";
}
);
layerId = "740CAC0B-92FD-4184-A3FF-9D0096FD1E3F";
shapes = (
{
closed = 1;
nodes = (
(204,1830,o),
(332,1952,o),
(332,2076,cs),
(332,2083,o),
(331,2098,o),
(330,2111,c),
(129,2111,l),
(129,2028,o),
(97,1985,o),
(-5,1985,cs),
(-107,1985,o),
(-139,2028,o),
(-139,2111,c),
(-329,2111,l),
(-331,2097,o),
(-332,2083,o),
(-332,2069,cs),
(-332,1951,o),
(-202,1830,o),
(-5,1830,cs)
);
},
{
closed = 1;
nodes = (
(251,2174,o),
(288,2261,o),
(325,2355,c),
(200,2395,l),
(175,2354,o),
(153,2339,o),
(116,2339,cs),
(36,2339,o),
(-30,2407,o),
(-123,2407,cs),
(-223,2407,o),
(-261,2335,o),
(-296,2249,c),
(-185,2191,l),
(-161,2229,o),
(-133,2242,o),
(-101,2242,cs),
(-22,2242,o),
(48,2174,o),
(138,2174,cs)
);
}
);
width = 0;
}
);
},
{
glyphname = breveinvertedbelowcomb;
layers = (
{
anchors = (
{
name = _bottom;
position = "{-1, 0}";
},
{
name = bottom;
position = "{-1, -513}";
}
);
layerId = "740CAC0B-92FD-4184-A3FF-9D0096FD1E3F";
shapes = (
{
closed = 1;
nodes = (
(-135,-513,l),
(-135,-422,o),
(-77,-378,o),
(0,-378,cs),
(78,-378,o),
(135,-422,o),
(135,-513,c),
(371,-513,l),
(372,-499,o),
(373,-485,o),
(373,-478,cs),
(373,-255,o),
(238,-160,o),
(-2,-160,cs),
(-236,-160,o),
(-374,-254,o),
(-374,-471,cs),
(-374,-485,o),
(-373,-499,o),
(-371,-513,c)
);
}
);
width = 0;
}
);
unicode = 815;
},
{
glyphname = breveinvertedcomb;
layers = (
{
anchors = (
{
name = _top;
position = "{0, 1500}";
},
{
name = top;
position = "{-1, 1960}";
}
);
background = {
shapes = (
{
closed = 1;
nodes = (
(-135,1608,l),
(-135,1698,o),
(-77,1742,o),
(0,1742,cs),
(78,1742,o),
(135,1698,o),
(135,1608,c),
(371,1607,l),
(372,1623,o),
(373,1635,o),
(373,1642,cs),
(373,1865,o),
(238,1960,o),
(-2,1960,cs),
(-236,1960,o),
(-374,1866,o),
(-374,1649,cs),
(-374,1635,o),
(-373,1621,o),
(-371,1607,c)
);
}
);
};
layerId = "740CAC0B-92FD-4184-A3FF-9D0096FD1E3F";
shapes = (
{
closed = 1;
nodes = (
(-135,1608,l),
(-135,1698,o),
(-77,1742,o),
(0,1742,cs),
(78,1742,o),
(135,1698,o),
(135,1608,c),
(371,1608,l),
(372,1621,o),
(373,1635,o),
(373,1642,cs),
(373,1865,o),
(238,1960,o),
(-2,1960,cs),
(-236,1960,o),
(-374,1866,o),
(-374,1649,cs),
(-374,1635,o),
(-373,1621,o),
(-371,1608,c)
);
}
);
width = 0;
}
);
unicode = 785;
},
{
glyphname = breveinvertedcomb.case;
layers = (
{
anchors = (
{
name = _top_case;
position = "{-1, 1610}";
},
{
name = top;
position = "{-1, 2062}";
}
);
layerId = "740CAC0B-92FD-4184-A3FF-9D0096FD1E3F";
shapes = (
{
closed = 1;
nodes = (
(-135,1709,l),
(-135,1800,o),
(-77,1844,o),
(0,1844,cs),
(78,1844,o),
(135,1800,o),
(135,1709,c),
(371,1709,l),
(372,1723,o),
(373,1737,o),
(373,1744,cs),
(373,1967,o),
(238,2062,o),
(-2,2062,cs),
(-236,2062,o),
(-374,1968,o),
(-374,1751,cs),
(-374,1737,o),
(-373,1723,o),
(-371,1709,c)
);
}
);
width = 0;
}
);
},
{
glyphname = brokenbar;
layers = (
{
background = {
shapes = (
{
closed = 1;
nodes = (
(387,1043,l),
(387,1953,l),
(68,1953,l),
(68,1043,l)
);
},
{
closed = 1;
nodes = (
(387,-84,l),
(387,796,l),
(68,796,l),
(68,-84,l)
);
}
);
};
layerId = "740CAC0B-92FD-4184-A3FF-9D0096FD1E3F";
shapes = (
{
closed = 1;
nodes = (
(387,1043,l),
(387,1953,l),
(68,1953,l),
(68,1043,l)
);
},
{
closed = 1;
nodes = (
(387,-84,l),
(387,796,l),
(68,796,l),
(68,-84,l)
);
}
);
width = 455;
}
);
unicode = 166;
},
{
glyphname = bstroke;
layers = (
{
layerId = "740CAC0B-92FD-4184-A3FF-9D0096FD1E3F";
shapes = (
{
closed = 1;
nodes = (
(642,1512,l),
(642,1665,l),
(-8,1665,l),
(-8,1512,l)
);
},
{
closed = 1;
nodes = (
(875,-16,o),
(967,160,o),
(967,391,cs),
(967,1089,ls),
(967,1320,o),
(895,1476,o),
(699,1476,cs),
(554,1476,o),
(484,1410,o),
(440,1300,c),
(440,1760,l),
(76,1760,l),
(76,0,l),
(440,0,l),
(440,160,l),
(484,41,o),
(554,-16,o),
(671,-16,cs)
);
},
{
closed = 1;
nodes = (
(447,263,o),
(440,349,o),
(440,457,cs),
(440,1003,ls),
(440,1111,o),
(447,1197,o),
(524,1197,cs),
(599,1197,o),
(604,1113,o),
(604,1003,cs),
(604,457,ls),
(604,347,o),
(599,263,o),
(523,263,cs)
);
}
);
width = 1027;
}
);
rightKerningGroup = b;
unicode = 384;
},
{
glyphname = bullet;
layers = (
{
background = {
shapes = (
{
closed = 1;
nodes = (
(559,403,o),
(674,539,o),
(674,741,cs),
(674,943,o),
(559,1079,o),
(360,1079,cs),
(161,1079,o),
(47,943,o),
(47,741,cs),
(47,539,o),
(161,403,o),
(360,403,cs)
);
}
);
};
layerId = "740CAC0B-92FD-4184-A3FF-9D0096FD1E3F";
shapes = (
{
closed = 1;
nodes = (
(559,403,o),
(674,539,o),
(674,741,cs),
(674,943,o),
(559,1079,o),
(360,1079,cs),
(161,1079,o),
(47,943,o),
(47,741,cs),
(47,539,o),
(161,403,o),
(360,403,cs)
);
}
);
width = 721;
}
);
unicode = 8226;
},
{
glyphname = bulletoperator;
layers = (
{
background = {
shapes = (
{
closed = 1;
nodes = (
(469,723,l),
(469,1021,l),
(151,1021,l),
(151,723,l)
);
}
);
};
layerId = "740CAC0B-92FD-4184-A3FF-9D0096FD1E3F";
shapes = (
{
closed = 1;
nodes = (
(469,723,l),
(469,1021,l),
(151,1021,l),
(151,723,l)
);
}
);
width = 600;
}
);
unicode = 8729;
},
{
glyphname = c;
layers = (
{
anchors = (
{
name = bot;
position = "{514, 0}";
},
{
name = top;
position = "{515, 1500}";
},
{
name = bottom;
position = "{507, 0}";
},
{
name = center;
position = "{506, 770}";
}
);
background = {
shapes = (
{
closed = 1;
nodes = (
(773,-16,o),
(953,130,o),
(953,379,cs),
(953,641,l),
(588,641,l),
(590,389,ls),
(591,322,o),
(568,264,o),
(506,264,cs),
(445,264,o),
(420,326,o),
(420,387,cs),
(420,1114,ls),
(420,1197,o),
(449,1239,o),
(508,1239,cs),
(575,1239,o),
(588,1185,o),
(588,1116,cs),
(588,906,l),
(953,906,l),
(953,1135,ls),
(953,1380,o),
(766,1516,o),
(518,1516,cs),
(161,1516,o),
(60,1330,o),
(60,954,cs),
(60,492,ls),
(60,158,o),
(187,-16,o),
(523,-16,cs)
);
}
);
};
layerId = "740CAC0B-92FD-4184-A3FF-9D0096FD1E3F";
shapes = (
{
closed = 1;
nodes = (
(773,-16,o),
(953,130,o),
(953,379,cs),
(953,641,l),
(590,641,l),
(590,389,ls),
(590,322,o),
(568,264,o),
(506,264,cs),
(445,264,o),
(420,326,o),
(420,387,cs),
(420,1114,ls),
(420,1197,o),
(449,1239,o),
(508,1239,cs),
(575,1239,o),
(588,1185,o),
(588,1116,cs),
(588,906,l),
(953,906,l),
(953,1135,ls),
(953,1380,o),
(766,1516,o),
(518,1516,cs),
(161,1516,o),
(60,1330,o),
(60,954,cs),
(60,492,ls),
(60,158,o),
(187,-16,o),
(523,-16,cs)
);
}
);
width = 1006;
}
);
leftKerningGroup = o;
rightKerningGroup = c;
unicode = 99;
},
{
glyphname = c.sc;
layers = (
{
anchors = (
{
name = bottom;
position = "{486, 0}";
},
{
name = top_case;
position = "{496, 1590}";
}
);
layerId = "740CAC0B-92FD-4184-A3FF-9D0096FD1E3F";
shapes = (
{
closed = 1;
nodes = (
(768,-16,o),
(932,116,o),
(932,425,cs),
(932,658,l),
(578,658,l),
(578,431,ls),
(578,352,o),
(556,298,o),
(496,298,cs),
(442,298,o),
(413,334,o),
(413,431,cs),
(413,1132,ls),
(413,1210,o),
(431,1262,o),
(496,1262,cs),
(552,1262,o),
(578,1233,o),
(578,1128,cs),
(578,882,l),
(928,882,l),
(928,1162,ls),
(928,1439,o),
(746,1576,o),
(496,1576,cs),
(191,1576,o),
(64,1389,o),
(64,1048,cs),
(64,436,ls),
(64,151,o),
(233,-16,o),
(488,-16,cs)
);
}
);
width = 971;
}
);
leftKerningGroup = o.sc;
rightKerningGroup = c.sc;
},
{
glyphname = candraBinducomb;
layers = (
{
layerId = "740CAC0B-92FD-4184-A3FF-9D0096FD1E3F";
shapes = (
{
closed = 1;
nodes = (
(180,2006,l),
(180,2264,l),
(-178,2264,l),
(-178,2006,l)
);
},
{
closed = 1;
nodes = (
(239,1592,o),
(394,1678,o),
(394,1880,cs),
(394,1887,o),
(393,1901,o),
(392,1915,c),
(136,1915,l),
(136,1832,o),
(104,1789,o),
(1,1789,cs),
(-102,1789,o),
(-134,1832,o),
(-134,1915,c),
(-390,1915,l),
(-392,1901,o),
(-393,1887,o),
(-393,1873,cs),
(-393,1677,o),
(-235,1592,o),
(-1,1592,cs)
);
}
);
width = 0;
}
);
unicode = 784;
},
{
glyphname = caron;
layers = (
{
anchors = (
{
name = _top;
position = "{485, 1500}";
}
);
background = {
shapes = (
{
closed = 1;
nodes = (
(689,1591,l),
(930,1994,l),
(571,1994,l),
(485,1709,l),
(399,1994,l),
(40,1994,l),
(281,1591,l)
);
}
);
};
layerId = "740CAC0B-92FD-4184-A3FF-9D0096FD1E3F";
shapes = (
{
closed = 1;
nodes = (
(689,1591,l),
(930,1994,l),
(571,1994,l),
(485,1709,l),
(399,1994,l),
(40,1994,l),
(281,1591,l)
);
}
);
width = 970;
}
);
unicode = 711;
},
{
glyphname = caroncomb;
layers = (
{
anchors = (
{
name = _top;
position = "{0, 1500}";
}
);
layerId = "740CAC0B-92FD-4184-A3FF-9D0096FD1E3F";
shapes = (
{
closed = 1;
nodes = (
(204,1591,l),
(445,1994,l),
(86,1994,l),
(0,1709,l),
(-86,1994,l),
(-445,1994,l),
(-204,1591,l)
);
}
);
width = 0;
}
);
unicode = 780;
},
{
glyphname = caroncomb.alt;
layers = (
{
anchors = (
{
name = _caron.alt;
position = "{276, 1500}";
}
);
background = {
shapes = (
{
closed = 1;
nodes = (
(870,1242,l),
(972,1487,l),
(972,1776,l),
(598,1776,l),
(598,1478,l),
(725,1478,l),
(659,1242,l)
);
}
);
};
layerId = "740CAC0B-92FD-4184-A3FF-9D0096FD1E3F";
shapes = (
{
closed = 1;
nodes = (
(808,1226,l),
(910,1471,l),
(910,1760,l),
(598,1760,l),
(598,1462,l),
(673,1462,l),
(597,1226,l)
);
}
);
width = 600;
}
);
},
{
glyphname = caroncomb.case;
layers = (
{
anchors = (
{
name = _bottom_case;
position = "{0, 2145}";
},
{
name = _top_case;
position = "{0, 1610}";
},
{
name = bottom_case;
position = "{0, 1673}";
},
{
name = top;
position = "{0, 2044}";
}
);
layerId = "740CAC0B-92FD-4184-A3FF-9D0096FD1E3F";
shapes = (
{
closed = 1;
nodes = (
(-204,1711,l),
(204,1711,l),
(445,2044,l),
(86,2044,l),
(0,1829,l),
(-86,2044,l),
(-445,2044,l)
);
}
);
width = 0;
}
);
},
{
glyphname = cedi;
layers = (
{
layerId = "7B018256-4F51-4881-8080-5FAB8EA9A27B";
associatedMasterId = "740CAC0B-92FD-4184-A3FF-9D0096FD1E3F";
name = "Regular Jul 5 16, 00:34";
shapes = (
{
closed = 1;
nodes = (
(385,408,ls),
(385,294,o),
(419,228,o),
(519,228,cs),
(616,228,o),
(655,301,o),
(655,408,cs),
(655,682,l),
(916,682,l),
(916,381,ls),
(916,103,o),
(768,-21,o),
(521,-21,cs),
(285,-21,o),
(129,134,o),
(129,391,cs),
(129,1129,ls),
(129,1437,o),
(247,1600,o),
(529,1600,cs),
(749,1600,o),
(909,1482,o),
(909,1232,cs),
(909,952,l),
(655,952,l),
(655,1136,ls),
(655,1270,o),
(625,1340,o),
(521,1340,cs),
(405,1340,o),
(385,1267,o),
(385,1161,cs)
);
},
{
closed = 1;
nodes = (
(588,1709,l),
(588,-143,l),
(453,-143,l),
(453,1709,l)
);
}
);
width = 1044;
},
{
layerId = "740CAC0B-92FD-4184-A3FF-9D0096FD1E3F";
shapes = (
{
alignment = -1;
ref = cent;
}
);
width = 986;
}
);
unicode = 8373;
},
{
glyphname = cedilla;
layers = (
{
anchors = (
{
name = _bot;
position = "{264, 0}";
}
);
background = {
shapes = (
{
closed = 1;
nodes = (
(446,-631,o),
(536,-524,o),
(536,-387,cs),
(536,-263,o),
(461,-114,o),
(332,0,c),
(171,0,l),
(236,-98,o),
(275,-198,o),
(275,-273,cs),
(275,-360,o),
(225,-391,o),
(158,-391,cs),
(122,-391,o),
(81,-382,o),
(40,-368,c),
(40,-591,l),
(104,-618,o),
(170,-631,o),
(238,-631,cs)
);
}
);
};
layerId = "740CAC0B-92FD-4184-A3FF-9D0096FD1E3F";
shapes = (
{
closed = 1;
nodes = (
(446,-631,o),
(536,-524,o),
(536,-387,cs),
(536,-263,o),
(461,-114,o),
(332,0,c),
(171,0,l),
(236,-98,o),
(275,-198,o),
(275,-273,cs),
(275,-360,o),
(225,-391,o),
(158,-391,cs),
(122,-391,o),
(81,-382,o),
(40,-368,c),
(40,-591,l),
(104,-618,o),
(170,-631,o),
(238,-631,cs)
);
}
);
width = 576;
}
);
unicode = 184;
},
{
glyphname = cedillacomb;
layers = (
{
anchors = (
{
name = _bot;
position = "{-226, 0}";
},
{
name = _bottom;
position = "{23, 0}";
},
{
name = bottom;
position = "{23, -631}";
}
);
layerId = "740CAC0B-92FD-4184-A3FF-9D0096FD1E3F";
shapes = (
{
closed = 1;
nodes = (
(-44,-631,o),
(46,-524,o),
(46,-387,cs),
(46,-263,o),
(-29,-114,o),
(-158,0,c),
(-319,0,l),
(-254,-98,o),
(-215,-198,o),
(-215,-273,cs),
(-215,-360,o),
(-265,-391,o),
(-332,-391,cs),
(-368,-391,o),
(-409,-382,o),
(-450,-368,c),
(-450,-591,l),
(-386,-618,o),
(-320,-631,o),
(-252,-631,cs)
);
}
);
width = 0;
}
);
unicode = 807;
},
{
glyphname = cedillacomb.case;
layers = (
{
anchors = (
{
name = _bot;
position = "{-226, 0}";
},
{
name = _bottom;
position = "{-202, 0}";
},
{
name = bottom;
position = "{-202, -631}";
}
);
layerId = "740CAC0B-92FD-4184-A3FF-9D0096FD1E3F";
shapes = (
{
closed = 1;
nodes = (
(-44,-631,o),
(46,-524,o),
(46,-387,cs),
(46,-263,o),
(-29,-114,o),
(-158,0,c),
(-319,0,l),
(-254,-98,o),
(-215,-198,o),
(-215,-273,cs),
(-215,-360,o),
(-265,-391,o),
(-332,-391,cs),
(-368,-391,o),
(-409,-382,o),
(-450,-368,c),
(-450,-591,l),
(-386,-618,o),
(-320,-631,o),
(-252,-631,cs)
);
}
);
width = 0;
}
);
},
{
glyphname = cent;
layers = (
{
background = {
shapes = (
{
closed = 1;
nodes = (
(595,-163,l),
(595,-12,l),
(795,16,o),
(941,155,o),
(941,379,cs),
(941,614,l),
(576,614,l),
(578,389,ls),
(578,322,o),
(556,264,o),
(494,264,cs),
(433,264,o),
(408,326,o),
(408,387,cs),
(408,1114,ls),
(408,1197,o),
(437,1239,o),
(496,1239,cs),
(563,1239,o),
(576,1185,o),
(576,1116,cs),
(576,879,l),
(941,879,l),
(941,1135,ls),
(941,1354,o),
(792,1483,o),
(595,1511,c),
(595,1677,l),
(422,1677,l),
(422,1514,l),
(130,1485,o),
(48,1294,o),
(48,954,cs),
(48,492,ls),
(48,190,o),
(149,18,o),
(422,-13,c),
(422,-163,l)
);
}
);
};
layerId = "740CAC0B-92FD-4184-A3FF-9D0096FD1E3F";
shapes = (
{
closed = 1;
nodes = (
(595,-163,l),
(595,-12,l),
(795,16,o),
(941,155,o),
(941,379,cs),
(941,614,l),
(578,614,l),
(578,389,ls),
(578,322,o),
(556,264,o),
(494,264,cs),
(433,264,o),
(408,326,o),
(408,387,cs),
(408,1114,ls),
(408,1197,o),
(437,1239,o),
(496,1239,cs),
(563,1239,o),
(576,1185,o),
(576,1116,cs),
(576,879,l),
(941,879,l),
(941,1135,ls),
(941,1354,o),
(792,1483,o),
(595,1511,c),
(595,1677,l),
(422,1677,l),
(422,1514,l),
(130,1485,o),
(48,1294,o),
(48,954,cs),
(48,492,ls),
(48,190,o),
(149,18,o),
(422,-13,c),
(422,-163,l)
);
}
);
width = 986;
}
);
unicode = 162;
},
{
glyphname = "chi-latin";
layers = (
{
background = {
shapes = (
{
closed = 1;
nodes = (
(279,-186,l),
(520,621,l),
(660,661,l),
(920,1501,l),
(654,1501,l),
(434,776,l),
(292,740,l),
(8,-186,l)
);
},
{
closed = 1;
nodes = (
(798,262,l),
(552,1068,l),
(192,1058,l),
(438,252,l)
);
},
{
closed = 1;
nodes = (
(40,1242,l),
(116,1242,o),
(147,1205,o),
(192,1058,c),
(552,1068,l),
(444,1423,o),
(354,1516,o),
(40,1516,c)
);
},
{
closed = 1;
nodes = (
(930,78,l),
(866,78,o),
(843,115,o),
(798,262,c),
(438,252,l),
(546,-103,o),
(636,-196,o),
(930,-196,c)
);
}
);
};
layerId = "740CAC0B-92FD-4184-A3FF-9D0096FD1E3F";
shapes = (
{
closed = 1;
nodes = (
(930,14,l),
(866,14,o),
(843,51,o),
(798,198,cs),
(655,666,l),
(655,644,l),
(920,1501,l),
(654,1501,l),
(524,1073,l),
(550,1075,l),
(443,1424,o),
(352,1516,o),
(40,1516,c),
(40,1242,l),
(116,1242,o),
(147,1205,o),
(192,1058,cs),
(304,692,l),
(304,714,l),
(8,-250,l),
(279,-250,l),
(437,278,l),
(411,278,l),
(438,188,ls),
(546,-167,o),
(636,-260,o),
(930,-260,c)
);
}
);
width = 940;
}
);
leftKerningGroup = x;
rightKerningGroup = x;
unicode = 43859;
},
{
glyphname = chook;
layers = (
{
background = {
shapes = (
{
closed = 1;
nodes = (
(773,-16,o),
(953,130,o),
(953,379,cs),
(953,641,l),
(590,641,l),
(590,389,ls),
(590,322,o),
(568,264,o),
(506,264,cs),
(445,264,o),
(420,326,o),
(420,387,cs),
(420,1114,ls),
(420,1197,o),
(449,1239,o),
(508,1239,cs),
(575,1239,o),
(588,1185,o),
(588,1116,cs),
(588,906,l),
(853,906,l),
(853,1135,ls),
(853,1380,o),
(766,1516,o),
(518,1516,cs),
(161,1516,o),
(60,1330,o),
(60,954,cs),
(60,492,ls),
(60,158,o),
(187,-16,o),
(523,-16,cs)
);
},
{
closed = 1;
nodes = (
(953,906,l),
(953,1362,ls),
(953,1448,o),
(984,1494,o),
(1059,1494,c),
(1059,1770,l),
(785,1770,o),
(646,1584,o),
(646,1362,cs),
(646,906,l)
);
}
);
};
layerId = "740CAC0B-92FD-4184-A3FF-9D0096FD1E3F";
shapes = (
{
closed = 1;
nodes = (
(773,-16,o),
(953,130,o),
(953,379,cs),
(953,641,l),
(590,641,l),
(590,389,ls),
(590,322,o),
(568,264,o),
(506,264,cs),
(445,264,o),
(420,326,o),
(420,387,cs),
(420,1114,ls),
(420,1197,o),
(449,1239,o),
(508,1239,cs),
(575,1239,o),
(588,1185,o),
(588,1116,cs),
(588,906,l),
(953,906,l),
(953,1362,ls),
(953,1448,o),
(984,1494,o),
(1059,1494,c),
(1059,1770,l),
(829,1770,o),
(695,1640,o),
(657,1467,c),
(688,1486,l),
(642,1506,o),
(587,1516,o),
(518,1516,cs),
(161,1516,o),
(60,1330,o),
(60,954,cs),
(60,492,ls),
(60,158,o),
(187,-16,o),
(523,-16,cs)
);
}
);
width = 1049;
}
);
leftKerningGroup = o;
rightKerningGroup = c;
unicode = 392;
},
{
glyphname = circumflex;
layers = (
{
anchors = (
{
name = _top;
position = "{485, 1500}";
}
);
background = {
shapes = (
{
closed = 1;
nodes = (
(399,1591,l),
(485,1876,l),
(571,1591,l),
(930,1591,l),
(689,1994,l),
(281,1994,l),
(40,1591,l)
);
}
);
};
layerId = "740CAC0B-92FD-4184-A3FF-9D0096FD1E3F";
shapes = (
{
closed = 1;
nodes = (
(399,1591,l),
(485,1876,l),
(571,1591,l),
(930,1591,l),
(689,1994,l),
(281,1994,l),
(40,1591,l)
);
}
);
width = 970;
}
);
unicode = 710;
},
{
glyphname = circumflexbelowcomb;
layers = (
{
anchors = (
{
name = _bottom;
position = "{0, 0}";
},
{
name = bottom;
position = "{0, -505}";
}
);
layerId = "740CAC0B-92FD-4184-A3FF-9D0096FD1E3F";
shapes = (
{
closed = 1;
nodes = (
(-86,-512,l),
(0,-227,l),
(86,-512,l),
(445,-512,l),
(204,-109,l),
(-204,-109,l),
(-445,-512,l)
);
}
);
width = 0;
}
);
unicode = 813;
},
{
glyphname = circumflexcomb;
layers = (
{
anchors = (
{
name = _top;
position = "{0, 1500}";
},
{
name = top_case;
position = "{0, 1996}";
}
);
layerId = "740CAC0B-92FD-4184-A3FF-9D0096FD1E3F";
shapes = (
{
closed = 1;
nodes = (
(-86,1591,l),
(0,1876,l),
(86,1591,l),
(445,1591,l),
(204,1994,l),
(-204,1994,l),
(-445,1591,l)
);
}
);
width = 0;
}
);
unicode = 770;
},
{
glyphname = circumflexcomb.case;
layers = (
{
anchors = (
{
name = _top_comb;
position = "{0, 1500}";
},
{
name = top_comb;
position = "{0, 1994}";
}
);
layerId = "F0D60C8C-C9E5-4BC7-A661-23336F811DD2";
associatedMasterId = "740CAC0B-92FD-4184-A3FF-9D0096FD1E3F";
name = "Regular Jul 5 16, 00:07";
shapes = (
{
closed = 1;
nodes = (
(-445,1591,l),
(-86,1591,l),
(0,1876,l),
(86,1591,l),
(445,1591,l),
(204,1994,l),
(-204,1994,l)
);
}
);
width = 0;
},
{
anchors = (
{
name = _top_case;
position = "{0, 1500}";
},
{
name = top_case;
position = "{0, 1972}";
}
);
background = {
shapes = (
{
closed = 1;
nodes = (
(-86,1601,l),
(0,1816,l),
(86,1601,l),
(445,1601,l),
(204,1934,l),
(-204,1934,l),
(-445,1601,l)
);
}
);
};
layerId = "740CAC0B-92FD-4184-A3FF-9D0096FD1E3F";
shapes = (
{
closed = 1;
nodes = (
(-86,1601,l),
(0,1816,l),
(86,1601,l),
(445,1601,l),
(204,1934,l),
(-204,1934,l),
(-445,1601,l)
);
}
);
width = 0;
}
);
},
{
glyphname = circumflexcomb_acutecomb;
layers = (
{
anchors = (
{
name = _top_case;
position = "{0, 1500}";
}
);
layerId = "944BAA55-5C94-4AB1-8843-AB61B10D19D9";
associatedMasterId = "740CAC0B-92FD-4184-A3FF-9D0096FD1E3F";
name = "Regular Jul 25 16, 00:21";
shapes = (
{
closed = 1;
nodes = (
(-90,1591,l),
(0,1786,l),
(90,1591,l),
(445,1591,l),
(204,1894,l),
(-204,1894,l),
(-445,1591,l)
);
},
{
closed = 1;
nodes = (
(237,2028,l),
(237,2315,l),
(-238,2127,l),
(-238,1964,l)
);
}
);
width = 0;
},
{
anchors = (
{
name = _top_viet;
position = "{0, 1500}";
}
);
layerId = "13FB1DCE-413A-42B2-8B83-8720BA6C94AF";
associatedMasterId = "740CAC0B-92FD-4184-A3FF-9D0096FD1E3F";
name = "Regular Jul 24 16, 23:24";
shapes = (
{
closed = 1;
nodes = (
(-86,1591,l),
(0,1876,l),
(86,1591,l),
(445,1591,l),
(204,1994,l),
(-204,1994,l),
(-445,1591,l)
);
},
{
closed = 1;
nodes = (
(237,2147,l),
(237,2494,l),
(-238,2276,l),
(-238,2053,l)
);
}
);
width = 0;
},
{
anchors = (
{
name = _top_case;
position = "{0, 1500}";
},
{
name = top;
position = "{0, 2127}";
}
);
layerId = "740CAC0B-92FD-4184-A3FF-9D0096FD1E3F";
shapes = (
{
closed = 1;
nodes = (
(-90,1591,l),
(0,1786,l),
(90,1591,l),
(445,1591,l),
(204,1894,l),
(-204,1894,l),
(-445,1591,l)
);
},
{
closed = 1;
nodes = (
(547,1832,l),
(785,2127,l),
(478,2127,l),
(314,1832,l)
);
}
);
width = 0;
}
);
},
{
glyphname = circumflexcomb_acutecomb.case;
layers = (
{
anchors = (
{
name = _top_case;
position = "{0, 1500}";
}
);
layerId = "944BAA55-5C94-4AB1-8843-AB61B10D19D9";
associatedMasterId = "740CAC0B-92FD-4184-A3FF-9D0096FD1E3F";
name = "Regular Jul 25 16, 00:21";
shapes = (
{
closed = 1;
nodes = (
(-90,1591,l),
(0,1786,l),
(90,1591,l),
(445,1591,l),
(204,1894,l),
(-204,1894,l),
(-445,1591,l)
);
},
{
closed = 1;
nodes = (
(237,2028,l),
(237,2315,l),
(-238,2127,l),
(-238,1964,l)
);
}
);
width = 0;
},
{
anchors = (
{
name = _top_viet;
position = "{0, 1500}";
}
);
layerId = "13FB1DCE-413A-42B2-8B83-8720BA6C94AF";
associatedMasterId = "740CAC0B-92FD-4184-A3FF-9D0096FD1E3F";
name = "Regular Jul 24 16, 23:24";
shapes = (
{
closed = 1;
nodes = (
(-86,1591,l),
(0,1876,l),
(86,1591,l),
(445,1591,l),
(204,1994,l),
(-204,1994,l),
(-445,1591,l)
);
},
{
closed = 1;
nodes = (
(237,2147,l),
(237,2494,l),
(-238,2276,l),
(-238,2053,l)
);
}
);
width = 0;
},
{
layerId = "906AAB67-363E-468D-9A5D-809DF0576ACD";
associatedMasterId = "740CAC0B-92FD-4184-A3FF-9D0096FD1E3F";
name = Layer2;
shapes = (
{
alignment = -1;
ref = circumflexcomb;
},
{
ref = acutecomb;
}
);
width = 600;
},
{
anchors = (
{
name = _top_case;
position = "{0, 1760}";
},
{
name = top;
position = "{0, 2204}";
}
);
layerId = "740CAC0B-92FD-4184-A3FF-9D0096FD1E3F";
shapes = (
{
closed = 1;
nodes = (
(-99,1839,l),
(0,1974,l),
(99,1839,l),
(384,1839,l),
(147,2093,l),
(-147,2093,l),
(-384,1839,l)
);
},
{
closed = 1;
nodes = (
(522,2000,l),
(710,2204,l),
(403,2204,l),
(289,2000,l)
);
}
);
width = 0;
}
);
},
{
glyphname = circumflexcomb_gravecomb;
layers = (
{
anchors = (
{
name = _top_case;
position = "{0, 1500}";
}
);
layerId = "27352CD5-5429-48C4-BC1D-C17E3E8EE4F5";
associatedMasterId = "740CAC0B-92FD-4184-A3FF-9D0096FD1E3F";
name = "Regular Jul 24 16, 23:32";
shapes = (
{
closed = 1;
nodes = (
(-86,1591,l),
(0,1876,l),
(86,1591,l),
(445,1591,l),
(204,1994,l),
(-204,1994,l),
(-445,1591,l)
);
},
{
closed = 1;
nodes = (
(237,1776,l),
(-238,1994,l),
(-238,1647,l),
(237,1553,l)
);
}
);
width = 0;
},
{
anchors = (
{
name = _top_case;
position = "{0, 1500}";
},
{
name = top;
position = "{0, 2127}";
}
);
layerId = "740CAC0B-92FD-4184-A3FF-9D0096FD1E3F";
shapes = (
{
closed = 1;
nodes = (
(-90,1591,l),
(0,1786,l),
(90,1591,l),
(445,1591,l),
(204,1894,l),
(-204,1894,l),
(-445,1591,l)
);
},
{
closed = 1;
nodes = (
(605,1832,l),
(441,2127,l),
(134,2127,l),
(372,1832,l)
);
}
);
width = 0;
}
);
},
{
glyphname = circumflexcomb_gravecomb.case;
layers = (
{
anchors = (
{
name = _top_case;
position = "{0, 1500}";
}
);
layerId = "27352CD5-5429-48C4-BC1D-C17E3E8EE4F5";
associatedMasterId = "740CAC0B-92FD-4184-A3FF-9D0096FD1E3F";
name = "Regular Jul 24 16, 23:32";
shapes = (
{
closed = 1;
nodes = (
(-86,1591,l),
(0,1876,l),
(86,1591,l),
(445,1591,l),
(204,1994,l),
(-204,1994,l),
(-445,1591,l)
);
},
{
closed = 1;
nodes = (
(237,1776,l),
(-238,1994,l),
(-238,1647,l),
(237,1553,l)
);
}
);
width = 0;
},
{
layerId = "906AAB67-363E-468D-9A5D-809DF0576ACD";
associatedMasterId = "740CAC0B-92FD-4184-A3FF-9D0096FD1E3F";
name = Layer2;
shapes = (
{
alignment = -1;
ref = circumflexcomb;
},
{
ref = gravecomb;
}
);
width = 600;
},
{
anchors = (
{
name = _top_case;
position = "{0, 1760}";
},
{
name = top;
position = "{0, 2204}";
}
);
layerId = "740CAC0B-92FD-4184-A3FF-9D0096FD1E3F";
shapes = (
{
closed = 1;
nodes = (
(-99,1839,l),
(0,1974,l),
(99,1839,l),
(384,1839,l),
(147,2093,l),
(-147,2093,l),
(-384,1839,l)
);
},
{
closed = 1;
nodes = (
(589,2000,l),
(475,2204,l),
(168,2204,l),
(356,2000,l)
);
}
);
width = 0;
}
);
},
{
glyphname = circumflexcomb_hookabovecomb;
layers = (
{
anchors = (
{
name = _top_case;
position = "{0, 1500}";
}
);
layerId = "5EB473A4-93B9-433F-9B4A-E9BEA5CF80CF";
associatedMasterId = "740CAC0B-92FD-4184-A3FF-9D0096FD1E3F";
name = "Regular Jul 25 16, 00:29";
shapes = (
{
closed = 1;
nodes = (
(-90,1591,l),
(0,1786,l),
(90,1591,l),
(395,1591,l),
(174,1904,l),
(-174,1904,l),
(-395,1591,l)
);
},
{
closed = 1;
nodes = (
(506,1786,l),
(506,1861,l),
(613,1878,o),
(703,1955,o),
(703,2105,cs),
(703,2255,o),
(601,2343,o),
(427,2343,cs),
(356,2343,o),
(290,2332,o),
(224,2310,c),
(224,2130,l),
(252,2140,o),
(286,2146,o),
(321,2146,cs),
(400,2146,o),
(445,2111,o),
(445,2041,cs),
(445,1955,o),
(385,1921,o),
(295,1921,c),
(295,1786,l)
);
}
);
width = 0;
},
{
anchors = (
{
name = _top;
position = "{0, 1500}";
},
{
name = top_case;
position = "{0, 1978}";
}
);
layerId = "4047EE9D-D58A-43DA-AC84-A037707A6645";
associatedMasterId = "740CAC0B-92FD-4184-A3FF-9D0096FD1E3F";
name = "Regular Jul 24 16, 23:38";
shapes = (
{
closed = 1;
nodes = (
(601,1869,l),
(601,1985,l),
(744,2005,o),
(865,2091,o),
(865,2259,cs),
(865,2418,o),
(729,2530,o),
(537,2530,cs),
(462,2530,o),
(389,2519,o),
(319,2497,c),
(319,2274,l),
(348,2284,o),
(384,2290,o),
(420,2290,cs),
(503,2290,o),
(550,2252,o),
(550,2175,cs),
(550,2082,o),
(481,2045,o),
(390,2045,c),
(390,1869,l)
);
},
{
closed = 1;
nodes = (
(-86,1591,l),
(0,1876,l),
(86,1591,l),
(445,1591,l),
(204,1994,l),
(-204,1994,l),
(-445,1591,l)
);
}
);
width = 0;
},
{
anchors = (
{
name = _top_case;
position = "{0, 1500}";
},
{
name = top;
position = "{0, 2343}";
}
);
layerId = "740CAC0B-92FD-4184-A3FF-9D0096FD1E3F";
shapes = (
{
closed = 1;
nodes = (
(-90,1591,l),
(0,1786,l),
(90,1591,l),
(395,1591,l),
(174,1904,l),
(-174,1904,l),
(-395,1591,l)
);
},
{
closed = 1;
nodes = (
(361,1797,l),
(515,1845,o),
(633,1935,o),
(633,2105,cs),
(633,2255,o),
(534,2343,o),
(367,2343,cs),
(303,2343,o),
(240,2331,o),
(184,2310,c),
(184,2130,l),
(211,2140,o),
(242,2146,o),
(274,2146,cs),
(338,2146,o),
(375,2114,o),
(375,2051,cs),
(375,1984,o),
(327,1948,o),
(255,1921,c)
);
}
);
width = 0;
}
);
},
{
glyphname = circumflexcomb_hookabovecomb.case;
layers = (
{
anchors = (
{
name = _top_case;
position = "{0, 1500}";
}
);
layerId = "5EB473A4-93B9-433F-9B4A-E9BEA5CF80CF";
associatedMasterId = "740CAC0B-92FD-4184-A3FF-9D0096FD1E3F";
name = "Regular Jul 25 16, 00:29";
shapes = (
{
closed = 1;
nodes = (
(-90,1591,l),
(0,1786,l),
(90,1591,l),
(395,1591,l),
(174,1904,l),
(-174,1904,l),
(-395,1591,l)
);
},
{
closed = 1;
nodes = (
(506,1786,l),
(506,1861,l),
(613,1878,o),
(703,1955,o),
(703,2105,cs),
(703,2255,o),
(601,2343,o),
(427,2343,cs),
(356,2343,o),
(290,2332,o),
(224,2310,c),
(224,2130,l),
(252,2140,o),
(286,2146,o),
(321,2146,cs),
(400,2146,o),
(445,2111,o),
(445,2041,cs),
(445,1955,o),
(385,1921,o),
(295,1921,c),
(295,1786,l)
);
}
);
width = 0;
},
{
anchors = (
{
name = _top;
position = "{0, 1500}";
},
{
name = top_case;
position = "{0, 1978}";
}
);
layerId = "4047EE9D-D58A-43DA-AC84-A037707A6645";
associatedMasterId = "740CAC0B-92FD-4184-A3FF-9D0096FD1E3F";
name = "Regular Jul 24 16, 23:38";
shapes = (
{
closed = 1;
nodes = (
(601,1869,l),
(601,1985,l),
(744,2005,o),
(865,2091,o),
(865,2259,cs),
(865,2418,o),
(729,2530,o),
(537,2530,cs),
(462,2530,o),
(389,2519,o),
(319,2497,c),
(319,2274,l),
(348,2284,o),
(384,2290,o),
(420,2290,cs),
(503,2290,o),
(550,2252,o),
(550,2175,cs),
(550,2082,o),
(481,2045,o),
(390,2045,c),
(390,1869,l)
);
},
{
closed = 1;
nodes = (
(-86,1591,l),
(0,1876,l),
(86,1591,l),
(445,1591,l),
(204,1994,l),
(-204,1994,l),
(-445,1591,l)
);
}
);
width = 0;
},
{
layerId = "906AAB67-363E-468D-9A5D-809DF0576ACD";
associatedMasterId = "740CAC0B-92FD-4184-A3FF-9D0096FD1E3F";
name = Layer2;
shapes = (
{
alignment = -1;
ref = circumflexcomb;
},
{
ref = hookabovecomb;
}
);
width = 600;
},
{
anchors = (
{
name = _top_case;
position = "{0, 1760}";
},
{
name = top;
position = "{0, 2299}";
}
);
layerId = "740CAC0B-92FD-4184-A3FF-9D0096FD1E3F";
shapes = (
{
closed = 1;
nodes = (
(-99,1839,l),
(0,1974,l),
(99,1839,l),
(384,1839,l),
(147,2093,l),
(-147,2093,l),
(-384,1839,l)
);
},
{
closed = 1;
nodes = (
(370,1959,l),
(466,1989,o),
(539,2045,o),
(539,2151,cs),
(539,2244,o),
(477,2299,o),
(374,2299,cs),
(334,2299,o),
(295,2291,o),
(260,2278,c),
(260,2166,l),
(277,2172,o),
(296,2176,o),
(316,2176,cs),
(356,2176,o),
(379,2156,o),
(379,2117,cs),
(379,2076,o),
(349,2053,o),
(304,2036,c)
);
}
);
width = 0;
}
);
},
{
glyphname = circumflexcomb_tildecomb;
layers = (
{
anchors = (
{
name = _top_case;
position = "{0, 1500}";
}
);
layerId = "1341D155-C2EC-4982-B31A-0BCD3A74F076";
associatedMasterId = "740CAC0B-92FD-4184-A3FF-9D0096FD1E3F";
name = "Regular Jul 24 16, 23:44";
shapes = (
{
closed = 1;
nodes = (
(-86,1591,l),
(0,1876,l),
(86,1591,l),
(445,1591,l),
(204,1994,l),
(-204,1994,l),
(-445,1591,l)
);
},
{
closed = 1;
nodes = (
(315,2051,o),
(364,2177,o),
(413,2312,c),
(247,2366,l),
(220,2311,o),
(190,2291,o),
(154,2291,cs),
(78,2291,o),
(-24,2375,o),
(-166,2375,cs),
(-309,2375,o),
(-364,2273,o),
(-413,2152,c),
(-265,2074,l),
(-239,2125,o),
(-208,2142,o),
(-173,2142,cs),
(-92,2142,o),
(16,2051,o),
(165,2051,cs)
);
}
);
width = 0;
},
{
anchors = (
{
name = _top;
position = "{0, 1500}";
},
{
name = _top_case;
position = "{0, 1500}";
},
{
name = top;
position = "{0, 2280}";
}
);
layerId = "740CAC0B-92FD-4184-A3FF-9D0096FD1E3F";
shapes = (
{
closed = 1;
nodes = (
(-90,1591,l),
(0,1786,l),
(90,1591,l),
(445,1591,l),
(204,1894,l),
(-204,1894,l),
(-445,1591,l)
);
},
{
closed = 1;
nodes = (
(315,1969,o),
(364,2085,o),
(413,2210,c),
(247,2264,l),
(214,2209,o),
(185,2189,o),
(135,2189,cs),
(29,2189,o),
(-59,2280,o),
(-183,2280,cs),
(-316,2280,o),
(-367,2184,o),
(-413,2070,c),
(-265,1992,l),
(-233,2043,o),
(-196,2060,o),
(-153,2060,cs),
(-48,2060,o),
(45,1969,o),
(165,1969,cs)
);
}
);
width = 0;
}
);
},
{
glyphname = circumflexcomb_tildecomb.case;
layers = (
{
anchors = (
{
name = _top_case;
position = "{0, 1500}";
}
);
layerId = "1341D155-C2EC-4982-B31A-0BCD3A74F076";
associatedMasterId = "740CAC0B-92FD-4184-A3FF-9D0096FD1E3F";
name = "Regular Jul 24 16, 23:44";
shapes = (
{
closed = 1;
nodes = (
(-86,1591,l),
(0,1876,l),
(86,1591,l),
(445,1591,l),
(204,1994,l),
(-204,1994,l),
(-445,1591,l)
);
},
{
closed = 1;
nodes = (
(315,2051,o),
(364,2177,o),
(413,2312,c),
(247,2366,l),
(220,2311,o),
(190,2291,o),
(154,2291,cs),
(78,2291,o),
(-24,2375,o),
(-166,2375,cs),
(-309,2375,o),
(-364,2273,o),
(-413,2152,c),
(-265,2074,l),
(-239,2125,o),
(-208,2142,o),
(-173,2142,cs),
(-92,2142,o),
(16,2051,o),
(165,2051,cs)
);
}
);
width = 0;
},
{
layerId = "906AAB67-363E-468D-9A5D-809DF0576ACD";
associatedMasterId = "740CAC0B-92FD-4184-A3FF-9D0096FD1E3F";
name = Layer2;
shapes = (
{
alignment = -1;
ref = circumflexcomb;
},
{
ref = tildecomb;
}
);
width = 600;
},
{
anchors = (
{
name = _top_case;
position = "{0, 1760}";
},
{
name = top;
position = "{0, 2375}";
}
);
layerId = "740CAC0B-92FD-4184-A3FF-9D0096FD1E3F";
shapes = (
{
closed = 1;
nodes = (
(-99,1839,l),
(0,1974,l),
(99,1839,l),
(384,1839,l),
(147,2093,l),
(-147,2093,l),
(-384,1839,l)
);
},
{
closed = 1;
nodes = (
(233,2142,o),
(270,2229,o),
(307,2323,c),
(182,2363,l),
(157,2322,o),
(135,2307,o),
(98,2307,cs),
(18,2307,o),
(-48,2375,o),
(-141,2375,cs),
(-241,2375,o),
(-279,2303,o),
(-314,2217,c),
(-203,2159,l),
(-179,2197,o),
(-151,2210,o),
(-119,2210,cs),
(-40,2210,o),
(30,2142,o),
(120,2142,cs)
);
}
);
width = 0;
}
);
},
{
glyphname = clickalveolar;
layers = (
{
layerId = "740CAC0B-92FD-4184-A3FF-9D0096FD1E3F";
shapes = (
{
closed = 1;
nodes = (
(513,-186,l),
(513,348,l),
(693,348,l),
(693,644,l),
(513,644,l),
(513,938,l),
(693,938,l),
(693,1234,l),
(513,1234,l),
(513,1760,l),
(173,1760,l),
(173,1234,l),
(-10,1234,l),
(-10,938,l),
(173,938,l),
(173,644,l),
(-10,644,l),
(-10,348,l),
(173,348,l),
(173,-186,l)
);
}
);
width = 683;
}
);
unicode = 450;
},
{
glyphname = clickdental;
layers = (
{
layerId = "740CAC0B-92FD-4184-A3FF-9D0096FD1E3F";
shapes = (
{
closed = 1;
nodes = (
(402,-186,l),
(402,1760,l),
(62,1760,l),
(62,-186,l)
);
}
);
width = 464;
}
);
unicode = 448;
},
{
glyphname = clicklateral;
layers = (
{
layerId = "740CAC0B-92FD-4184-A3FF-9D0096FD1E3F";
shapes = (
{
closed = 1;
nodes = (
(402,-186,l),
(402,1760,l),
(62,1760,l),
(62,-186,l)
);
},
{
closed = 1;
nodes = (
(942,-186,l),
(942,1760,l),
(602,1760,l),
(602,-186,l)
);
}
);
width = 1004;
}
);
unicode = 449;
},
{
glyphname = colon;
layers = (
{
background = {
shapes = (
{
closed = 1;
nodes = (
(426,976,l),
(426,1274,l),
(68,1274,l),
(68,976,l)
);
},
{
closed = 1;
nodes = (
(426,237,l),
(426,535,l),
(68,535,l),
(68,237,l)
);
}
);
};
layerId = "740CAC0B-92FD-4184-A3FF-9D0096FD1E3F";
shapes = (
{
closed = 1;
nodes = (
(426,976,l),
(426,1274,l),
(68,1274,l),
(68,976,l)
);
},
{
closed = 1;
nodes = (
(426,237,l),
(426,535,l),
(68,535,l),
(68,237,l)
);
}
);
width = 495;
}
);
unicode = 58;
},
{
glyphname = colonsign;
layers = (
{
layerId = "F6B69E15-BC16-4C2B-B02D-E9B5AD210BFE";
associatedMasterId = "740CAC0B-92FD-4184-A3FF-9D0096FD1E3F";
name = "Condensed Jul 1 16, 14:07";
shapes = (
{
closed = 1;
nodes = (
(454,408,ls),
(454,332,o),
(473,288,o),
(528,288,cs),
(582,288,o),
(604,336,o),
(604,408,cs),
(604,682,l),
(925,682,l),
(925,381,ls),
(925,103,o),
(777,-21,o),
(530,-21,cs),
(294,-21,o),
(138,134,o),
(138,391,cs),
(138,1129,ls),
(138,1437,o),
(256,1600,o),
(538,1600,cs),
(758,1600,o),
(918,1482,o),
(918,1232,cs),
(918,952,l),
(604,952,l),
(604,1136,ls),
(604,1230,o),
(588,1280,o),
(530,1280,cs),
(465,1280,o),
(454,1231,o),
(454,1161,cs)
);
},
{
closed = 1;
nodes = (
(708,1679,l),
(298,-113,l),
(223,-113,l),
(633,1679,l)
);
},
{
closed = 1;
nodes = (
(848,1679,l),
(438,-113,l),
(363,-113,l),
(773,1679,l)
);
}
);
width = 971;
},
{
background = {
shapes = (
{
closed = 1;
nodes = (
(767,-21,o),
(915,103,o),
(915,381,cs),
(915,682,l),
(654,682,l),
(654,408,ls),
(654,301,o),
(615,228,o),
(518,228,cs),
(418,228,o),
(384,294,o),
(384,408,cs),
(384,1161,ls),
(384,1267,o),
(404,1340,o),
(520,1340,cs),
(624,1340,o),
(654,1270,o),
(654,1136,cs),
(654,952,l),
(908,952,l),
(908,1232,ls),
(908,1482,o),
(748,1600,o),
(528,1600,cs),
(246,1600,o),
(128,1437,o),
(128,1129,cs),
(128,391,ls),
(128,134,o),
(284,-21,o),
(520,-21,cs)
);
},
{
closed = 1;
nodes = (
(278,-113,l),
(648,1679,l),
(543,1679,l),
(173,-113,l)
);
},
{
closed = 1;
nodes = (
(458,-113,l),
(828,1679,l),
(723,1679,l),
(353,-113,l)
);
}
);
};
layerId = "740CAC0B-92FD-4184-A3FF-9D0096FD1E3F";
shapes = (
{
closed = 1;
nodes = (
(767,-21,o),
(915,103,o),
(915,381,cs),
(915,682,l),
(654,682,l),
(654,408,ls),
(654,301,o),
(615,228,o),
(518,228,cs),
(418,228,o),
(384,294,o),
(384,408,cs),
(384,1161,ls),
(384,1267,o),
(404,1340,o),
(520,1340,cs),
(624,1340,o),
(654,1270,o),
(654,1136,cs),
(654,952,l),
(908,952,l),
(908,1232,ls),
(908,1482,o),
(748,1600,o),
(528,1600,cs),
(246,1600,o),
(128,1437,o),
(128,1129,cs),
(128,391,ls),
(128,134,o),
(284,-21,o),
(520,-21,cs)
);
},
{
closed = 1;
nodes = (
(278,-113,l),
(648,1679,l),
(543,1679,l),
(173,-113,l)
);
},
{
closed = 1;
nodes = (
(458,-113,l),
(828,1679,l),
(723,1679,l),
(353,-113,l)
);
}
);
width = 1042;
}
);
unicode = 8353;
},
{
glyphname = comma;
layers = (
{
anchors = (
{
name = _mid;
position = "{247, 131}";
}
);
background = {
shapes = (
{
closed = 1;
nodes = (
(327,-235,l),
(429,10,l),
(429,299,l),
(55,299,l),
(55,1,l),
(182,1,l),
(116,-235,l)
);
}
);
};
layerId = "740CAC0B-92FD-4184-A3FF-9D0096FD1E3F";
shapes = (
{
closed = 1;
nodes = (
(327,-235,l),
(429,10,l),
(429,299,l),
(55,299,l),
(55,1,l),
(182,1,l),
(116,-235,l)
);
}
);
width = 484;
}
);
unicode = 44;
},
{
glyphname = comma.dnom;
layers = (
{
anchors = (
{
name = _mid;
position = "{247, 118}";
}
);
layerId = "740CAC0B-92FD-4184-A3FF-9D0096FD1E3F";
shapes = (
{
closed = 1;
nodes = (
(299,-215,l),
(392,8,l),
(392,271,l),
(72,271,l),
(72,0,l),
(167,0,l),
(107,-215,l)
);
}
);
width = 464;
}
);
},
{
glyphname = comma.numr;
layers = (
{
layerId = "740CAC0B-92FD-4184-A3FF-9D0096FD1E3F";
shapes = (
{
closed = 1;
nodes = (
(299,926,l),
(392,1149,l),
(392,1412,l),
(72,1412,l),
(72,1141,l),
(167,1141,l),
(107,926,l)
);
}
);
width = 464;
}
);
},
{
glyphname = commaabovecomb;
layers = (
{
anchors = (
{
name = _top;
position = "{0, 1500}";
},
{
name = top;
position = "{0, 2190}";
}
);
layerId = "740CAC0B-92FD-4184-A3FF-9D0096FD1E3F";
shapes = (
{
closed = 1;
nodes = (
(187,1656,l),
(187,1954,l),
(60,1954,l),
(126,2190,l),
(-85,2190,l),
(-187,1945,l),
(-187,1656,l)
);
}
);
width = 0;
}
);
unicode = 787;
},
{
glyphname = commaaccentcomb;
layers = (
{
anchors = (
{
name = _bottom;
position = "{1, 0}";
},
{
name = bottom;
position = "{-12, -643}";
}
);
background = {
shapes = (
{
closed = 1;
nodes = (
(73,-643,l),
(175,-398,l),
(175,-109,l),
(-199,-109,l),
(-199,-407,l),
(-72,-407,l),
(-138,-643,l)
);
}
);
};
layerId = "740CAC0B-92FD-4184-A3FF-9D0096FD1E3F";
shapes = (
{
closed = 1;
nodes = (
(73,-643,l),
(175,-398,l),
(175,-109,l),
(-199,-109,l),
(-199,-407,l),
(-72,-407,l),
(-138,-643,l)
);
}
);
width = 0;
}
);
unicode = 806;
},
{
glyphname = commaaccentcomb.alt;
layers = (
{
anchors = (
{
name = _bottom;
position = "{313, 0}";
},
{
name = _top;
position = "{309, 1500}";
}
);
background = {
shapes = (
{
closed = 1;
nodes = (
(500,1725,l),
(500,2023,l),
(373,2023,l),
(439,2259,l),
(228,2259,l),
(126,2014,l),
(126,1725,l)
);
}
);
};
layerId = "740CAC0B-92FD-4184-A3FF-9D0096FD1E3F";
shapes = (
{
closed = 1;
nodes = (
(500,1725,l),
(500,2023,l),
(373,2023,l),
(439,2259,l),
(228,2259,l),
(126,2014,l),
(126,1725,l)
);
}
);
width = 600;
}
);
},
{
glyphname = commaaccentcomb.case;
layers = (
{
anchors = (
{
name = _bottom;
position = "{-12, 0}";
},
{
name = bottom;
position = "{-12, -643}";
}
);
layerId = "740CAC0B-92FD-4184-A3FF-9D0096FD1E3F";
shapes = (
{
closed = 1;
nodes = (
(73,-643,l),
(175,-398,l),
(175,-109,l),
(-199,-109,l),
(-199,-407,l),
(-72,-407,l),
(-138,-643,l)
);
}
);
width = 0;
}
);
},
{
glyphname = commaturnedabovecomb;
layers = (
{
anchors = (
{
name = _top;
position = "{0, 1500}";
},
{
name = top;
position = "{0, 2190}";
}
);
layerId = "740CAC0B-92FD-4184-A3FF-9D0096FD1E3F";
shapes = (
{
closed = 1;
nodes = (
(187,1656,l),
(187,1954,l),
(60,1954,l),
(126,2190,l),
(-85,2190,l),
(-187,1945,l),
(-187,1656,l)
);
}
);
width = 0;
}
);
unicode = 786;
},
{
glyphname = commaturnedabovecomb.case;
layers = (
{
anchors = (
{
name = _top;
position = "{0, 1760}";
},
{
name = top;
position = "{0, 2300}";
}
);
layerId = "740CAC0B-92FD-4184-A3FF-9D0096FD1E3F";
shapes = (
{
closed = 1;
nodes = (
(187,1766,l),
(187,2064,l),
(60,2064,l),
(126,2300,l),
(-85,2300,l),
(-187,2055,l),
(-187,1766,l)
);
}
);
width = 0;
}
);
},
{
glyphname = commaturnedmod;
layers = (
{
layerId = "740CAC0B-92FD-4184-A3FF-9D0096FD1E3F";
shapes = (
{
closed = 1;
nodes = (
(478,966,l),
(478,1264,l),
(351,1264,l),
(417,1500,l),
(206,1500,l),
(104,1255,l),
(104,966,l)
);
}
);
width = 600;
}
);
unicode = 699;
},
{
glyphname = commercialMinusSign;
layers = (
{
layerId = "740CAC0B-92FD-4184-A3FF-9D0096FD1E3F";
shapes = (
{
closed = 1;
nodes = (
(363,1462,l),
(363,1760,l),
(55,1760,l),
(55,1462,l)
);
},
{
closed = 1;
nodes = (
(925,0,l),
(925,298,l),
(617,298,l),
(617,0,l)
);
},
{
alignment = -1;
pos = (130,0);
ref = divisionslash;
}
);
width = 980;
}
);
unicode = 8274;
},
{
glyphname = copyright;
layers = (
{
background = {
shapes = (
{
closed = 1;
nodes = (
(1064,205,o),
(1348,489,o),
(1348,862,cs),
(1348,1235,o),
(1064,1519,o),
(691,1519,cs),
(318,1519,o),
(34,1235,o),
(34,862,cs),
(34,489,o),
(318,205,o),
(691,205,cs)
);
},
{
closed = 1;
nodes = (
(402,334,o),
(193,571,o),
(193,862,cs),
(193,1153,o),
(402,1390,o),
(691,1390,cs),
(980,1390,o),
(1189,1153,o),
(1189,862,cs),
(1189,571,o),
(980,334,o),
(691,334,cs)
);
},
{
closed = 1;
nodes = (
(847,424,o),
(928,497,o),
(928,643,cs),
(928,806,l),
(735,806,l),
(735,657,ls),
(735,614,o),
(720,592,o),
(689,592,cs),
(661,592,o),
(645,627,o),
(645,657,cs),
(645,1066,ls),
(645,1104,o),
(652,1130,o),
(689,1130,cs),
(720,1130,o),
(735,1104,o),
(735,1053,cs),
(735,952,l),
(924,952,l),
(924,1105,ls),
(924,1239,o),
(823,1305,o),
(689,1305,cs),
(524,1305,o),
(455,1217,o),
(455,1049,cs),
(455,648,ls),
(455,507,o),
(546,424,o),
(685,424,cs)
);
}
);
};
layerId = "740CAC0B-92FD-4184-A3FF-9D0096FD1E3F";
shapes = (
{
closed = 1;
nodes = (
(1064,205,o),
(1348,489,o),
(1348,862,cs),
(1348,1235,o),
(1064,1519,o),
(691,1519,cs),
(318,1519,o),
(34,1235,o),
(34,862,cs),
(34,489,o),
(318,205,o),
(691,205,cs)
);
},
{
closed = 1;
nodes = (
(402,334,o),
(193,571,o),
(193,862,cs),
(193,1153,o),
(402,1390,o),
(691,1390,cs),
(980,1390,o),
(1189,1153,o),
(1189,862,cs),
(1189,571,o),
(980,334,o),
(691,334,cs)
);
},
{
closed = 1;
nodes = (
(847,424,o),
(928,497,o),
(928,643,cs),
(928,806,l),
(735,806,l),
(735,657,ls),
(735,614,o),
(720,592,o),
(689,592,cs),
(661,592,o),
(645,627,o),
(645,657,cs),
(645,1066,ls),
(645,1104,o),
(652,1130,o),
(689,1130,cs),
(720,1130,o),
(735,1104,o),
(735,1053,cs),
(735,952,l),
(924,952,l),
(924,1105,ls),
(924,1239,o),
(823,1305,o),
(689,1305,cs),
(524,1305,o),
(455,1217,o),
(455,1049,cs),
(455,648,ls),
(455,507,o),
(546,424,o),
(685,424,cs)
);
}
);
width = 1382;
}
);
unicode = 169;
},
{
glyphname = cstroke;
layers = (
{
layerId = "740CAC0B-92FD-4184-A3FF-9D0096FD1E3F";
shapes = (
{
closed = 1;
nodes = (
(341,-186,l),
(448,225,l),
(308,225,l),
(201,-186,l)
);
},
{
closed = 1;
nodes = (
(749,1376,l),
(846,1760,l),
(706,1760,l),
(609,1376,l)
);
},
{
alignment = -1;
ref = c;
}
);
width = 1006;
}
);
leftKerningGroup = o;
rightKerningGroup = c;
unicode = 572;
},
{
glyphname = currency;
layers = (
{
background = {
shapes = (
{
closed = 1;
nodes = (
(283,598,l),
(344,563,o),
(416,545,o),
(499,545,cs),
(581,545,o),
(653,562,o),
(715,597,c),
(804,509,l),
(954,658,l),
(864,748,l),
(900,813,o),
(918,885,o),
(918,964,cs),
(918,1043,o),
(900,1114,o),
(864,1179,c),
(954,1269,l),
(804,1418,l),
(717,1331,l),
(652,1367,o),
(579,1385,o),
(499,1385,cs),
(418,1385,o),
(346,1367,o),
(281,1330,c),
(194,1418,l),
(45,1268,l),
(135,1178,l),
(100,1113,o),
(83,1042,o),
(83,964,cs),
(83,887,o),
(101,815,o),
(136,750,c),
(45,659,l),
(194,509,l)
);
},
{
closed = 1;
nodes = (
(372,741,o),
(291,840,o),
(291,964,cs),
(291,1087,o),
(373,1186,o),
(499,1186,cs),
(628,1186,o),
(708,1092,o),
(708,966,cs),
(708,842,o),
(626,741,o),
(499,741,cs)
);
}
);
};
layerId = "740CAC0B-92FD-4184-A3FF-9D0096FD1E3F";
shapes = (
{
closed = 1;
nodes = (
(283,598,l),
(344,563,o),
(416,545,o),
(499,545,cs),
(581,545,o),
(653,562,o),
(715,597,c),
(804,509,l),
(954,658,l),
(864,748,l),
(900,813,o),
(918,885,o),
(918,964,cs),
(918,1043,o),
(900,1114,o),
(864,1179,c),
(954,1269,l),
(804,1418,l),
(717,1331,l),
(652,1367,o),
(579,1385,o),
(499,1385,cs),
(418,1385,o),
(346,1367,o),
(281,1330,c),
(194,1418,l),
(45,1268,l),
(135,1178,l),
(100,1113,o),
(83,1042,o),
(83,964,cs),
(83,887,o),
(101,815,o),
(136,750,c),
(45,659,l),
(194,509,l)
);
},
{
closed = 1;
nodes = (
(372,741,o),
(291,840,o),
(291,964,cs),
(291,1087,o),
(373,1186,o),
(499,1186,cs),
(628,1186,o),
(708,1092,o),
(708,966,cs),
(708,842,o),
(626,741,o),
(499,741,cs)
);
}
);
width = 1000;
}
);
unicode = 164;
},
{
glyphname = d;
layers = (
{
anchors = (
{
name = bottom;
position = "{552, 0}";
},
{
name = caron.alt;
position = "{710, 1500}";
},
{
name = center;
position = "{510, 750}";
},
{
name = mid;
position = "{767, 1629}";
},
{
name = top;
position = "{769, 1760}";
}
);
background = {
shapes = (
{
closed = 1;
nodes = (
(591,1340,l),
(547,1450,o),
(477,1516,o),
(332,1516,cs),
(136,1516,o),
(64,1360,o),
(64,1129,cs),
(64,391,ls),
(64,160,o),
(156,-16,o),
(380,-16,cs),
(477,-16,o),
(547,41,o),
(591,160,c),
(591,0,l),
(959,0,l),
(959,1760,l),
(591,1760,l)
);
},
{
closed = 1;
nodes = (
(591,457,ls),
(591,349,o),
(584,263,o),
(501,263,cs),
(422,263,o),
(427,347,o),
(427,457,cs),
(427,1043,ls),
(427,1153,o),
(422,1237,o),
(501,1237,cs),
(584,1237,o),
(591,1151,o),
(591,1043,cs)
);
}
);
};
layerId = "740CAC0B-92FD-4184-A3FF-9D0096FD1E3F";
shapes = (
{
closed = 1;
nodes = (
(492,-16,o),
(550,51,o),
(590,159,c),
(590,0,l),
(954,0,l),
(954,1760,l),
(590,1760,l),
(590,1340,l),
(547,1450,o),
(477,1516,o),
(332,1516,cs),
(136,1516,o),
(62,1360,o),
(62,1129,cs),
(62,477,ls),
(62,201,o),
(90,-16,o),
(367,-16,cs)
);
},
{
closed = 1;
nodes = (
(447,264,o),
(418,327,o),
(418,452,cs),
(418,1083,ls),
(418,1160,o),
(429,1239,o),
(506,1239,cs),
(576,1239,o),
(590,1153,o),
(590,1083,cs),
(590,452,ls),
(590,311,o),
(572,264,o),
(504,264,cs)
);
}
);
width = 1020;
}
);
leftKerningGroup = d;
rightKerningGroup = l;
unicode = 100;
},
{
glyphname = d.sc;
layers = (
{
anchors = (
{
name = bottom;
position = "{505, 0}";
},
{
name = center;
position = "{505, 810}";
},
{
name = top_case;
position = "{505, 1590}";
}
);
layerId = "740CAC0B-92FD-4184-A3FF-9D0096FD1E3F";
shapes = (
{
closed = 1;
nodes = (
(551,0,ls),
(843,0,o),
(944,189,o),
(944,522,cs),
(944,1146,ls),
(944,1416,o),
(816,1560,o),
(563,1560,cs),
(78,1560,l),
(78,0,l)
);
},
{
closed = 1;
nodes = (
(432,1252,l),
(471,1252,ls),
(567,1252,o),
(590,1230,o),
(590,1113,cs),
(590,405,ls),
(590,342,o),
(556,311,o),
(493,311,cs),
(432,311,l)
);
}
);
width = 1010;
}
);
rightKerningGroup = o.sc;
},
{
glyphname = dagger;
layers = (
{
background = {
shapes = (
{
closed = 1;
nodes = (
(578,0,l),
(578,996,l),
(758,996,l),
(758,1292,l),
(578,1292,l),
(578,1592,l),
(214,1592,l),
(214,1292,l),
(31,1292,l),
(31,996,l),
(214,996,l),
(214,0,l)
);
}
);
};
layerId = "740CAC0B-92FD-4184-A3FF-9D0096FD1E3F";
shapes = (
{
closed = 1;
nodes = (
(578,0,l),
(578,996,l),
(758,996,l),
(758,1292,l),
(578,1292,l),
(578,1592,l),
(214,1592,l),
(214,1292,l),
(31,1292,l),
(31,996,l),
(214,996,l),
(214,0,l)
);
}
);
width = 789;
}
);
unicode = 8224;
},
{
glyphname = daggerdbl;
layers = (
{
background = {
shapes = (
{
closed = 1;
nodes = (
(587,0,l),
(587,350,l),
(767,350,l),
(767,646,l),
(587,646,l),
(587,940,l),
(767,940,l),
(767,1236,l),
(587,1236,l),
(587,1592,l),
(223,1592,l),
(223,1236,l),
(40,1236,l),
(40,940,l),
(223,940,l),
(223,646,l),
(40,646,l),
(40,350,l),
(223,350,l),
(223,0,l)
);
}
);
};
layerId = "740CAC0B-92FD-4184-A3FF-9D0096FD1E3F";
shapes = (
{
closed = 1;
nodes = (
(587,0,l),
(587,350,l),
(767,350,l),
(767,646,l),
(587,646,l),
(587,940,l),
(767,940,l),
(767,1236,l),
(587,1236,l),
(587,1592,l),
(223,1592,l),
(223,1236,l),
(40,1236,l),
(40,940,l),
(223,940,l),
(223,646,l),
(40,646,l),
(40,350,l),
(223,350,l),
(223,0,l)
);
}
);
width = 807;
}
);
unicode = 8225;
},
{
glyphname = dblgravecomb;
layers = (
{
anchors = (
{
name = _top;
position = "{0, 1500}";
}
);
background = {
shapes = (
{
closed = 1;
nodes = (
(-51,1644,l),
(-272,2123,l),
(-506,2015,l),
(-217,1586,l)
);
},
{
closed = 1;
nodes = (
(251,1644,l),
(67,2123,l),
(-163,2015,l),
(85,1586,l)
);
}
);
};
layerId = "740CAC0B-92FD-4184-A3FF-9D0096FD1E3F";
shapes = (
{
closed = 1;
nodes = (
(-31,1644,l),
(-252,2123,l),
(-486,2015,l),
(-197,1586,l)
);
},
{
closed = 1;
nodes = (
(271,1644,l),
(87,2123,l),
(-143,2015,l),
(105,1586,l)
);
}
);
width = 0;
}
);
unicode = 783;
},
{
glyphname = dblgravecomb.case;
layers = (
{
anchors = (
{
name = _top;
position = "{0, 1500}";
}
);
layerId = "740CAC0B-92FD-4184-A3FF-9D0096FD1E3F";
shapes = (
{
closed = 1;
nodes = (
(-31,1644,l),
(-252,2123,l),
(-486,2015,l),
(-197,1586,l)
);
},
{
closed = 1;
nodes = (
(271,1644,l),
(87,2123,l),
(-143,2015,l),
(105,1586,l)
);
}
);
width = 0;
}
);
},
{
glyphname = dcroat;
layers = (
{
layerId = "740CAC0B-92FD-4184-A3FF-9D0096FD1E3F";
shapes = (
{
closed = 1;
nodes = (
(1014,1532,l),
(1014,1685,l),
(367,1685,l),
(367,1532,l)
);
},
{
closed = 1;
nodes = (
(492,-16,o),
(550,51,o),
(590,159,c),
(590,0,l),
(954,0,l),
(954,1760,l),
(590,1760,l),
(590,1300,l),
(547,1410,o),
(477,1476,o),
(332,1476,cs),
(136,1476,o),
(62,1320,o),
(62,1089,cs),
(62,477,ls),
(62,201,o),
(90,-16,o),
(367,-16,cs)
);
},
{
closed = 1;
nodes = (
(447,264,o),
(418,327,o),
(418,452,cs),
(418,1043,ls),
(418,1120,o),
(429,1199,o),
(506,1199,cs),
(576,1199,o),
(590,1113,o),
(590,1043,cs),
(590,452,ls),
(590,311,o),
(572,264,o),
(504,264,cs)
);
}
);
width = 1020;
}
);
leftKerningGroup = d;
unicode = 273;
},
{
glyphname = degree;
layers = (
{
background = {
shapes = (
{
closed = 1;
nodes = (
(611,931,o),
(751,1058,o),
(751,1269,cs),
(751,1480,o),
(611,1607,o),
(397,1607,cs),
(183,1607,o),
(44,1480,o),
(44,1269,cs),
(44,1057,o),
(183,931,o),
(397,931,cs)
);
},
{
closed = 1;
nodes = (
(309,1112,o),
(256,1182,o),
(256,1269,cs),
(256,1356,o),
(309,1426,o),
(398,1426,cs),
(487,1426,o),
(540,1356,o),
(540,1269,cs),
(540,1182,o),
(487,1112,o),
(398,1112,cs)
);
}
);
};
layerId = "740CAC0B-92FD-4184-A3FF-9D0096FD1E3F";
shapes = (
{
closed = 1;
nodes = (
(611,931,o),
(751,1058,o),
(751,1269,cs),
(751,1480,o),
(611,1607,o),
(397,1607,cs),
(183,1607,o),
(44,1480,o),
(44,1269,cs),
(44,1057,o),
(183,931,o),
(397,931,cs)
);
},
{
closed = 1;
nodes = (
(309,1112,o),
(256,1182,o),
(256,1269,cs),
(256,1356,o),
(309,1426,o),
(398,1426,cs),
(487,1426,o),
(540,1356,o),
(540,1269,cs),
(540,1182,o),
(487,1112,o),
(398,1112,cs)
);
}
);
width = 796;
}
);
unicode = 176;
},
{
glyphname = dhook;
layers = (
{
background = {
shapes = (
{
closed = 1;
nodes = (
(492,-16,o),
(550,51,o),
(590,159,c),
(590,0,l),
(954,0,l),
(954,1268,l),
(590,1268,l),
(590,1340,l),
(547,1450,o),
(477,1516,o),
(332,1516,cs),
(136,1516,o),
(62,1360,o),
(62,1129,cs),
(62,477,ls),
(62,201,o),
(90,-16,o),
(367,-16,cs)
);
},
{
closed = 1;
nodes = (
(447,264,o),
(418,327,o),
(418,452,cs),
(418,1083,ls),
(418,1160,o),
(429,1239,o),
(506,1239,cs),
(576,1239,o),
(590,1153,o),
(590,1083,cs),
(590,452,ls),
(590,327,o),
(572,264,o),
(504,264,cs)
);
},
{
closed = 1;
nodes = (
(954,1268,l),
(954,1368,ls),
(954,1454,o),
(975,1500,o),
(1040,1500,c),
(1040,1776,l),
(689,1776,o),
(590,1630,o),
(590,1378,cs),
(590,1268,l)
);
}
);
};
layerId = "740CAC0B-92FD-4184-A3FF-9D0096FD1E3F";
shapes = (
{
closed = 1;
nodes = (
(492,-16,o),
(550,51,o),
(590,159,c),
(590,0,l),
(954,0,l),
(954,1368,ls),
(954,1454,o),
(975,1500,o),
(1040,1500,c),
(1040,1776,l),
(689,1776,o),
(590,1630,o),
(590,1378,cs),
(590,1295,l),
(601,1310,l),
(559,1438,o),
(490,1516,o),
(332,1516,cs),
(136,1516,o),
(62,1360,o),
(62,1129,cs),
(62,477,ls),
(62,201,o),
(90,-16,o),
(367,-16,cs)
);
},
{
closed = 1;
nodes = (
(447,264,o),
(418,327,o),
(418,452,cs),
(418,1083,ls),
(418,1160,o),
(429,1239,o),
(506,1239,cs),
(576,1239,o),
(590,1153,o),
(590,1083,cs),
(590,452,ls),
(590,327,o),
(572,264,o),
(504,264,cs)
);
}
);
width = 1020;
}
);
leftKerningGroup = d;
unicode = 599;
},
{
glyphname = dieresis;
layers = (
{
anchors = (
{
name = _top;
position = "{494, 1500}";
}
);
background = {
shapes = (
{
closed = 1;
nodes = (
(908,1599,l),
(908,1897,l),
(550,1897,l),
(550,1599,l)
);
},
{
closed = 1;
nodes = (
(424,1599,l),
(424,1897,l),
(66,1897,l),
(66,1599,l)
);
}
);
};
layerId = "740CAC0B-92FD-4184-A3FF-9D0096FD1E3F";
shapes = (
{
closed = 1;
nodes = (
(908,1599,l),
(908,1897,l),
(550,1897,l),
(550,1599,l)
);
},
{
closed = 1;
nodes = (
(424,1599,l),
(424,1897,l),
(66,1897,l),
(66,1599,l)
);
}
);
width = 976;
}
);
unicode = 168;
},
{
glyphname = dieresisbelowcomb;
layers = (
{
anchors = (
{
name = _bottom;
position = "{0, 0}";
},
{
name = bottom;
position = "{0, -417}";
}
);
layerId = "740CAC0B-92FD-4184-A3FF-9D0096FD1E3F";
shapes = (
{
closed = 1;
nodes = (
(421,-417,l),
(421,-119,l),
(63,-119,l),
(63,-417,l)
);
},
{
closed = 1;
nodes = (
(-63,-417,l),
(-63,-119,l),
(-421,-119,l),
(-421,-417,l)
);
}
);
width = 0;
}
);
unicode = 804;
},
{
glyphname = dieresisbelowcomb.case;
layers = (
{
anchors = (
{
name = _bottom;
position = "{0, 0}";
},
{
name = _top_case;
position = "{0, -566}";
},
{
name = bottom;
position = "{0, -467}";
},
{
name = top_case;
position = "{0, -169}";
}
);
layerId = "740CAC0B-92FD-4184-A3FF-9D0096FD1E3F";
shapes = (
{
closed = 1;
nodes = (
(421,-467,l),
(421,-219,l),
(63,-219,l),
(63,-467,l)
);
},
{
closed = 1;
nodes = (
(-63,-467,l),
(-63,-219,l),
(-421,-219,l),
(-421,-467,l)
);
}
);
width = 0;
}
);
},
{
glyphname = dieresiscomb;
layers = (
{
anchors = (
{
name = _top;
position = "{7, 1500}";
},
{
name = top;
position = "{0, 1897}";
}
);
layerId = "740CAC0B-92FD-4184-A3FF-9D0096FD1E3F";
shapes = (
{
closed = 1;
nodes = (
(421,1599,l),
(421,1897,l),
(63,1897,l),
(63,1599,l)
);
},
{
closed = 1;
nodes = (
(-63,1599,l),
(-63,1897,l),
(-421,1897,l),
(-421,1599,l)
);
}
);
width = 0;
}
);
unicode = 776;
},
{
glyphname = dieresiscomb.case;
layers = (
{
anchors = (
{
name = _top_case;
position = "{0, 1500}";
},
{
name = top_case;
position = "{0, 1897}";
}
);
layerId = "740CAC0B-92FD-4184-A3FF-9D0096FD1E3F";
shapes = (
{
closed = 1;
nodes = (
(421,1599,l),
(421,1847,l),
(63,1847,l),
(63,1599,l)
);
},
{
closed = 1;
nodes = (
(-63,1599,l),
(-63,1847,l),
(-421,1847,l),
(-421,1599,l)
);
}
);
width = 0;
}
);
},
{
glyphname = divide;
layers = (
{
background = {
shapes = (
{
closed = 1;
nodes = (
(650,638,l),
(650,870,l),
(34,870,l),
(34,638,l)
);
},
{
closed = 1;
nodes = (
(491,237,l),
(491,535,l),
(193,535,l),
(193,237,l)
);
},
{
closed = 1;
nodes = (
(491,976,l),
(491,1274,l),
(193,1274,l),
(193,976,l)
);
}
);
};
layerId = "740CAC0B-92FD-4184-A3FF-9D0096FD1E3F";
shapes = (
{
closed = 1;
nodes = (
(650,638,l),
(650,870,l),
(34,870,l),
(34,638,l)
);
},
{
closed = 1;
nodes = (
(491,237,l),
(491,535,l),
(193,535,l),
(193,237,l)
);
},
{
closed = 1;
nodes = (
(491,976,l),
(491,1274,l),
(193,1274,l),
(193,976,l)
);
}
);
width = 684;
}
);
unicode = 247;
},
{
glyphname = divisionslash;
layers = (
{
layerId = "740CAC0B-92FD-4184-A3FF-9D0096FD1E3F";
shapes = (
{
closed = 1;
nodes = (
(282,0,l),
(693,1760,l),
(439,1760,l),
(29,0,l)
);
}
);
width = 722;
}
);
unicode = 8725;
},
{
glyphname = dollar;
layers = (
{
background = {
shapes = (
{
closed = 1;
nodes = (
(557,-113,l),
(557,34,l),
(760,57,o),
(911,193,o),
(911,413,cs),
(911,559,o),
(842,677,o),
(760,758,cs),
(480,1034,ls),
(414,1099,o),
(381,1149,o),
(381,1182,cs),
(381,1228,o),
(419,1259,o),
(465,1259,cs),
(505,1259,o),
(544,1227,o),
(547,1190,c),
(549,1105,l),
(906,1105,l),
(906,1366,o),
(785,1532,o),
(557,1561,c),
(557,1679,l),
(384,1679,l),
(384,1558,l),
(203,1526,o),
(52,1392,o),
(52,1192,cs),
(52,1069,o),
(105,954,o),
(210,849,cs),
(498,560,l),
(539,514,o),
(560,479,o),
(560,456,cs),
(560,397,o),
(532,347,o),
(476,347,cs),
(413,347,o),
(382,398,o),
(382,501,cs),
(382,543,l),
(34,543,l),
(34,488,ls),
(34,208,o),
(133,65,o),
(384,36,c),
(384,-113,l)
);
}
);
};
layerId = "740CAC0B-92FD-4184-A3FF-9D0096FD1E3F";
shapes = (
{
closed = 1;
nodes = (
(557,-113,l),
(557,34,l),
(760,57,o),
(911,193,o),
(911,413,cs),
(911,559,o),
(842,677,o),
(760,758,cs),
(480,1034,ls),
(414,1099,o),
(381,1149,o),
(381,1182,cs),
(381,1228,o),
(409,1259,o),
(465,1259,cs),
(515,1259,o),
(549,1227,o),
(549,1170,cs),
(549,1105,l),
(906,1105,l),
(906,1366,o),
(785,1532,o),
(557,1561,c),
(557,1679,l),
(384,1679,l),
(384,1558,l),
(203,1526,o),
(52,1392,o),
(52,1192,cs),
(52,1069,o),
(105,954,o),
(210,849,cs),
(497,560,ls),
(540,516,o),
(560,479,o),
(560,434,cs),
(560,387,o),
(535,347,o),
(479,347,cs),
(416,347,o),
(382,398,o),
(382,501,cs),
(382,543,l),
(34,543,l),
(34,488,ls),
(34,208,o),
(133,65,o),
(384,36,c),
(384,-113,l)
);
}
);
width = 946;
}
);
unicode = 36;
},
{
glyphname = dong;
layers = (
{
background = {
shapes = (
{
closed = 1;
nodes = (
(478,-18,o),
(531,44,o),
(567,142,c),
(567,-2,l),
(891,-2,l),
(891,1331,l),
(954,1331,l),
(954,1498,l),
(891,1498,l),
(891,1596,l),
(567,1596,l),
(567,1498,l),
(233,1498,l),
(233,1331,l),
(567,1331,l),
(567,1161,l),
(523,1221,o),
(457,1251,o),
(371,1251,cs),
(185,1251,o),
(91,1105,o),
(91,921,cs),
(88,430,ls),
(88,180,o),
(115,-18,o),
(365,-18,cs)
);
},
{
closed = 1;
nodes = (
(891,-340,l),
(891,-106,l),
(88,-106,l),
(88,-340,l)
);
},
{
closed = 1;
nodes = (
(438,237,o),
(412,294,o),
(412,407,cs),
(412,857,ls),
(412,927,o),
(421,999,o),
(491,999,cs),
(554,999,o),
(567,921,o),
(567,857,cs),
(567,468,ls),
(567,380,o),
(578,237,o),
(489,237,cs)
);
}
);
};
layerId = "740CAC0B-92FD-4184-A3FF-9D0096FD1E3F";
shapes = (
{
closed = 1;
nodes = (
(478,-18,o),
(531,44,o),
(567,142,c),
(567,-2,l),
(891,-2,l),
(891,1331,l),
(954,1331,l),
(954,1498,l),
(891,1498,l),
(891,1596,l),
(567,1596,l),
(567,1498,l),
(293,1498,l),
(293,1331,l),
(567,1331,l),
(567,1161,l),
(523,1221,o),
(457,1251,o),
(371,1251,cs),
(185,1251,o),
(90,1105,o),
(90,921,cs),
(90,430,ls),
(90,180,o),
(115,-18,o),
(365,-18,cs)
);
},
{
closed = 1;
nodes = (
(871,-340,l),
(871,-106,l),
(108,-106,l),
(108,-340,l)
);
},
{
closed = 1;
nodes = (
(438,237,o),
(412,294,o),
(412,407,cs),
(412,857,ls),
(412,927,o),
(421,999,o),
(491,999,cs),
(554,999,o),
(567,921,o),
(567,857,cs),
(567,408,ls),
(567,292,o),
(548,237,o),
(489,237,cs)
);
}
);
width = 1042;
}
);
unicode = 8363;
},
{
glyphname = dotaboverightcomb;
layers = (
{
anchors = (
{
name = top;
position = "{179, 1890}";
}
);
layerId = "740CAC0B-92FD-4184-A3FF-9D0096FD1E3F";
shapes = (
{
closed = 1;
nodes = (
(358,1592,l),
(358,1890,l),
(0,1890,l),
(0,1592,l)
);
}
);
width = 0;
}
);
unicode = 856;
},
{
glyphname = dotaccent;
layers = (
{
anchors = (
{
name = _top;
position = "{246, 1500}";
}
);
background = {
shapes = (
{
closed = 1;
nodes = (
(425,1592,l),
(425,1890,l),
(67,1890,l),
(67,1592,l)
);
}
);
};
layerId = "740CAC0B-92FD-4184-A3FF-9D0096FD1E3F";
shapes = (
{
closed = 1;
nodes = (
(425,1592,l),
(425,1890,l),
(67,1890,l),
(67,1592,l)
);
}
);
width = 491;
}
);
unicode = 729;
},
{
glyphname = dotaccentcomb;
layers = (
{
anchors = (
{
name = _top;
position = "{0, 1500}";
},
{
name = top;
position = "{0, 1890}";
}
);
layerId = "740CAC0B-92FD-4184-A3FF-9D0096FD1E3F";
shapes = (
{
closed = 1;
nodes = (
(179,1592,l),
(179,1890,l),
(-179,1890,l),
(-179,1592,l)
);
}
);
width = 0;
}
);
unicode = 775;
},
{
glyphname = dotaccentcomb.case;
layers = (
{
anchors = (
{
name = _top_case;
position = "{0, 1500}";
},
{
name = top_case;
position = "{0, 1879}";
}
);
background = {
shapes = (
{
closed = 1;
nodes = (
(179,1592,l),
(179,1850,l),
(-179,1850,l),
(-179,1592,l)
);
}
);
};
layerId = "740CAC0B-92FD-4184-A3FF-9D0096FD1E3F";
shapes = (
{
closed = 1;
nodes = (
(179,1592,l),
(179,1850,l),
(-179,1850,l),
(-179,1592,l)
);
}
);
width = 0;
}
);
},
{
glyphname = dotbelowcomb;
layers = (
{
anchors = (
{
name = _bottom;
position = "{0, 0}";
},
{
name = _top;
position = "{0, -509}";
}
);
layerId = "740CAC0B-92FD-4184-A3FF-9D0096FD1E3F";
shapes = (
{
closed = 1;
nodes = (
(179,-417,l),
(179,-119,l),
(-179,-119,l),
(-179,-417,l)
);
}
);
width = 0;
}
);
unicode = 803;
},
{
glyphname = dotbelowcomb.case;
layers = (
{
anchors = (
{
name = _bottom;
position = "{0, 0}";
},
{
name = _top;
position = "{0, -579}";
},
{
name = bottom;
position = "{0, -484}";
}
);
layerId = "740CAC0B-92FD-4184-A3FF-9D0096FD1E3F";
shapes = (
{
closed = 1;
nodes = (
(179,-487,l),
(179,-189,l),
(-179,-189,l),
(-179,-487,l)
);
}
);
width = 0;
}
);
},
{
glyphname = doubleprimemod;
layers = (
{
layerId = "740CAC0B-92FD-4184-A3FF-9D0096FD1E3F";
shapes = (
{
closed = 1;
nodes = (
(766,1500,l),
(1044,2155,l),
(707,2155,l),
(553,1500,l)
);
},
{
closed = 1;
nodes = (
(346,1500,l),
(624,2155,l),
(287,2155,l),
(133,1500,l)
);
}
);
width = 1144;
}
);
unicode = 698;
},
{
glyphname = downArrow;
layers = (
{
layerId = "740CAC0B-92FD-4184-A3FF-9D0096FD1E3F";
shapes = (
{
closed = 1;
nodes = (
(732,193,l),
(732,502,l),
(560,406,l),
(560,1516,l),
(242,1516,l),
(242,401,l),
(60,502,l),
(60,193,l),
(396,0,l)
);
}
);
width = 792;
}
);
unicode = 8595;
},
{
glyphname = downBlackTriangle;
layers = (
{
layerId = "740CAC0B-92FD-4184-A3FF-9D0096FD1E3F";
shapes = (
{
closed = 1;
nodes = (
(1574,1500,l),
(78,1500,l),
(826,-16,l)
);
}
);
width = 1652;
}
);
unicode = 9660;
},
{
glyphname = downWhiteTriangle;
layers = (
{
layerId = "740CAC0B-92FD-4184-A3FF-9D0096FD1E3F";
shapes = (
{
closed = 1;
nodes = (
(1574,1500,l),
(78,1500,l),
(826,-16,l)
);
},
{
closed = 1;
nodes = (
(392,1305,l),
(1260,1305,l),
(826,425,l)
);
}
);
width = 1652;
}
);
unicode = 9661;
},
{
glyphname = dtail;
layers = (
{
background = {
shapes = (
{
closed = 1;
nodes = (
(492,-16,o),
(550,51,o),
(590,159,c),
(590,252,l),
(954,252,l),
(954,1760,l),
(590,1760,l),
(590,1340,l),
(547,1450,o),
(477,1516,o),
(332,1516,cs),
(136,1516,o),
(62,1360,o),
(62,1129,cs),
(62,477,ls),
(62,201,o),
(90,-16,o),
(367,-16,cs)
);
},
{
closed = 1;
nodes = (
(1040,80,l),
(975,80,o),
(954,126,o),
(954,212,cs),
(954,252,l),
(590,252,l),
(590,202,ls),
(590,-50,o),
(689,-196,o),
(1040,-196,c)
);
},
{
closed = 1;
nodes = (
(447,264,o),
(418,327,o),
(418,452,cs),
(418,1083,ls),
(418,1160,o),
(429,1239,o),
(506,1239,cs),
(576,1239,o),
(590,1153,o),
(590,1083,cs),
(590,452,ls),
(590,327,o),
(574,264,o),
(504,264,cs)
);
}
);
};
layerId = "740CAC0B-92FD-4184-A3FF-9D0096FD1E3F";
shapes = (
{
closed = 1;
nodes = (
(1040,80,l),
(975,80,o),
(954,126,o),
(954,212,cs),
(954,1760,l),
(590,1760,l),
(590,1340,l),
(547,1450,o),
(477,1516,o),
(332,1516,cs),
(136,1516,o),
(62,1360,o),
(62,1129,cs),
(62,477,ls),
(62,201,o),
(90,-16,o),
(367,-16,cs),
(504,-16,o),
(561,65,o),
(601,192,c),
(591,192,l),
(591,-68,o),
(721,-196,o),
(1040,-196,c)
);
},
{
closed = 1;
nodes = (
(447,264,o),
(418,327,o),
(418,452,cs),
(418,1083,ls),
(418,1160,o),
(429,1239,o),
(506,1239,cs),
(576,1239,o),
(590,1153,o),
(590,1083,cs),
(590,452,ls),
(590,327,o),
(574,264,o),
(504,264,cs)
);
}
);
width = 1020;
}
);
leftKerningGroup = d;
unicode = 598;
},
{
glyphname = e;
layers = (
{
anchors = (
{
name = bottom;
position = "{495, 0}";
},
{
name = ogonek;
position = "{518, 0}";
},
{
name = top;
position = "{510, 1500}";
},
{
name = top_case;
position = "{510, 1500}";
}
);
background = {
shapes = (
{
closed = 1;
nodes = (
(832,-16,o),
(942,157,o),
(942,494,cs),
(942,579,l),
(586,579,l),
(586,435,ls),
(586,350,o),
(590,260,o),
(504,260,cs),
(424,260,o),
(418,346,o),
(418,427,cs),
(418,717,l),
(938,717,l),
(941,768,o),
(942,848,o),
(942,983,cs),
(942,1092,ls),
(942,1376,o),
(798,1516,o),
(510,1516,cs),
(230,1516,o),
(60,1371,o),
(60,1092,cs),
(60,489,ls),
(60,170,o),
(171,-16,o),
(492,-16,cs)
);
},
{
closed = 1;
nodes = (
(416,1087,ls),
(416,1199,o),
(449,1249,o),
(506,1249,cs),
(559,1249,o),
(586,1195,o),
(586,1087,cs),
(586,895,l),
(416,895,l)
);
}
);
};
layerId = "740CAC0B-92FD-4184-A3FF-9D0096FD1E3F";
shapes = (
{
closed = 1;
nodes = (
(832,-16,o),
(942,157,o),
(942,494,cs),
(942,579,l),
(586,579,l),
(586,435,ls),
(586,331,o),
(576,260,o),
(502,260,cs),
(424,260,o),
(418,346,o),
(418,427,cs),
(418,717,l),
(938,717,l),
(941,768,o),
(942,848,o),
(942,983,cs),
(942,1092,ls),
(942,1376,o),
(798,1516,o),
(510,1516,cs),
(230,1516,o),
(60,1371,o),
(60,1092,cs),
(60,489,ls),
(60,170,o),
(171,-16,o),
(492,-16,cs)
);
},
{
closed = 1;
nodes = (
(416,1097,ls),
(416,1209,o),
(449,1249,o),
(506,1249,cs),
(559,1249,o),
(586,1205,o),
(586,1097,cs),
(586,895,l),
(416,895,l)
);
}
);
width = 1000;
}
);
leftKerningGroup = o;
rightKerningGroup = e;
unicode = 101;
},
{
glyphname = e.sc;
layers = (
{
anchors = (
{
name = bottom;
position = "{442, 0}";
},
{
name = ogonek;
position = "{518, 10}";
},
{
name = top_case;
position = "{432, 1590}";
},
{
name = top;
position = "{436, 1560}";
}
);
layerId = "740CAC0B-92FD-4184-A3FF-9D0096FD1E3F";
shapes = (
{
closed = 1;
nodes = (
(805,0,l),
(805,343,l),
(436,343,l),
(436,631,l),
(768,631,l),
(768,962,l),
(436,962,l),
(436,1220,l),
(782,1220,l),
(782,1560,l),
(78,1560,l),
(78,0,l)
);
}
);
width = 843;
}
);
rightKerningGroup = e.sc;
},
{
glyphname = eight;
layers = (
{
background = {
shapes = (
{
closed = 1;
nodes = (
(837,-19,o),
(965,178,o),
(965,525,c),
(966,535,o),
(966,550,o),
(966,569,cs),
(966,776,o),
(952,918,o),
(815,984,c),
(934,1034,o),
(964,1152,o),
(964,1321,cs),
(964,1644,o),
(812,1782,o),
(506,1782,cs),
(207,1782,o),
(47,1647,o),
(47,1335,cs),
(47,1289,ls),
(47,1135,o),
(88,1030,o),
(196,986,c),
(81,927,o),
(46,820,o),
(46,642,cs),
(46,525,ls),
(46,178,o),
(175,-19,o),
(506,-19,cs)
);
},
{
closed = 1;
nodes = (
(442,329,o),
(410,387,o),
(410,503,cs),
(410,514,o),
(411,550,o),
(411,560,cs),
(411,575,l),
(404,674,o),
(415,815,o),
(506,815,cs),
(597,815,o),
(601,686,o),
(601,592,cs),
(601,571,o),
(602,525,o),
(602,503,cs),
(602,387,o),
(570,329,o),
(506,329,cs)
);
},
{
closed = 1;
nodes = (
(444,1134,o),
(413,1190,o),
(413,1302,cs),
(413,1377,o),
(434,1458,o),
(506,1458,cs),
(578,1458,o),
(599,1377,o),
(599,1302,cs),
(599,1190,o),
(568,1134,o),
(506,1134,cs)
);
}
);
};
layerId = "740CAC0B-92FD-4184-A3FF-9D0096FD1E3F";
shapes = (
{
closed = 1;
nodes = (
(837,-19,o),
(966,178,o),
(966,525,cs),
(966,642,ls),
(966,820,o),
(942,918,o),
(815,984,c),
(934,1034,o),
(964,1152,o),
(964,1321,cs),
(964,1644,o),
(812,1782,o),
(506,1782,cs),
(207,1782,o),
(47,1647,o),
(47,1335,cs),
(47,1289,ls),
(47,1135,o),
(88,1030,o),
(196,986,c),
(81,927,o),
(46,820,o),
(46,642,cs),
(46,525,ls),
(46,178,o),
(175,-19,o),
(506,-19,cs)
);
},
{
closed = 1;
nodes = (
(442,329,o),
(411,378,o),
(411,484,cs),
(411,645,ls),
(411,752,o),
(433,815,o),
(506,815,cs),
(577,815,o),
(602,752,o),
(602,645,cs),
(602,484,ls),
(602,378,o),
(570,329,o),
(506,329,cs)
);
},
{
closed = 1;
nodes = (
(444,1134,o),
(413,1190,o),
(413,1302,cs),
(413,1377,o),
(434,1458,o),
(506,1458,cs),
(578,1458,o),
(599,1377,o),
(599,1302,cs),
(599,1190,o),
(568,1134,o),
(506,1134,cs)
);
}
);
width = 1012;
}
);
unicode = 56;
},
{
glyphname = eight.dnom;
layers = (
{
layerId = "740CAC0B-92FD-4184-A3FF-9D0096FD1E3F";
shapes = (
{
closed = 1;
nodes = (
(511,-10,o),
(587,106,o),
(587,310,c),
(587,316,o),
(587,325,o),
(587,336,cs),
(587,453,o),
(579,536,o),
(498,575,c),
(568,604,o),
(586,674,o),
(586,773,cs),
(586,963,o),
(497,1044,o),
(317,1044,cs),
(141,1044,o),
(47,965,o),
(47,781,cs),
(47,754,ls),
(47,664,o),
(71,602,o),
(134,576,c),
(67,541,o),
(46,479,o),
(46,374,cs),
(46,310,ls),
(46,106,o),
(122,-10,o),
(317,-10,cs)
);
},
{
closed = 1;
nodes = (
(279,195,o),
(263,229,o),
(263,297,cs),
(263,362,ls),
(263,433,o),
(275,476,o),
(317,476,cs),
(370,476,o),
(373,410,o),
(373,364,cs),
(373,297,ls),
(373,229,o),
(354,195,o),
(317,195,cs)
);
},
{
closed = 1;
nodes = (
(280,663,o),
(262,696,o),
(262,762,cs),
(262,806,o),
(274,854,o),
(317,854,cs),
(359,854,o),
(371,806,o),
(371,762,cs),
(371,696,o),
(353,663,o),
(317,663,cs)
);
}
);
width = 633;
}
);
},
{
glyphname = eight.numr;
layers = (
{
layerId = "740CAC0B-92FD-4184-A3FF-9D0096FD1E3F";
shapes = (
{
closed = 1;
nodes = (
(511,712,o),
(587,828,o),
(587,1032,c),
(587,1038,o),
(587,1047,o),
(587,1058,cs),
(587,1175,o),
(579,1258,o),
(498,1297,c),
(568,1326,o),
(586,1396,o),
(586,1495,cs),
(586,1685,o),
(497,1766,o),
(317,1766,cs),
(141,1766,o),
(47,1687,o),
(47,1503,cs),
(47,1476,ls),
(47,1386,o),
(71,1324,o),
(134,1298,c),
(67,1263,o),
(46,1201,o),
(46,1096,cs),
(46,1032,ls),
(46,828,o),
(122,712,o),
(317,712,cs)
);
},
{
closed = 1;
nodes = (
(279,917,o),
(263,951,o),
(263,1019,cs),
(263,1084,ls),
(263,1155,o),
(275,1198,o),
(317,1198,cs),
(370,1198,o),
(373,1132,o),
(373,1086,cs),
(373,1019,ls),
(373,951,o),
(354,917,o),
(317,917,cs)
);
},
{
closed = 1;
nodes = (
(280,1385,o),
(262,1418,o),
(262,1484,cs),
(262,1528,o),
(274,1576,o),
(317,1576,cs),
(359,1576,o),
(371,1528,o),
(371,1484,cs),
(371,1418,o),
(353,1385,o),
(317,1385,cs)
);
}
);
width = 633;
}
);
},
{
glyphname = eight.sinf;
layers = (
{
layerId = "740CAC0B-92FD-4184-A3FF-9D0096FD1E3F";
shapes = (
{
closed = 1;
nodes = (
(511,-76,o),
(587,40,o),
(587,244,c),
(587,250,o),
(587,259,o),
(587,270,cs),
(587,387,o),
(579,470,o),
(498,509,c),
(568,538,o),
(586,608,o),
(586,707,cs),
(586,897,o),
(497,978,o),
(317,978,cs),
(141,978,o),
(47,899,o),
(47,715,cs),
(47,688,ls),
(47,598,o),
(71,536,o),
(134,510,c),
(67,475,o),
(46,413,o),
(46,308,cs),
(46,244,ls),
(46,40,o),
(122,-76,o),
(317,-76,cs)
);
},
{
closed = 1;
nodes = (
(279,129,o),
(263,163,o),
(263,231,cs),
(263,296,ls),
(263,367,o),
(275,410,o),
(317,410,cs),
(370,410,o),
(373,344,o),
(373,298,cs),
(373,231,ls),
(373,163,o),
(354,129,o),
(317,129,cs)
);
},
{
closed = 1;
nodes = (
(280,597,o),
(262,630,o),
(262,696,cs),
(262,740,o),
(274,788,o),
(317,788,cs),
(359,788,o),
(371,740,o),
(371,696,cs),
(371,630,o),
(353,597,o),
(317,597,cs)
);
}
);
width = 633;
}
);
},
{
glyphname = eight.subs;
layers = (
{
layerId = "740CAC0B-92FD-4184-A3FF-9D0096FD1E3F";
shapes = (
{
closed = 1;
nodes = (
(511,-76,o),
(587,40,o),
(587,244,c),
(587,250,o),
(587,259,o),
(587,270,cs),
(587,387,o),
(579,470,o),
(498,509,c),
(568,538,o),
(586,608,o),
(586,707,cs),
(586,897,o),
(497,978,o),
(317,978,cs),
(141,978,o),
(47,899,o),
(47,715,cs),
(47,688,ls),
(47,598,o),
(71,536,o),
(134,510,c),
(67,475,o),
(46,413,o),
(46,308,cs),
(46,244,ls),
(46,40,o),
(122,-76,o),
(317,-76,cs)
);
},
{
closed = 1;
nodes = (
(279,129,o),
(263,163,o),
(263,231,cs),
(263,296,ls),
(263,367,o),
(275,410,o),
(317,410,cs),
(370,410,o),
(373,344,o),
(373,298,cs),
(373,231,ls),
(373,163,o),
(354,129,o),
(317,129,cs)
);
},
{
closed = 1;
nodes = (
(280,597,o),
(262,630,o),
(262,696,cs),
(262,740,o),
(274,788,o),
(317,788,cs),
(359,788,o),
(371,740,o),
(371,696,cs),
(371,630,o),
(353,597,o),
(317,597,cs)
);
}
);
width = 633;
}
);
},
{
glyphname = eight.sups;
layers = (
{
layerId = "740CAC0B-92FD-4184-A3FF-9D0096FD1E3F";
shapes = (
{
closed = 1;
nodes = (
(511,782,o),
(587,898,o),
(587,1102,c),
(587,1108,o),
(587,1117,o),
(587,1128,cs),
(587,1245,o),
(579,1328,o),
(498,1367,c),
(568,1396,o),
(586,1466,o),
(586,1565,cs),
(586,1755,o),
(497,1836,o),
(317,1836,cs),
(141,1836,o),
(47,1757,o),
(47,1573,cs),
(47,1546,ls),
(47,1456,o),
(71,1394,o),
(134,1368,c),
(67,1333,o),
(46,1271,o),
(46,1166,cs),
(46,1102,ls),
(46,898,o),
(122,782,o),
(317,782,cs)
);
},
{
closed = 1;
nodes = (
(279,987,o),
(263,1021,o),
(263,1089,cs),
(263,1154,ls),
(263,1225,o),
(275,1268,o),
(317,1268,cs),
(370,1268,o),
(373,1202,o),
(373,1156,cs),
(373,1089,ls),
(373,1021,o),
(354,987,o),
(317,987,cs)
);
},
{
closed = 1;
nodes = (
(280,1455,o),
(262,1488,o),
(262,1554,cs),
(262,1598,o),
(274,1646,o),
(317,1646,cs),
(359,1646,o),
(371,1598,o),
(371,1554,cs),
(371,1488,o),
(353,1455,o),
(317,1455,cs)
);
}
);
width = 633;
}
);
},
{
glyphname = eightinferior;
layers = (
{
layerId = "740CAC0B-92FD-4184-A3FF-9D0096FD1E3F";
shapes = (
{
closed = 1;
nodes = (
(511,-76,o),
(587,40,o),
(587,244,c),
(587,250,o),
(587,259,o),
(587,270,cs),
(587,387,o),
(579,470,o),
(498,509,c),
(568,538,o),
(586,608,o),
(586,707,cs),
(586,897,o),
(497,978,o),
(317,978,cs),
(141,978,o),
(47,899,o),
(47,715,cs),
(47,688,ls),
(47,598,o),
(71,536,o),
(134,510,c),
(67,475,o),
(46,413,o),
(46,308,cs),
(46,244,ls),
(46,40,o),
(122,-76,o),
(317,-76,cs)
);
},
{
closed = 1;
nodes = (
(279,129,o),
(263,163,o),
(263,231,cs),
(263,296,ls),
(263,367,o),
(275,410,o),
(317,410,cs),
(370,410,o),
(373,344,o),
(373,298,cs),
(373,231,ls),
(373,163,o),
(354,129,o),
(317,129,cs)
);
},
{
closed = 1;
nodes = (
(280,597,o),
(262,630,o),
(262,696,cs),
(262,740,o),
(274,788,o),
(317,788,cs),
(359,788,o),
(371,740,o),
(371,696,cs),
(371,630,o),
(353,597,o),
(317,597,cs)
);
}
);
width = 633;
}
);
unicode = 8328;
},
{
glyphname = eightsuperior;
leftMetricsKey = eight;
rightMetricsKey = eight;
layers = (
{
layerId = "740CAC0B-92FD-4184-A3FF-9D0096FD1E3F";
shapes = (
{
closed = 1;
nodes = (
(511,782,o),
(587,898,o),
(587,1102,c),
(587,1108,o),
(587,1117,o),
(587,1128,cs),
(587,1245,o),
(579,1328,o),
(498,1367,c),
(568,1396,o),
(586,1466,o),
(586,1565,cs),
(586,1755,o),
(497,1836,o),
(317,1836,cs),
(141,1836,o),
(47,1757,o),
(47,1573,cs),
(47,1546,ls),
(47,1456,o),
(71,1394,o),
(134,1368,c),
(67,1333,o),
(46,1271,o),
(46,1166,cs),
(46,1102,ls),
(46,898,o),
(122,782,o),
(317,782,cs)
);
},
{
closed = 1;
nodes = (
(279,987,o),
(263,1021,o),
(263,1089,cs),
(263,1154,ls),
(263,1225,o),
(275,1268,o),
(317,1268,cs),
(370,1268,o),
(373,1202,o),
(373,1156,cs),
(373,1089,ls),
(373,1021,o),
(354,987,o),
(317,987,cs)
);
},
{
closed = 1;
nodes = (
(280,1455,o),
(262,1488,o),
(262,1554,cs),
(262,1598,o),
(274,1646,o),
(317,1646,cs),
(359,1646,o),
(371,1598,o),
(371,1554,cs),
(371,1488,o),
(353,1455,o),
(317,1455,cs)
);
}
);
width = 633;
}
);
unicode = 8312;
},
{
glyphname = ellipsis;
layers = (
{
background = {
shapes = (
{
closed = 1;
nodes = (
(1395,1,l),
(1395,299,l),
(1037,299,l),
(1037,1,l)
);
},
{
closed = 1;
nodes = (
(413,1,l),
(413,299,l),
(55,299,l),
(55,1,l)
);
},
{
closed = 1;
nodes = (
(904,1,l),
(904,299,l),
(546,299,l),
(546,1,l)
);
}
);
};
layerId = "740CAC0B-92FD-4184-A3FF-9D0096FD1E3F";
shapes = (
{
closed = 1;
nodes = (
(413,1,l),
(413,299,l),
(55,299,l),
(55,1,l)
);
},
{
closed = 1;
nodes = (
(904,1,l),
(904,299,l),
(546,299,l),
(546,1,l)
);
},
{
closed = 1;
nodes = (
(1395,1,l),
(1395,299,l),
(1037,299,l),
(1037,1,l)
);
}
);
width = 1450;
}
);
unicode = 8230;
},
{
glyphname = emdash;
layers = (
{
background = {
shapes = (
{
closed = 1;
nodes = (
(1092,509,l),
(1092,741,l),
(60,741,l),
(60,509,l)
);
}
);
};
layerId = "740CAC0B-92FD-4184-A3FF-9D0096FD1E3F";
shapes = (
{
closed = 1;
nodes = (
(1092,509,l),
(1092,741,l),
(60,741,l),
(60,509,l)
);
}
);
width = 1153;
}
);
unicode = 8212;
},
{
glyphname = emptyset;
layers = (
{
background = {
shapes = (
{
closed = 1;
nodes = (
(1064,205,o),
(1348,489,o),
(1348,862,cs),
(1348,1019,o),
(1297,1161,o),
(1211,1272,c),
(1352,1413,l),
(1266,1499,l),
(1127,1360,l),
(1013,1460,o),
(861,1519,o),
(691,1519,cs),
(318,1519,o),
(34,1235,o),
(34,862,cs),
(34,692,o),
(93,540,o),
(193,426,c),
(67,300,l),
(153,214,l),
(281,342,l),
(392,256,o),
(534,205,o),
(691,205,cs)
);
},
{
closed = 1;
nodes = (
(571,334,o),
(465,375,o),
(382,443,c),
(1103,1164,l),
(1158,1078,o),
(1189,974,o),
(1189,862,cs),
(1189,571,o),
(980,334,o),
(691,334,cs)
);
},
{
closed = 1;
nodes = (
(298,531,l),
(232,622,o),
(193,737,o),
(193,862,c),
(193,1153,o),
(402,1390,o),
(691,1390,cs),
(823,1390,o),
(939,1340,o),
(1025,1258,c)
);
}
);
};
layerId = "740CAC0B-92FD-4184-A3FF-9D0096FD1E3F";
shapes = (
{
closed = 1;
nodes = (
(1064,205,o),
(1348,489,o),
(1348,862,cs),
(1348,1019,o),
(1297,1161,o),
(1211,1272,c),
(1352,1413,l),
(1266,1499,l),
(1127,1360,l),
(1014,1460,o),
(861,1519,o),
(691,1519,cs),
(318,1519,o),
(34,1235,o),
(34,862,cs),
(34,692,o),
(93,540,o),
(193,426,c),
(67,300,l),
(153,214,l),
(281,342,l),
(391,256,o),
(534,205,o),
(691,205,cs)
);
},
{
closed = 1;
nodes = (
(571,334,o),
(464,375,o),
(382,443,c),
(1103,1164,l),
(1158,1078,o),
(1189,974,o),
(1189,862,cs),
(1189,571,o),
(980,334,o),
(691,334,cs)
);
},
{
closed = 1;
nodes = (
(298,531,l),
(232,622,o),
(193,737,o),
(193,862,c),
(193,1153,o),
(402,1390,o),
(691,1390,cs),
(823,1390,o),
(940,1340,o),
(1025,1258,c)
);
}
);
width = 1386;
}
);
unicode = 8709;
},
{
glyphname = endash;
layers = (
{
background = {
shapes = (
{
closed = 1;
nodes = (
(576,509,l),
(576,741,l),
(60,741,l),
(60,509,l)
);
}
);
};
layerId = "740CAC0B-92FD-4184-A3FF-9D0096FD1E3F";
shapes = (
{
closed = 1;
nodes = (
(576,509,l),
(576,741,l),
(60,741,l),
(60,509,l)
);
}
);
width = 637;
}
);
unicode = 8211;
},
{
glyphname = eng;
layers = (
{
background = {
shapes = (
{
closed = 1;
nodes = (
(490,-458,l),
(772,-458,o),
(953,-305,o),
(953,0,cs),
(953,212,l),
(600,212,l),
(600,-41,ls),
(600,-152,o),
(560,-196,o),
(490,-196,c)
);
}
);
};
layerId = "740CAC0B-92FD-4184-A3FF-9D0096FD1E3F";
shapes = (
{
closed = 1;
nodes = (
(490,-458,l),
(772,-458,o),
(953,-305,o),
(953,0,cs),
(953,1157,ls),
(953,1379,o),
(864,1516,o),
(656,1516,cs),
(527,1516,o),
(456,1423,o),
(430,1309,c),
(430,1500,l),
(72,1500,l),
(72,0,l),
(430,0,l),
(430,1055,ls),
(430,1138,o),
(437,1239,o),
(520,1239,cs),
(578,1239,o),
(600,1179,o),
(600,1120,cs),
(600,-41,ls),
(600,-152,o),
(560,-196,o),
(490,-196,c)
);
}
);
width = 1021;
}
);
leftKerningGroup = n;
rightKerningGroup = n;
unicode = 331;
},
{
glyphname = eng.sc;
layers = (
{
layerId = "740CAC0B-92FD-4184-A3FF-9D0096FD1E3F";
shapes = (
{
closed = 1;
nodes = (
(467,-488,l),
(761,-488,o),
(942,-345,o),
(942,-58,cs),
(942,1560,l),
(622,1560,l),
(622,714,l),
(440,1560,l),
(78,1560,l),
(78,0,l),
(402,0,l),
(402,845,l),
(597,4,l),
(597,-71,ls),
(597,-152,o),
(557,-186,o),
(467,-186,c)
);
}
);
width = 1020;
}
);
},
{
glyphname = eopen;
layers = (
{
anchors = (
{
name = top;
position = "{504, 1500}";
},
{
name = bottom;
position = "{504, 0}";
}
);
guides = (
{
position = "{0, 579}";
}
);
layerId = "740CAC0B-92FD-4184-A3FF-9D0096FD1E3F";
shapes = (
{
closed = 1;
nodes = (
(823,-20,o),
(957,143,o),
(957,474,cs),
(957,549,l),
(601,549,l),
(601,448,ls),
(601,330,o),
(587,256,o),
(500,256,cs),
(430,256,o),
(409,298,o),
(409,430,cs),
(409,559,o),
(446,641,o),
(559,641,cs),
(574,641,o),
(585,640,o),
(593,639,c),
(593,915,l),
(472,915,o),
(406,964,o),
(406,1089,cs),
(406,1192,o),
(435,1241,o),
(502,1241,cs),
(586,1241,o),
(590,1162,o),
(590,1084,cs),
(590,1007,l),
(946,1007,l),
(946,1068,ls),
(946,1371,o),
(800,1516,o),
(499,1516,cs),
(205,1516,o),
(55,1362,o),
(55,1068,cs),
(55,909,o),
(100,790,o),
(251,753,c),
(251,816,l),
(83,745,o),
(51,619,o),
(51,460,cs),
(51,178,o),
(187,-20,o),
(522,-20,cs)
);
}
);
width = 996;
}
);
unicode = 603;
},
{
glyphname = equal;
layers = (
{
background = {
shapes = (
{
closed = 1;
nodes = (
(575,509,l),
(575,741,l),
(61,741,l),
(61,509,l)
);
},
{
closed = 1;
nodes = (
(575,892,l),
(575,1116,l),
(61,1116,l),
(61,892,l)
);
}
);
};
layerId = "740CAC0B-92FD-4184-A3FF-9D0096FD1E3F";
shapes = (
{
closed = 1;
nodes = (
(575,509,l),
(575,741,l),
(61,741,l),
(61,509,l)
);
},
{
closed = 1;
nodes = (
(575,892,l),
(575,1116,l),
(61,1116,l),
(61,892,l)
);
}
);
width = 637;
}
);
unicode = 61;
},
